<svg width="15" height="15" viewBox="0 0 15 15" fill="none" xmlns="http://www.w3.org/2000/svg">
<path d="M13.2826 0.542969H2.08262C1.31262 0.542969 0.689617 1.17297 0.689617 1.94297L0.682617 14.543L3.48262 11.743H13.2826C14.0526 11.743 14.6826 11.113 14.6826 10.343V1.94297C14.6826 1.17297 14.0526 0.542969 13.2826 0.542969ZM11.1826 8.94297H4.18262C3.79762 8.94297 3.48262 8.62797 3.48262 8.24297C3.48262 7.85797 3.79762 7.54297 4.18262 7.54297H11.1826C11.5676 7.54297 11.8826 7.85797 11.8826 8.24297C11.8826 8.62797 11.5676 8.94297 11.1826 8.94297ZM11.1826 6.84297H4.18262C3.79762 6.84297 3.48262 6.52797 3.48262 6.14297C3.48262 5.75797 3.79762 5.44297 4.18262 5.44297H11.1826C11.5676 5.44297 11.8826 5.75797 11.8826 6.14297C11.8826 6.52797 11.5676 6.84297 11.1826 6.84297ZM11.1826 4.74297H4.18262C3.79762 4.74297 3.48262 4.42797 3.48262 4.04297C3.48262 3.65797 3.79762 3.34297 4.18262 3.34297H11.1826C11.5676 3.34297 11.8826 3.65797 11.8826 4.04297C11.8826 4.42797 11.5676 4.74297 11.1826 4.74297Z" fill="#069B49"/>
</svg>
