<svg width="15" height="15" viewBox="0 0 15 15" fill="none" xmlns="http://www.w3.org/2000/svg">
<path d="M11.5467 14.5437C10.9367 14.5437 10.0799 14.323 8.79674 13.6062C7.23642 12.7312 6.02955 11.9233 4.47767 10.3755C2.98142 8.88022 2.2533 7.91209 1.23424 6.05772C0.0829859 3.96397 0.279236 2.86647 0.498611 2.39741C0.759861 1.83678 1.14549 1.50147 1.64392 1.16866C1.92703 0.983166 2.22663 0.824161 2.53892 0.693655C2.57017 0.680218 2.59924 0.667405 2.62517 0.655843C2.77986 0.586155 3.01424 0.480843 3.31111 0.593343C3.50924 0.667718 3.68611 0.819905 3.96299 1.09334C4.5308 1.65334 5.30674 2.90053 5.59299 3.51303C5.78517 3.92584 5.91236 4.19834 5.91267 4.50397C5.91267 4.86178 5.73267 5.13772 5.51424 5.43553C5.4733 5.49147 5.43267 5.54491 5.3933 5.59678C5.15549 5.90928 5.1033 5.99959 5.13767 6.16084C5.20736 6.48491 5.72705 7.44959 6.58111 8.30178C7.43517 9.15397 8.37205 9.64084 8.69736 9.71022C8.86549 9.74615 8.95767 9.69178 9.28017 9.44553C9.32642 9.41022 9.37392 9.37366 9.42361 9.33709C9.75674 9.08928 10.0199 8.91397 10.3692 8.91397H10.3711C10.6752 8.91397 10.9355 9.04584 11.3667 9.26334C11.9292 9.54709 13.2139 10.313 13.7774 10.8815C14.0514 11.1577 14.2042 11.334 14.2789 11.5318C14.3914 11.8296 14.2855 12.063 14.2164 12.2193C14.2049 12.2452 14.192 12.2737 14.1786 12.3052C14.0471 12.617 13.8871 12.9159 13.7008 13.1983C13.3686 13.6952 13.032 14.0799 12.4702 14.3415C12.1817 14.478 11.8659 14.5471 11.5467 14.5437Z" fill="#069B49"/>
</svg>
