<svg width="15" height="15" viewBox="0 0 15 15" fill="none" xmlns="http://www.w3.org/2000/svg">
<path d="M7.03419 0.542969C10.9003 0.542969 14.0342 3.67687 14.0342 7.54296C14.0342 11.4091 10.9003 14.543 7.03419 14.543C5.79711 14.5451 4.58179 14.2177 3.51319 13.5945L0.0369905 14.543L0.98339 11.0654C0.359661 9.99641 0.0320226 8.78057 0.0341904 7.54296C0.0341904 3.67687 3.16809 0.542969 7.03419 0.542969ZM4.64859 4.25297L4.50859 4.25857C4.41807 4.2648 4.32963 4.28858 4.24819 4.32857C4.17229 4.37162 4.10298 4.42537 4.04239 4.48817C3.95839 4.56727 3.91079 4.63587 3.85969 4.70237C3.60077 5.039 3.46137 5.45228 3.46349 5.87696C3.46489 6.21996 3.55449 6.55386 3.69449 6.86606C3.98079 7.49746 4.45189 8.16596 5.07349 8.78546C5.22329 8.93456 5.37029 9.08436 5.52849 9.22366C6.30089 9.90364 7.22128 10.394 8.21648 10.6559L8.61408 10.7168C8.74358 10.7238 8.87308 10.714 9.00328 10.7077C9.20711 10.6969 9.40613 10.6417 9.58638 10.546C9.67797 10.4986 9.76743 10.4472 9.85448 10.392C9.85448 10.392 9.88412 10.3719 9.94198 10.329C10.0365 10.259 10.0946 10.2093 10.173 10.1274C10.2318 10.0667 10.2808 9.99623 10.32 9.91596C10.3746 9.80186 10.4292 9.58416 10.4516 9.40286C10.4684 9.26426 10.4635 9.18866 10.4614 9.14176C10.4586 9.06686 10.3963 8.98916 10.3284 8.95626L9.92098 8.77356C9.92098 8.77356 9.31198 8.50826 8.93958 8.33886C8.9006 8.32189 8.85885 8.31217 8.81638 8.31016C8.76849 8.30515 8.72007 8.3105 8.67442 8.32584C8.62876 8.34117 8.58694 8.36615 8.55178 8.39906C8.54828 8.39766 8.50138 8.43756 7.99528 9.05076C7.96624 9.0898 7.92622 9.11929 7.88035 9.1355C7.83447 9.15171 7.7848 9.15389 7.73768 9.14176C7.69206 9.1296 7.64738 9.11416 7.60398 9.09556C7.51718 9.05916 7.48708 9.04516 7.42758 9.01996C7.0257 8.8449 6.65369 8.608 6.32509 8.31786C6.23689 8.24086 6.15499 8.15686 6.07099 8.07566C5.79561 7.81191 5.55561 7.51355 5.35699 7.18806L5.31569 7.12156C5.28647 7.07662 5.26251 7.02847 5.24429 6.97806C5.21769 6.87516 5.28699 6.79256 5.28699 6.79256C5.28699 6.79256 5.45709 6.60636 5.53619 6.50556C5.61319 6.40756 5.67829 6.31236 5.72029 6.24446C5.80289 6.11146 5.82879 5.97496 5.78539 5.86926C5.58939 5.39047 5.38685 4.91423 5.17779 4.44057C5.13649 4.34677 5.01399 4.27957 4.90269 4.26627C4.86489 4.2616 4.82709 4.25787 4.78929 4.25507C4.6953 4.24967 4.60105 4.25061 4.50719 4.25787L4.64859 4.25297Z" fill="#069B49"/>
</svg>
