<svg width="58" height="58" viewBox="0 0 58 58" fill="none" xmlns="http://www.w3.org/2000/svg">
<circle cx="28.6963" cy="28.6963" r="23.6338" fill="#199696"/>
<circle cx="28.6963" cy="28.6963" r="28.1963" stroke="#83C8C0"/>
<path fill-rule="evenodd" clip-rule="evenodd" d="M37.7526 20.4826C37.6311 20.6941 37.3616 20.7666 37.1501 20.6455C36.9387 20.524 36.8662 20.2545 36.9873 20.0431L38.7111 17.0574C38.8325 16.846 39.1021 16.7734 39.3135 16.8945C39.5249 17.016 39.5974 17.2855 39.4763 17.4969L37.7526 20.4826ZM20.738 26.452L14.2993 28.1771C13.4086 28.4159 12.877 29.3375 13.1157 30.2279L13.8293 32.8914C14.0681 33.7822 14.9897 34.3137 15.8801 34.075C15.8801 34.075 21.7817 32.4935 22.3185 32.3499L20.738 26.452ZM33.9811 23.886L35.0703 27.9507L36.4786 26.9179C36.6935 26.7606 36.7848 26.5009 36.7157 26.2437L36.2597 24.5415C36.1906 24.2842 35.9819 24.105 35.7172 24.0762L33.9811 23.886ZM28.816 20.612L32.2341 33.3689C30.0276 31.9554 25.6421 31.6527 23.1771 32.1364L21.5884 26.2071C23.9656 25.3932 27.6115 22.9398 28.816 20.612ZM30.0417 17.187C30.6714 17.0184 31.3255 17.3953 31.4941 18.0251L35.8903 34.4314C36.0592 35.0626 35.6833 35.7146 35.0521 35.8839C34.4213 36.0529 33.7687 35.6763 33.5997 35.0458L29.2025 18.6361C29.0363 18.0073 29.4129 17.3553 30.0417 17.187ZM16.7035 34.7711L19.8784 33.9204L22.7823 39.6184C22.8743 39.7987 22.7775 40.0156 22.5822 40.0679L20.7958 40.5465C20.6621 40.5824 20.5266 40.5311 20.4503 40.4158L16.7035 34.7711ZM39.7513 29.7466C39.5399 29.6252 39.4674 29.3556 39.5885 29.1442C39.71 28.9328 39.9795 28.8603 40.1909 28.9814L43.1766 30.7051C43.388 30.8266 43.4606 31.0961 43.3395 31.3075C43.218 31.5189 42.9485 31.5915 42.737 31.4704L39.7513 29.7466ZM40.6698 24.7022C40.4338 24.7652 40.1913 24.6249 40.128 24.3889C40.0647 24.1529 40.2053 23.9103 40.4413 23.847L43.7715 22.9549C44.0075 22.8919 44.2501 23.0322 44.3134 23.2682C44.3763 23.5043 44.2361 23.7468 44 23.8101L40.6698 24.7022Z" fill="white"/>
</svg>
