<svg width="27" height="32" viewBox="0 0 27 32" fill="none" xmlns="http://www.w3.org/2000/svg">
<path d="M4.44336 9.99754H0V4.44334C0 3.21587 0.994211 2.22166 2.22168 2.22166C3.44915 2.22166 4.44336 3.21587 4.44336 4.44334V9.99754ZM26.6602 4.44334V29.9927C26.6602 30.4148 26.4269 30.8035 26.0492 30.9813C25.6715 31.1701 25.216 31.1368 24.8828 30.8813L22.5945 29.1595L20.295 30.8813C19.9062 31.1812 19.3619 31.1812 18.962 30.8813L16.6737 29.1595L14.3742 30.8813C13.9743 31.1812 13.4411 31.1812 13.0412 30.8813L10.7418 29.1595L8.44231 30.8813C8.24236 31.0257 8.00907 31.1035 7.77581 31.1035C7.60918 31.1035 7.43145 31.0702 7.27595 30.9813C6.89826 30.7924 6.66497 30.4147 6.66497 29.9927V3.3325C6.66497 2.41049 6.28728 1.57737 5.68743 0.977521C5.24309 0.533185 4.67655 0.21106 4.04339 0.0777588C4.16558 0.0222168 4.29888 0 4.44329 0H22.2167C24.6717 0 26.6602 1.9884 26.6602 4.44334ZM11.1084 5.55418C11.1084 6.16793 11.6055 6.66502 12.2192 6.66502H17.7734C18.3872 6.66502 18.8843 6.16793 18.8843 5.55418C18.8843 4.94043 18.3872 4.44334 17.7734 4.44334H12.2192C11.6055 4.44334 11.1084 4.94043 11.1084 5.55418ZM11.1084 18.8843C11.1084 19.498 11.6055 19.9951 12.2192 19.9951H18.8843C19.498 19.9951 19.9951 19.498 19.9951 18.8843C19.9951 18.2705 19.498 17.7734 18.8843 17.7734H12.2192C11.6055 17.7734 11.1084 18.2705 11.1084 18.8843ZM12.2192 15.5517H18.8843C19.498 15.5517 19.9951 15.0547 19.9951 14.4409C19.9951 13.8271 19.498 13.3301 18.8843 13.3301H12.2192C11.6055 13.3301 11.1084 13.8271 11.1084 14.4409C11.1084 15.0547 11.6055 15.5517 12.2192 15.5517ZM22.2168 23.3276C22.2168 22.7139 21.7197 22.2168 21.106 22.2168H12.2192C11.6055 22.2168 11.1084 22.7139 11.1084 23.3276C11.1084 23.9414 11.6055 24.4385 12.2192 24.4385H21.106C21.7197 24.4385 22.2168 23.9414 22.2168 23.3276ZM22.2168 9.99754C22.2168 9.38379 21.7197 8.8867 21.106 8.8867H12.2192C11.6055 8.8867 11.1084 9.38379 11.1084 9.99754C11.1084 10.6113 11.6055 11.1084 12.2192 11.1084H21.106C21.7197 11.1084 22.2168 10.6113 22.2168 9.99754Z" fill="#1079D5"/>
</svg>
