<svg width="48" height="48" viewBox="0 0 48 48" fill="none" xmlns="http://www.w3.org/2000/svg">
<circle cx="23.6338" cy="23.6338" r="23.6338" fill="#FAC83C"/>
<path fill-rule="evenodd" clip-rule="evenodd" d="M28.7996 32.5673L25.6635 34.3777C25.4126 34.5225 25.0924 34.4371 24.9476 34.187L22.1479 29.3384L18.4316 33.5762C18.3479 33.685 18.222 33.7624 18.0754 33.7804C17.7876 33.8146 17.5259 33.6086 17.4926 33.3208L15.0912 13.4095C15.0768 13.28 15.1092 13.146 15.1928 13.0336C15.3664 12.8025 15.6947 12.7557 15.9258 12.9284L31.9366 24.9405C32.0535 25.0152 32.1407 25.1357 32.1695 25.2823C32.2244 25.5665 32.0391 25.8426 31.7549 25.8975L26.1923 27.0037L28.9749 31.8227L28.9911 31.8496C29.1359 32.1005 29.0505 32.4207 28.8005 32.5655L28.7996 32.5673Z" fill="white"/>
</svg>
