<svg width="48" height="48" viewBox="0 0 48 48" fill="none" xmlns="http://www.w3.org/2000/svg">
<circle cx="23.6338" cy="23.6338" r="23.6338" fill="#83C8C0"/>
<path fill-rule="evenodd" clip-rule="evenodd" d="M32.692 15.4201C32.5706 15.6316 32.301 15.7041 32.0896 15.583C31.8782 15.4615 31.8057 15.192 31.9268 14.9806L33.6505 11.9949C33.772 11.7835 34.0415 11.7109 34.2529 11.832C34.4643 11.9535 34.5369 12.223 34.4158 12.4344L32.692 15.4201ZM15.6775 21.3895L9.23879 23.1146C8.34801 23.3534 7.81641 24.275 8.05519 25.1654L8.76877 27.8289C9.00755 28.7197 9.92912 29.2512 10.8196 29.0125C10.8196 29.0125 16.7212 27.431 17.2579 27.2874L15.6775 21.3895ZM28.9205 18.8235L30.0097 22.8882L31.4181 21.8554C31.6329 21.6981 31.7243 21.4384 31.6552 21.1812L31.1992 19.479C31.1301 19.2217 30.9214 19.0425 30.6566 19.0137L28.9205 18.8235ZM23.7554 15.5495L27.1735 28.3064C24.9671 26.8929 20.5816 26.5902 18.1165 27.0739L16.5279 21.1446C18.905 20.3307 22.551 17.8773 23.7554 15.5495ZM24.9811 12.1245C25.6109 11.9559 26.2649 12.3328 26.4336 12.9626L30.8297 29.3689C30.9987 30.0001 30.6227 30.6521 29.9916 30.8214C29.3608 30.9904 28.7081 30.6138 28.5391 29.9833L24.142 13.5736C23.9757 12.9448 24.3524 12.2928 24.9811 12.1245ZM11.643 29.7086L14.8178 28.8579L17.7218 34.5559C17.8138 34.7362 17.717 34.9531 17.5217 35.0054L15.7353 35.484C15.6015 35.5199 15.4661 35.4686 15.3898 35.3533L11.643 29.7086ZM34.6908 24.6841C34.4794 24.5627 34.4069 24.2931 34.528 24.0817C34.6494 23.8703 34.919 23.7978 35.1304 23.9189L38.1161 25.6426C38.3275 25.7641 38.4 26.0336 38.2789 26.245C38.1575 26.4564 37.8879 26.529 37.6765 26.4079L34.6908 24.6841ZM35.6093 19.6397C35.3733 19.7027 35.1307 19.5624 35.0674 19.3264C35.0041 19.0904 35.1447 18.8478 35.3808 18.7845L38.711 17.8924C38.947 17.8294 39.1895 17.9697 39.2528 18.2057C39.3158 18.4418 39.1755 18.6843 38.9395 18.7476L35.6093 19.6397Z" fill="white"/>
</svg>
