<svg width="40" height="39" viewBox="0 0 40 39" fill="none" xmlns="http://www.w3.org/2000/svg">
<path fill-rule="evenodd" clip-rule="evenodd" d="M28.9582 0.419273C29.1429 0.0460016 29.5927 -0.105285 29.966 0.0774352C30.3393 0.262107 30.4925 0.711986 30.3079 1.08526L28.7912 4.15984C28.6065 4.53312 28.1567 4.68636 27.7834 4.50168C27.4101 4.31701 27.2588 3.86713 27.4415 3.49385L28.9582 0.419273ZM12.644 29.0845L8.18052 31.6384L15.544 38.3787C15.6501 38.4337 15.7483 38.4435 15.8387 38.4121C16.0233 38.3473 16.2335 38.1567 16.4712 37.8424C16.8858 37.2923 17.2512 36.7933 17.5675 36.3453C17.8818 35.8994 18.149 35.4967 18.371 35.1391C18.3985 35.0939 18.4221 35.0527 18.4378 35.0193C18.485 34.921 18.5066 34.8503 18.4987 34.813C18.4928 34.7914 18.4535 34.756 18.371 34.7049C18.3435 34.6892 18.3101 34.6696 18.2669 34.648L18.1687 34.5989C17.8563 34.4476 17.6206 34.3336 17.2787 34.1175C16.1059 33.3749 15.1118 32.5242 14.2847 31.5577C14.1629 31.4143 14.0431 31.2689 13.9291 31.1216C13.9095 31.1 13.8938 31.0783 13.8761 31.0528C13.4046 30.4398 12.9957 29.7839 12.644 29.0845ZM3.25127 29.8605L0.661969 25.3753C0.377103 25.7054 0.180647 26.0983 0.0784658 26.5128C-0.0826287 27.1768 -0.00011769 27.8998 0.36726 28.5363V28.5402C0.734637 29.1748 1.31811 29.609 1.97232 29.7995C2.38488 29.9194 2.82297 29.943 3.25127 29.8605ZM13.0861 27.0943L7.13341 30.5009C6.76603 30.7111 6.34758 30.7524 5.96645 30.6502C5.58925 30.5481 5.24937 30.3064 5.03915 29.9469L5.02539 29.9194C5.00968 29.8899 4.992 29.8605 4.97432 29.8349L1.45575 23.7409C1.26125 23.3833 1.22589 22.9767 1.32412 22.6054C1.42627 22.2242 1.67381 21.8804 2.03924 21.6683L2.07853 21.6427L7.97442 18.2401L13.0861 27.0943ZM27.4529 24.2359L17.6377 7.23221C16.2605 9.4777 14.8853 11.4384 13.514 13.112C12.0858 14.8546 10.6575 16.2887 9.23125 17.4125L14.4356 26.424C16.1252 25.7502 18.0799 25.2296 20.3038 24.8641C22.4315 24.5144 24.8164 24.3046 27.4529 24.2359ZM27.0148 17.3165L23.4137 11.0812L23.3921 11.0478L23.3725 11.0124L19.2704 3.90645C19.1643 3.72178 18.9895 3.59801 18.7911 3.54497C18.5946 3.49192 18.3805 3.51353 18.1958 3.61962L18.1938 3.62159C18.0092 3.72768 17.8854 3.90449 17.8324 4.10094C17.7813 4.28758 17.799 4.48993 17.8913 4.67067L18.2822 5.34651L18.2999 5.37598L29.3941 24.5895L29.4 24.5994L29.7595 25.2241C29.7772 25.2496 29.7929 25.2771 29.8067 25.3046C29.9147 25.4716 30.0798 25.5856 30.2644 25.6347C30.4491 25.6838 30.6495 25.6681 30.8283 25.5758L30.8951 25.5365C31.0621 25.4284 31.176 25.2634 31.2251 25.0787C31.2782 24.8823 31.2566 24.6681 31.1505 24.4834L27.0425 17.3679L27.0288 17.3444L27.0148 17.3165ZM28.3606 12.3776L28.3822 12.411C28.7613 13.0907 28.836 13.8628 28.6474 14.5641C28.5197 15.0435 28.2663 15.4894 27.9067 15.8509L25.1229 11.0299C25.616 10.8982 26.1288 10.9061 26.6101 11.0338C27.3213 11.2244 27.9637 11.688 28.3606 12.3776ZM38.5882 15.4286C39.0027 15.4561 39.319 15.8117 39.2935 16.2281C39.2679 16.6427 38.9104 16.957 38.4959 16.9314L35.0755 16.7075C34.661 16.6819 34.3447 16.3244 34.3722 15.9079C34.3978 15.4934 34.7553 15.179 35.1698 15.2046L38.5882 15.4286ZM35.9753 6.50954C36.3348 6.30326 36.7945 6.42703 37.0009 6.78655C37.2071 7.14606 37.0834 7.60578 36.7238 7.81208L33.7554 9.52517C33.3959 9.73145 32.9362 9.60768 32.7299 9.24816C32.5236 8.88865 32.6473 8.42894 33.0069 8.22263L35.9753 6.50954Z" fill="#1079D5"/>
</svg>
