<svg width="241" height="60" viewBox="0 0 241 60" fill="none" xmlns="http://www.w3.org/2000/svg">
<path d="M228.438 0.5C235.065 0.5 240.438 5.87258 240.438 12.5V46.5742C240.438 53.2016 235.065 58.5742 228.438 58.5742H32.7871C26.1597 58.5742 20.7871 53.2016 20.7871 46.5742V34.8086L1.59375 21.4531H20.7871V12.5C20.7871 5.87258 26.1597 0.5 32.7871 0.5H228.438Z" fill="white" fill-opacity="0.8"/>
<path d="M228.438 58.5742V59.0742V58.5742ZM20.7871 34.8086H21.2871V34.5474L21.0727 34.3982L20.7871 34.8086ZM1.59375 21.4531V20.9531H-0.000208378L1.30817 21.8635L1.59375 21.4531ZM20.7871 21.4531V21.9531H21.2871V21.4531H20.7871ZM32.7871 0.5V0V0.5ZM228.438 0.5V1C234.789 1 239.938 6.14873 239.938 12.5H240.438H240.938C240.938 5.59644 235.341 0 228.438 0V0.5ZM240.438 12.5H239.938V46.5742H240.438H240.938V12.5H240.438ZM240.438 46.5742H239.938C239.938 52.9255 234.789 58.0742 228.438 58.0742V58.5742V59.0742C235.341 59.0742 240.938 53.4778 240.938 46.5742H240.438ZM228.438 58.5742V58.0742H32.7871V58.5742V59.0742H228.438V58.5742ZM32.7871 58.5742V58.0742C26.4358 58.0742 21.2871 52.9255 21.2871 46.5742H20.7871H20.2871C20.2871 53.4778 25.8836 59.0742 32.7871 59.0742V58.5742ZM20.7871 46.5742H21.2871V34.8086H20.7871H20.2871V46.5742H20.7871ZM20.7871 34.8086L21.0727 34.3982L1.87933 21.0427L1.59375 21.4531L1.30817 21.8635L20.5015 35.219L20.7871 34.8086ZM1.59375 21.4531V21.9531H20.7871V21.4531V20.9531H1.59375V21.4531ZM20.7871 21.4531H21.2871V12.5H20.7871H20.2871V21.4531H20.7871ZM20.7871 12.5H21.2871C21.2871 6.14873 26.4358 1 32.7871 1V0.5V0C25.8836 0 20.2871 5.59644 20.2871 12.5H20.7871ZM32.7871 0.5V1H228.438V0.5V0H32.7871V0.5Z" fill="white"/>
</svg>
