<svg width="578" height="467" viewBox="0 0 578 467" fill="none" xmlns="http://www.w3.org/2000/svg">
<path d="M192.852 466.041L191.945 464.749C197.954 460.547 204.276 456.811 210.855 453.573L211.552 454.99C205.046 458.192 198.794 461.887 192.852 466.041ZM383.037 453.283C382.257 453.276 381.477 453.264 380.695 453.248C374.608 453.108 368.215 452.651 361.144 451.854L361.333 450.283C368.355 451.077 374.699 451.53 380.74 451.667C381.513 451.685 382.286 451.697 383.059 451.703L383.037 453.283ZM404.955 452.049L404.767 450.482C411.972 449.608 419.117 448.293 426.161 446.545L426.537 448.078C419.432 449.843 412.224 451.17 404.955 452.049ZM339.459 448.731C335.867 448.136 332.275 447.526 328.683 446.9C325.087 446.282 321.494 445.663 317.9 445.066L318.158 443.509C321.755 444.105 325.353 444.724 328.952 445.343C332.552 445.962 336.127 446.577 339.719 447.173L339.459 448.731ZM231.72 446.915L231.247 445.411C238.244 443.214 245.403 441.569 252.658 440.491L252.889 442.053C245.716 443.119 238.638 444.745 231.72 446.915ZM296.292 441.974C288.385 441.084 281.274 440.63 274.563 440.587L274.573 439.009C281.34 439.052 288.504 439.507 296.467 440.403L296.292 441.974ZM447.494 441.547L446.929 440.068C453.723 437.504 460.366 434.559 466.828 431.247L467.551 432.654C461.038 435.991 454.343 438.96 447.498 441.547H447.494ZM486.503 421.593L485.631 420.276C491.691 416.274 497.531 411.95 503.126 407.32L504.135 408.536C498.498 413.201 492.613 417.56 486.506 421.593H486.503ZM520.246 393.637L519.116 392.538C524.17 387.326 528.932 381.838 533.38 376.1L534.63 377.067C530.145 382.851 525.343 388.383 520.246 393.637ZM547.042 358.987L545.689 358.169C549.451 351.961 552.876 345.556 555.951 338.981L557.383 339.651C554.284 346.278 550.832 352.734 547.042 358.993V358.987ZM565.634 319.336L564.14 318.818C566.499 312.046 568.552 305.009 570.251 297.937L571.789 298.304C570.079 305.432 568.008 312.511 565.634 319.341V319.336ZM575.866 276.755L574.302 276.537C575.305 269.4 575.985 262.104 576.322 254.858L577.899 254.931C577.561 262.232 576.877 269.576 575.866 276.761V276.755ZM576.331 233.087C576.009 225.873 575.349 218.578 574.368 211.401L575.932 211.188C576.921 218.41 577.587 225.754 577.913 233.01L576.331 233.087ZM570.435 189.986C569.262 184.906 567.907 179.827 566.404 174.878C565.811 172.916 565.193 170.964 564.55 169.02L566.056 168.527C566.701 170.483 567.323 172.449 567.922 174.423C569.428 179.406 570.798 184.521 571.981 189.63L570.435 189.986ZM556.818 148.667C553.979 142.07 550.794 135.465 547.37 129.039L548.767 128.287C552.216 134.752 555.414 141.395 558.27 148.039L556.818 148.667ZM152.682 112.678V111.098C159.909 111.098 167.234 110.767 174.452 110.118L174.593 111.693C167.328 112.351 159.958 112.682 152.682 112.684V112.678ZM130.773 111.693C123.487 111.032 116.175 110.024 109.042 108.698L109.334 107.146C116.416 108.463 123.679 109.463 130.916 110.118L130.773 111.693ZM536.34 110.252C532.454 104.202 528.245 98.1933 523.853 92.3898L525.112 91.438C529.538 97.2696 533.763 103.314 537.671 109.396L536.34 110.252ZM196.329 108.771L196.047 107.215C203.184 105.936 210.336 104.324 217.305 102.422L217.723 103.946C210.706 105.865 203.507 107.486 196.329 108.777V108.771ZM87.6938 103.656C80.6455 101.628 73.663 99.2355 66.9423 96.5472L67.5296 95.0818C74.2014 97.7493 81.1349 100.123 88.1324 102.138L87.6938 103.656ZM238.614 97.2508L238.064 95.7703C244.89 93.2364 251.639 90.377 258.125 87.2693L258.806 88.6952C252.272 91.8217 245.477 94.7018 238.614 97.2508ZM47.0153 87.3803C39.997 83.68 33.89 79.895 28.3458 75.8129L29.2871 74.5412C34.7654 78.5744 40.8065 82.318 47.7551 85.9825L47.0153 87.3803ZM278.116 78.3205L277.3 76.966C283.539 73.2225 289.633 69.1554 295.413 64.8738L296.354 66.1417C290.533 70.4496 284.398 74.5431 278.116 78.3111V78.3205ZM510.033 75.5552C505.249 70.1505 500.189 64.8324 494.991 59.7758L496.096 58.6471C501.318 63.7394 506.409 69.0764 511.217 74.5111L510.033 75.5552ZM12.0748 61.0287C11.7472 60.6524 11.4247 60.2762 11.1072 59.8999C6.65053 54.6582 2.91507 48.8446 0 42.6138L1.43265 41.9459C4.28616 48.0484 7.94306 53.7424 12.3063 58.8766C12.6169 59.2528 12.9332 59.6121 13.2476 59.9733L12.0748 61.0287ZM313.303 52.2247L312.237 51.0546C314.684 48.8254 317.109 46.5191 319.425 44.2015C322.126 41.502 324.766 38.7461 327.687 35.676L328.832 36.7652C325.903 39.8409 323.256 42.6062 320.549 45.3189C318.209 47.644 315.773 49.9673 313.303 52.2153V52.2247ZM478.829 45.1289C473.302 40.4711 467.534 35.9506 461.66 31.6898L462.59 30.4124C468.485 34.694 474.292 39.2389 479.848 43.9231L478.829 45.1289ZM344.243 21.3395L343.181 20.1694C349.393 14.5484 355.199 10.3064 360.949 7.20428L361.702 8.59448C356.071 11.6345 350.361 15.805 344.25 21.3395H344.243ZM443.554 19.5636C436.953 15.5718 430.462 12.1988 424.257 9.53884L424.882 8.08656C431.153 10.7748 437.71 14.1816 444.371 18.2111L443.554 19.5636ZM403.611 2.99232C396.109 1.52312 388.884 1.19955 382.11 2.02915L381.922 0.462127C388.854 -0.39193 396.252 -0.0608418 403.92 1.4441L403.611 2.99232Z" fill="white"/>
</svg>
