<svg width="58" height="58" viewBox="0 0 58 58" fill="none" xmlns="http://www.w3.org/2000/svg">
<circle cx="28.6963" cy="28.6963" r="23.6338" fill="#00A0D7"/>
<circle cx="28.6963" cy="28.6963" r="28.1963" stroke="#5BC4F1"/>
<path d="M42.4336 28.6914C42.7468 28.7199 42.9647 28.9953 42.9316 29.3037L41.9355 38.2002C41.9021 38.5037 41.6219 38.7265 41.3184 38.6982L38.9307 38.4326C38.6554 38.4041 38.4182 38.5937 38.3896 38.8643L38.1611 40.915L35.0283 38.0908C34.9524 38.0244 34.8574 37.9763 34.7529 37.9668L27.6426 37.165C27.4955 37.1508 27.3578 37.0795 27.2676 36.9609C27.1774 36.8423 27.1343 36.6996 27.1533 36.543L27.7852 30.9365L34.1074 29.6738C34.5725 29.5837 34.9762 29.3138 35.2373 28.9199C35.4367 28.6209 35.536 28.2691 35.5312 27.9131L42.4336 28.6914ZM31.4795 16.4971C31.9113 16.4071 32.3198 16.6825 32.4053 17.1143L34.4512 27.3535L34.4795 27.5146C34.4795 27.5194 34.4796 27.5244 34.4844 27.5244L34.5361 27.7852C34.5788 27.994 34.5358 28.2031 34.4219 28.374C34.308 28.5544 34.1278 28.6682 33.9189 28.7109L27.292 30.0361L27.2207 30.0498L25.4121 30.4111C25.3079 30.4302 25.2176 30.4818 25.1465 30.5576L21.501 34.4551L20.9697 31.7969C20.9413 31.6688 20.8746 31.5595 20.7607 31.4883C20.6801 31.4314 20.5851 31.4073 20.4902 31.4072C20.4572 31.4072 20.4239 31.4074 20.3955 31.4121L17.5283 31.9863C17.3243 32.0243 17.1103 31.9867 16.9395 31.8682C16.7592 31.7496 16.6452 31.5739 16.5977 31.3652L14.4707 20.6982C14.4281 20.4895 14.4713 20.2763 14.5898 20.1055C14.7037 19.9299 14.8838 19.8113 15.0879 19.7686L31.4795 16.4971ZM32.0391 25.3125L17.96 28.123C17.6989 28.18 17.523 28.4363 17.5752 28.7021C17.6228 28.9346 17.8318 29.0957 18.0596 29.0957C18.088 29.0957 18.1212 29.0907 18.1543 29.0859L32.2285 26.2764C32.499 26.2242 32.6701 25.963 32.6133 25.6973C32.5611 25.4362 32.3049 25.2555 32.0391 25.3125ZM31.4453 22.3555L17.3711 25.165C17.1054 25.2219 16.9296 25.4784 16.9863 25.7441C17.029 25.9766 17.2332 26.1385 17.4609 26.1387C17.4988 26.1387 17.5274 26.1336 17.5605 26.1289L31.6406 23.3184C31.9015 23.266 32.0766 23.0097 32.0244 22.7393C31.972 22.4784 31.711 22.3033 31.4453 22.3555ZM30.8525 19.4023L16.7734 22.2129C16.5124 22.2651 16.3365 22.5213 16.3887 22.7871C16.4409 23.0197 16.6452 23.1807 16.873 23.1807C16.9062 23.1807 16.9396 23.1812 16.9727 23.167L31.0469 20.3613C31.3079 20.3091 31.4838 20.0529 31.4316 19.7871C31.3747 19.5213 31.1183 19.3454 30.8525 19.4023Z" fill="white"/>
</svg>
