<svg width="117" height="23" viewBox="0 0 117 23" fill="none" xmlns="http://www.w3.org/2000/svg">
<path d="M7.40601 21.9777H3.00087V11.1442H0V7.61705H3.00075V5.10721C3.00075 2.13305 4.32799 0 8.72121 0C9.65038 0 11.1091 0.18476 11.1091 0.18476V3.45993H9.57696C8.01579 3.45993 7.40624 3.92841 7.40624 5.22358V7.61705H11.0507L10.7261 11.1442H7.40613L7.40601 21.9777ZM17.5137 7.33518C17.4495 7.33518 17.3835 7.33748 17.3181 7.3391C13.2334 7.3391 11.3646 10.3702 11.3646 14.673C11.3646 20.0933 13.7887 22.2627 17.3501 22.2627C19.3876 22.2627 20.7263 21.4166 21.54 19.8378V21.9792H25.7299V7.61855H21.54V9.82702C20.8756 8.40614 19.4995 7.35201 17.5137 7.33518ZM18.5791 10.7286C20.2947 10.7286 21.3244 11.9091 21.3244 13.9171L21.3284 15.9681C21.3284 17.3215 20.4779 18.9049 18.5791 18.9049C15.6599 18.9049 15.7379 15.7953 15.7379 14.7596C15.7379 11.2758 17.2932 10.7286 18.5791 10.7286ZM27.422 14.7996C27.422 13.0546 27.3374 7.34452 34.8783 7.34452C37.9053 7.34452 39.1693 8.29404 39.1693 8.29404L38.1534 11.4026C38.1534 11.4026 36.8911 10.7168 35.2462 10.7168C33.1394 10.7168 31.7951 11.9217 31.7951 14.0416L31.7974 15.5616C31.7974 17.5986 33.0945 18.9584 35.2505 18.9584C36.749 18.9584 38.1301 18.2661 38.1301 18.2661L39.1435 21.3097C39.1435 21.3097 37.9878 22.2653 34.8994 22.2653C27.7193 22.2653 27.4221 17.1422 27.4221 14.7996H27.422ZM63.7364 7.3391C67.8212 7.3391 69.7195 10.3702 69.7195 14.673C69.7195 20.0933 67.2952 22.2627 63.7339 22.2627C61.6963 22.2627 60.1901 21.4168 59.3764 19.8378V21.9792L55.2393 21.9776V0.436644L59.6319 0.0587035V9.63246C60.2659 7.9575 62.3493 7.3391 63.7364 7.3391ZM62.5049 10.7286C60.7893 10.7286 59.6319 11.9091 59.6319 13.9171L59.6278 15.9681C59.6252 17.3215 60.4293 18.9049 62.5049 18.9049C65.424 18.9049 65.346 15.7953 65.346 14.7596C65.346 11.2758 63.7908 10.7286 62.5049 10.7286ZM46.7909 7.35098C42.1579 7.35098 39.712 9.84294 39.712 14.2714V15.0942C39.712 20.842 43.1468 22.3218 47.2418 22.3218C51.2221 22.3218 53.0238 21.2235 53.0238 21.2235L52.2018 18.2987C52.2018 18.2987 50.0825 19.1882 47.7685 19.1882C45.3696 19.1882 44.3379 18.585 44.0734 16.3107H53.375V13.9643C53.375 9.16052 50.6299 7.35086 46.7908 7.35086L46.7909 7.35098ZM46.9026 10.2797C48.5063 10.2797 49.5455 11.2499 49.4884 13.4999H44.0815C44.1752 11.1318 45.2959 10.2797 46.9026 10.2797ZM78.4782 7.33126C73.7205 7.33126 71.2158 9.97626 71.2158 14.7163C71.2158 21.2198 75.5334 22.2666 78.4862 22.2666C82.8089 22.2666 85.6848 19.9707 85.6848 14.7753C85.6848 9.36777 82.4512 7.33126 78.4782 7.33126ZM78.4184 10.7403C80.5104 10.7403 81.3394 12.285 81.3394 14.0432V15.5548C81.3394 17.6848 80.1794 18.9167 78.4104 18.9167C76.756 18.9167 75.5932 17.7643 75.5932 15.5548V14.0432C75.5932 11.6867 76.9768 10.7403 78.4184 10.7403ZM94.4357 7.33126C89.678 7.33126 87.1732 9.97626 87.1732 14.7163C87.1732 21.2198 91.4908 22.2666 94.4436 22.2666C98.7663 22.2666 101.642 19.9707 101.642 14.7753C101.642 9.36777 98.4085 7.33126 94.4357 7.33126ZM94.3758 10.7403C96.4679 10.7403 97.2967 12.285 97.2967 14.0432V15.5548C97.2967 17.6848 96.1368 18.9167 94.3679 18.9167C92.7134 18.9167 91.5507 17.7643 91.5507 15.5548V14.0432C91.5507 11.6867 92.9343 10.7403 94.3758 10.7403ZM103.302 21.9777V0.436644L107.708 0.0587035V14.4969L112.078 7.61705H116.731L112.171 14.7426L116.906 21.9777H112.241L107.708 14.9525V21.9777H103.302Z" fill="#1877F2"/>
</svg>
