<svg width="88" height="116" viewBox="0 0 88 116" fill="none" xmlns="http://www.w3.org/2000/svg">
<path d="M42.5308 28.4156L41.6909 28.9583L41.6986 28.9702L41.7066 28.9819L42.5308 28.4156ZM86.87 108.527C87.2276 108.106 87.1763 107.475 86.7554 107.118L79.8964 101.291C79.4755 100.933 78.8444 100.984 78.4869 101.405C78.1293 101.826 78.1806 102.457 78.6015 102.815L84.6984 107.994L79.5187 114.091C79.1612 114.512 79.2125 115.143 79.6334 115.501C80.0543 115.858 80.6854 115.807 81.043 115.386L86.87 108.527ZM7.9255 0.539062L7.08323 7.80821e-06C3.60907 5.42838 -0.150014 14.0838 0.00461549 22.3783C0.0823478 26.5479 1.151 30.6641 3.78173 34.2138C6.4144 37.766 10.5485 40.6658 16.6061 42.5094L16.8973 41.5528L17.1885 40.5961C11.4546 38.851 7.71706 36.1648 5.38855 33.0229C3.05811 29.8785 2.07607 26.1925 2.00427 22.341C1.85983 14.5931 5.40632 6.33038 8.76777 1.07812L7.9255 0.539062ZM16.8973 41.5528L16.6061 42.5094C28.5314 46.1389 36.6985 44.9234 41.2146 41.4479C45.8025 37.9172 46.368 32.2349 43.355 27.8494L42.5308 28.4156L41.7066 28.9819C44.1526 32.5421 43.6928 37.0171 39.9949 39.8629C36.2253 42.7639 28.8461 44.1441 17.1885 40.5961L16.8973 41.5528ZM42.5308 28.4156L43.3708 27.873C41.4012 24.8242 38.6271 22.015 35.5659 20.2704C32.5085 18.5279 29.0354 17.7839 25.8058 19.1465C22.5813 20.507 19.8925 23.8449 18.1222 29.6055C16.3496 35.3732 15.4473 43.7155 15.898 55.3695L16.8973 55.3309L17.8965 55.2922C17.4501 43.7478 18.3545 35.6577 20.0339 30.193C21.7155 24.7212 24.1239 22.0269 26.5832 20.9892C29.0373 19.9538 31.8347 20.4459 34.5756 22.008C37.3126 23.5679 39.8648 26.1316 41.6909 28.9583L42.5308 28.4156ZM16.8973 55.3309L15.898 55.3695C16.8105 78.9644 28.7706 92.857 43.3366 100.569C57.8387 108.247 74.8966 109.795 86.189 108.876L86.1079 107.88L86.0269 106.883C74.9967 107.78 58.3464 106.252 44.2724 98.8012C30.2623 91.3838 18.7784 78.0942 17.8965 55.2922L16.8973 55.3309Z" fill="#2196F3"/>
</svg>
