<svg width="192" height="100" viewBox="0 0 192 100" fill="none" xmlns="http://www.w3.org/2000/svg">
<path d="M190.817 28.8726C190.721 28.8728 190.626 28.854 190.537 28.8174C190.448 28.7808 190.367 28.727 190.299 28.6591C190.231 28.5912 190.177 28.5106 190.14 28.4218C190.103 28.333 190.084 28.2378 190.084 28.1417V15.1043C190.08 11.4882 188.642 8.02145 186.085 5.4645C183.528 2.90755 180.061 1.46922 176.445 1.46506H161.121C160.927 1.46506 160.741 1.38787 160.603 1.25049C160.466 1.11312 160.389 0.926813 160.389 0.732532C160.389 0.53825 160.466 0.351904 160.603 0.214526C160.741 0.0771483 160.927 0 161.121 0H176.445C180.45 0.00507763 184.289 1.59827 187.121 4.43015C189.952 7.26203 191.545 11.1014 191.55 15.106V28.1417C191.55 28.2378 191.531 28.333 191.494 28.4218C191.457 28.5106 191.403 28.5912 191.335 28.6591C191.267 28.727 191.186 28.7808 191.097 28.8174C191.008 28.854 190.913 28.8728 190.817 28.8726Z" fill="#8DC7EF"/>
<path d="M176.445 99.149H161.121C160.927 99.149 160.741 99.0718 160.603 98.9344C160.466 98.797 160.389 98.6107 160.389 98.4164C160.389 98.2222 160.466 98.0358 160.603 97.8984C160.741 97.7611 160.927 97.6839 161.121 97.6839H176.445C180.061 97.6802 183.529 96.242 186.086 93.685C188.643 91.1279 190.081 87.6609 190.084 84.0447V71.0177C190.084 70.8234 190.162 70.6371 190.299 70.4997C190.436 70.3623 190.623 70.2852 190.817 70.2852C191.011 70.2852 191.198 70.3623 191.335 70.4997C191.472 70.6371 191.55 70.8234 191.55 71.0177V84.0534C191.543 88.0564 189.949 91.8933 187.117 94.723C184.286 97.5527 180.448 99.1444 176.445 99.149Z" fill="#8DC7EF"/>
<path d="M30.4342 99.149H15.1119C11.1071 99.1448 7.26748 97.5522 4.4355 94.7205C1.60352 91.8889 0.0104764 88.0495 0.00585938 84.0447V71.0177C0.00585938 70.8234 0.0830077 70.6371 0.220386 70.4997C0.357763 70.3623 0.544109 70.2852 0.738391 70.2852C0.932673 70.2852 1.11898 70.3623 1.25635 70.4997C1.39373 70.6371 1.47092 70.8234 1.47092 71.0177V84.0534C1.47462 87.6699 2.91302 91.1372 5.47044 93.6943C8.02787 96.2514 11.4954 97.6894 15.1119 97.6926H30.4342C30.6285 97.6926 30.8148 97.7698 30.9521 97.9072C31.0895 98.0445 31.1667 98.2309 31.1667 98.4251C31.1667 98.6194 31.0895 98.8058 30.9521 98.9431C30.8148 99.0805 30.6285 99.1577 30.4342 99.1577V99.149Z" fill="#8DC7EF"/>
<path d="M0.732532 28.8726C0.636415 28.8728 0.54121 28.854 0.452345 28.8174C0.363479 28.7808 0.282699 28.727 0.214654 28.6591C0.146608 28.5912 0.0926169 28.5106 0.0557819 28.4218C0.018947 28.333 -2.73738e-07 28.2378 0 28.1417V15.1043C0.00461698 11.0995 1.59766 7.26006 4.42964 4.4284C7.26162 1.59675 11.1012 0.00415456 15.106 0H30.4283C30.6226 0 30.8089 0.0771483 30.9463 0.214526C31.0837 0.351904 31.1608 0.53825 31.1608 0.732532C31.1608 0.926813 31.0837 1.11312 30.9463 1.25049C30.8089 1.38787 30.6226 1.46506 30.4283 1.46506H15.106C11.4896 1.46876 8.02242 2.90686 5.4651 5.46386C2.90777 8.02086 1.46922 11.4879 1.46506 15.1043V28.14C1.46529 28.2362 1.44652 28.3316 1.40979 28.4206C1.37306 28.5096 1.31912 28.5904 1.25105 28.6585C1.18298 28.7266 1.10212 28.7805 1.01314 28.8172C0.924165 28.854 0.828795 28.8728 0.732532 28.8726Z" fill="#8DC7EF"/>
<path d="M182.411 15.1091V84.0481C182.411 85.631 181.782 87.1491 180.663 88.2684C179.543 89.3877 178.025 90.0165 176.442 90.0165H15.1091C13.5261 90.0165 12.0081 89.3877 10.8888 88.2684C9.76947 87.1491 9.14063 85.631 9.14062 84.0481V15.1091C9.14063 13.5261 9.76947 12.0081 10.8888 10.8888C12.0081 9.76947 13.5261 9.14063 15.1091 9.14062H176.442C178.025 9.14063 179.543 9.76947 180.663 10.8888C181.782 12.0081 182.411 13.5261 182.411 15.1091Z" fill="#CDE8F9"/>
<path d="M147.637 64.4314V65.0349C147.637 65.2813 147.589 65.5253 147.494 65.753C147.4 65.9807 147.262 66.1876 147.088 66.3619C146.913 66.5362 146.706 66.6744 146.479 66.7687C146.251 66.863 146.007 66.9116 145.76 66.9116H98.1872C97.9408 66.9116 97.6967 66.863 97.469 66.7687C97.2413 66.6744 97.0345 66.5362 96.8602 66.3619C96.6859 66.1876 96.5477 65.9807 96.4534 65.753C96.3591 65.5253 96.3105 65.2813 96.3105 65.0349V64.4314C96.3105 64.1849 96.3591 63.9409 96.4534 63.7132C96.5477 63.4855 96.6859 63.2786 96.8602 63.1044C97.0345 62.9301 97.2413 62.7919 97.469 62.6975C97.6967 62.6032 97.9408 62.5547 98.1872 62.5547H145.76C146.007 62.5547 146.251 62.6032 146.479 62.6975C146.706 62.7919 146.913 62.9301 147.088 63.1044C147.262 63.2786 147.4 63.4855 147.494 63.7132C147.589 63.9409 147.637 64.1849 147.637 64.4314Z" fill="white"/>
<path d="M165.727 54.2031V54.8083C165.727 55.306 165.53 55.7834 165.178 56.1353C164.826 56.4873 164.349 56.685 163.851 56.685H98.1872C97.6895 56.685 97.2121 56.4873 96.8602 56.1353C96.5082 55.7834 96.3105 55.306 96.3105 54.8083V54.2031C96.3105 53.9567 96.3591 53.7128 96.4535 53.4852C96.5478 53.2576 96.6861 53.0508 96.8604 52.8767C97.0347 52.7025 97.2415 52.5645 97.4692 52.4704C97.6969 52.3762 97.9408 52.3279 98.1872 52.3281H163.846C164.092 52.3272 164.337 52.375 164.565 52.4688C164.793 52.5626 165.001 52.7006 165.176 52.8748C165.351 53.049 165.489 53.256 165.584 53.4839C165.679 53.7119 165.727 53.9563 165.727 54.2031Z" fill="white"/>
<path d="M165.727 44.1601V44.7653C165.727 45.2631 165.53 45.7404 165.178 46.0923C164.826 46.4443 164.349 46.642 163.851 46.642H98.1872C97.6895 46.642 97.2121 46.4443 96.8602 46.0923C96.5082 45.7404 96.3105 45.2631 96.3105 44.7653V44.1601C96.3105 43.9138 96.3591 43.6698 96.4535 43.4422C96.5478 43.2146 96.6861 43.0078 96.8604 42.8337C97.0347 42.6596 97.2415 42.5215 97.4692 42.4274C97.6969 42.3333 97.9408 42.2849 98.1872 42.2852H163.846C164.092 42.2843 164.337 42.3321 164.565 42.4259C164.793 42.5197 165.001 42.6577 165.176 42.8319C165.351 43.0061 165.489 43.2131 165.584 43.441C165.679 43.6689 165.727 43.9133 165.727 44.1601Z" fill="white"/>
<path d="M165.727 34.1172V34.7224C165.727 35.2201 165.53 35.6975 165.178 36.0494C164.826 36.4014 164.349 36.5991 163.851 36.5991H98.1872C97.6895 36.5991 97.2121 36.4014 96.8602 36.0494C96.5082 35.6975 96.3105 35.2201 96.3105 34.7224V34.1172C96.3105 33.8708 96.3591 33.6268 96.4535 33.3992C96.5478 33.1716 96.6861 32.9649 96.8604 32.7907C97.0347 32.6166 97.2415 32.4785 97.4692 32.3844C97.6969 32.2903 97.9408 32.242 98.1872 32.2422H163.846C164.092 32.2413 164.337 32.2891 164.565 32.3829C164.793 32.4767 165.001 32.6147 165.176 32.7889C165.351 32.9631 165.489 33.1701 165.584 33.398C165.679 33.626 165.727 33.8703 165.727 34.1172Z" fill="white"/>
<path d="M77.4341 49.4098V49.5842C77.4341 49.8493 77.4341 50.0847 77.4201 50.3359C77.2536 57.0588 74.4585 63.4487 69.6346 68.1344C64.8106 72.8201 58.3422 75.4282 51.6173 75.3992V75.38C37.3798 75.38 25.8301 63.8164 25.8301 49.5789C25.8301 49.1743 25.8441 48.7575 25.858 48.358C26.1754 41.7364 29.0266 35.4902 33.8215 30.9125C38.6165 26.3347 44.988 23.7759 51.6173 23.7656H51.633C51.7568 23.7656 51.8963 23.7656 52.0358 23.7795H52.0777C66.0378 24.0255 77.3503 35.4078 77.4341 49.4098Z" fill="#9ACCF0"/>
<path d="M52.0372 23.7766V46.2307C52.0358 46.792 51.812 47.3298 51.4148 47.7264C51.0176 48.1229 50.4794 48.3459 49.9181 48.3463H25.8594C26.1768 41.7247 29.028 35.4785 33.8229 30.9008C38.6178 26.3231 44.9894 23.7642 51.6186 23.7539H51.6343C51.7582 23.7626 51.8977 23.7626 52.0372 23.7766Z" fill="white"/>
</svg>
