<svg width="229" height="56" viewBox="0 0 229 56" fill="none" xmlns="http://www.w3.org/2000/svg">
<rect x="0.5" y="0.5" width="227.859" height="54.6562" rx="11.5" fill="white" fill-opacity="0.8" stroke="white"/>
<path d="M52.6124 33.0564C51.7857 33.0564 51.0391 32.9151 50.3724 32.6324C49.7111 32.3444 49.1644 31.9364 48.7324 31.4084C48.3057 30.8751 48.0284 30.2431 47.9004 29.5124L49.6444 29.2484C49.8204 29.9524 50.1884 30.5017 50.7484 30.8964C51.3084 31.2857 51.9617 31.4804 52.7084 31.4804C53.1724 31.4804 53.5991 31.4084 53.9884 31.2644C54.3777 31.1151 54.6897 30.9044 54.9244 30.6324C55.1644 30.3551 55.2844 30.0244 55.2844 29.6404C55.2844 29.4324 55.2471 29.2484 55.1724 29.0884C55.1031 28.9284 55.0044 28.7897 54.8764 28.6724C54.7537 28.5497 54.6017 28.4457 54.4204 28.3604C54.2444 28.2697 54.0497 28.1924 53.8364 28.1284L50.8844 27.2564C50.5964 27.1711 50.3031 27.0617 50.0044 26.9284C49.7057 26.7897 49.4311 26.6111 49.1804 26.3924C48.9351 26.1684 48.7351 25.8937 48.5804 25.5684C48.4257 25.2377 48.3484 24.8377 48.3484 24.3684C48.3484 23.6591 48.5297 23.0591 48.8924 22.5684C49.2604 22.0724 49.7564 21.6991 50.3804 21.4484C51.0044 21.1924 51.7031 21.0644 52.4764 21.0644C53.2551 21.0751 53.9511 21.2137 54.5644 21.4804C55.1831 21.7471 55.6951 22.1311 56.1004 22.6324C56.5111 23.1284 56.7937 23.7311 56.9484 24.4404L55.1564 24.7444C55.0764 24.3124 54.9057 23.9417 54.6444 23.6324C54.3831 23.3177 54.0631 23.0777 53.6844 22.9124C53.3057 22.7417 52.8951 22.6537 52.4524 22.6484C52.0257 22.6377 51.6337 22.7017 51.2764 22.8404C50.9244 22.9791 50.6417 23.1737 50.4284 23.4244C50.2204 23.6751 50.1164 23.9631 50.1164 24.2884C50.1164 24.6084 50.2097 24.8671 50.3964 25.0644C50.5831 25.2617 50.8124 25.4191 51.0844 25.5364C51.3617 25.6484 51.6364 25.7417 51.9084 25.8164L54.0364 26.4164C54.3031 26.4911 54.6044 26.5924 54.9404 26.7204C55.2817 26.8431 55.6097 27.0164 55.9244 27.2404C56.2444 27.4644 56.5084 27.7631 56.7164 28.1364C56.9244 28.5044 57.0284 28.9684 57.0284 29.5284C57.0284 30.1097 56.9111 30.6217 56.6764 31.0644C56.4417 31.5017 56.1191 31.8697 55.7084 32.1684C55.3031 32.4617 54.8337 32.6831 54.3004 32.8324C53.7671 32.9817 53.2044 33.0564 52.6124 33.0564ZM62.5653 33.0564C61.7066 33.0564 60.9519 32.8697 60.3013 32.4964C59.6559 32.1177 59.1519 31.5924 58.7893 30.9204C58.4319 30.2431 58.2533 29.4591 58.2533 28.5684C58.2533 27.6244 58.4293 26.8057 58.7813 26.1124C59.1386 25.4191 59.6346 24.8831 60.2693 24.5044C60.9039 24.1257 61.6426 23.9364 62.4853 23.9364C63.3653 23.9364 64.1146 24.1417 64.7333 24.5524C65.3519 24.9577 65.8133 25.5364 66.1173 26.2884C66.4266 27.0404 66.5493 27.9337 66.4853 28.9684H64.8133V28.3604C64.8026 27.3577 64.6106 26.6164 64.2373 26.1364C63.8693 25.6564 63.3066 25.4164 62.5493 25.4164C61.7119 25.4164 61.0826 25.6804 60.6613 26.2084C60.2399 26.7364 60.0293 27.4991 60.0293 28.4964C60.0293 29.4457 60.2399 30.1817 60.6613 30.7044C61.0826 31.2217 61.6906 31.4804 62.4853 31.4804C63.0079 31.4804 63.4586 31.3631 63.8373 31.1284C64.2213 30.8884 64.5199 30.5471 64.7333 30.1044L66.3733 30.6244C66.0373 31.3977 65.5279 31.9977 64.8453 32.4244C64.1626 32.8457 63.4026 33.0564 62.5653 33.0564ZM59.4853 28.9684V27.6644H65.6533V28.9684H59.4853ZM68.4402 32.8164V21.0564H70.1122V32.8164H68.4402ZM76.3465 33.0564C75.4879 33.0564 74.7332 32.8697 74.0825 32.4964C73.4372 32.1177 72.9332 31.5924 72.5705 30.9204C72.2132 30.2431 72.0345 29.4591 72.0345 28.5684C72.0345 27.6244 72.2105 26.8057 72.5625 26.1124C72.9199 25.4191 73.4159 24.8831 74.0505 24.5044C74.6852 24.1257 75.4239 23.9364 76.2665 23.9364C77.1465 23.9364 77.8959 24.1417 78.5145 24.5524C79.1332 24.9577 79.5945 25.5364 79.8985 26.2884C80.2079 27.0404 80.3305 27.9337 80.2665 28.9684H78.5945V28.3604C78.5839 27.3577 78.3919 26.6164 78.0185 26.1364C77.6505 25.6564 77.0879 25.4164 76.3305 25.4164C75.4932 25.4164 74.8639 25.6804 74.4425 26.2084C74.0212 26.7364 73.8105 27.4991 73.8105 28.4964C73.8105 29.4457 74.0212 30.1817 74.4425 30.7044C74.8639 31.2217 75.4719 31.4804 76.2665 31.4804C76.7892 31.4804 77.2399 31.3631 77.6185 31.1284C78.0025 30.8884 78.3012 30.5471 78.5145 30.1044L80.1545 30.6244C79.8185 31.3977 79.3092 31.9977 78.6265 32.4244C77.9439 32.8457 77.1839 33.0564 76.3465 33.0564ZM73.2665 28.9684V27.6644H79.4345V28.9684H73.2665ZM85.7574 33.0564C84.8721 33.0564 84.1201 32.8591 83.5014 32.4644C82.8827 32.0697 82.4081 31.5284 82.0774 30.8404C81.7521 30.1524 81.5867 29.3711 81.5814 28.4964C81.5867 27.6057 81.7574 26.8191 82.0934 26.1364C82.4294 25.4484 82.9094 24.9097 83.5334 24.5204C84.1574 24.1311 84.9067 23.9364 85.7814 23.9364C86.7254 23.9364 87.5307 24.1711 88.1974 24.6404C88.8694 25.1097 89.3121 25.7524 89.5254 26.5684L87.8614 27.0484C87.6961 26.5631 87.4241 26.1871 87.0454 25.9204C86.6721 25.6484 86.2427 25.5124 85.7574 25.5124C85.2081 25.5124 84.7574 25.6431 84.4054 25.9044C84.0534 26.1604 83.7921 26.5124 83.6214 26.9604C83.4507 27.4084 83.3627 27.9204 83.3574 28.4964C83.3627 29.3871 83.5654 30.1071 83.9654 30.6564C84.3707 31.2057 84.9681 31.4804 85.7574 31.4804C86.2961 31.4804 86.7307 31.3577 87.0614 31.1124C87.3974 30.8617 87.6534 30.5044 87.8294 30.0404L89.5254 30.4404C89.2427 31.2831 88.7761 31.9311 88.1254 32.3844C87.4747 32.8324 86.6854 33.0564 85.7574 33.0564ZM96.0992 32.8164C95.5552 32.9231 95.0218 32.9684 94.4992 32.9524C93.9765 32.9364 93.5098 32.8351 93.0992 32.6484C92.6885 32.4617 92.3792 32.1684 92.1712 31.7684C91.9845 31.4111 91.8832 31.0484 91.8672 30.6804C91.8565 30.3071 91.8512 29.8857 91.8512 29.4164V21.7764H93.5312V29.3364C93.5312 29.6831 93.5338 29.9844 93.5392 30.2404C93.5498 30.4964 93.6058 30.7124 93.7072 30.8884C93.8992 31.2191 94.2032 31.4084 94.6192 31.4564C95.0405 31.4991 95.5338 31.4804 96.0992 31.4004V32.8164ZM90.1952 25.5204V24.1764H96.0992V25.5204H90.1952ZM103.996 32.8164V22.8724H100.164V21.2964H109.5V22.8724H105.668V32.8164H103.996ZM112.095 33.0564C111.455 33.0564 110.919 32.9391 110.487 32.7044C110.055 32.4644 109.727 32.1497 109.503 31.7604C109.284 31.3657 109.175 30.9337 109.175 30.4644C109.175 30.0271 109.252 29.6431 109.407 29.3124C109.562 28.9817 109.791 28.7017 110.095 28.4724C110.399 28.2377 110.772 28.0484 111.215 27.9044C111.599 27.7924 112.034 27.6937 112.519 27.6084C113.004 27.5231 113.514 27.4431 114.047 27.3684C114.586 27.2937 115.119 27.2191 115.647 27.1444L115.039 27.4804C115.05 26.8031 114.906 26.3017 114.607 25.9764C114.314 25.6457 113.807 25.4804 113.087 25.4804C112.634 25.4804 112.218 25.5871 111.839 25.8004C111.46 26.0084 111.196 26.3551 111.047 26.8404L109.487 26.3604C109.7 25.6191 110.106 25.0297 110.703 24.5924C111.306 24.1551 112.106 23.9364 113.103 23.9364C113.876 23.9364 114.548 24.0697 115.119 24.3364C115.695 24.5977 116.116 25.0137 116.383 25.5844C116.522 25.8671 116.607 26.1657 116.639 26.4804C116.671 26.7951 116.687 27.1337 116.687 27.4964V32.8164H115.207V30.8404L115.495 31.0964C115.138 31.7577 114.682 32.2511 114.127 32.5764C113.578 32.8964 112.9 33.0564 112.095 33.0564ZM112.391 31.6884C112.866 31.6884 113.274 31.6057 113.615 31.4404C113.956 31.2697 114.231 31.0537 114.439 30.7924C114.647 30.5311 114.783 30.2591 114.847 29.9764C114.938 29.7204 114.988 29.4324 114.999 29.1124C115.015 28.7924 115.023 28.5364 115.023 28.3444L115.567 28.5444C115.039 28.6244 114.559 28.6964 114.127 28.7604C113.695 28.8244 113.303 28.8884 112.951 28.9524C112.604 29.0111 112.295 29.0831 112.023 29.1684C111.794 29.2484 111.588 29.3444 111.407 29.4564C111.231 29.5684 111.09 29.7044 110.983 29.8644C110.882 30.0244 110.831 30.2191 110.831 30.4484C110.831 30.6724 110.887 30.8804 110.999 31.0724C111.111 31.2591 111.282 31.4084 111.511 31.5204C111.74 31.6324 112.034 31.6884 112.391 31.6884ZM118.765 32.8164V24.1764H120.253V26.2724L120.045 26.0004C120.151 25.7231 120.29 25.4697 120.461 25.2404C120.631 25.0057 120.829 24.8137 121.053 24.6644C121.271 24.5044 121.514 24.3817 121.781 24.2964C122.053 24.2057 122.33 24.1524 122.613 24.1364C122.895 24.1151 123.167 24.1284 123.429 24.1764V25.7444C123.146 25.6697 122.831 25.6484 122.485 25.6804C122.143 25.7124 121.829 25.8217 121.541 26.0084C121.269 26.1844 121.053 26.3977 120.893 26.6484C120.738 26.8991 120.626 27.1791 120.557 27.4884C120.487 27.7924 120.453 28.1151 120.453 28.4564V32.8164H118.765ZM128.2 36.8964C127.736 36.8964 127.285 36.8244 126.848 36.6804C126.416 36.5364 126.021 36.3231 125.664 36.0404C125.306 35.7631 125.01 35.4191 124.776 35.0084L126.32 34.2244C126.506 34.5924 126.773 34.8617 127.12 35.0324C127.466 35.2031 127.832 35.2884 128.216 35.2884C128.69 35.2884 129.096 35.2031 129.432 35.0324C129.768 34.8671 130.021 34.6164 130.192 34.2804C130.368 33.9444 130.453 33.5284 130.448 33.0324V30.6164H130.648V24.1764H132.128V33.0484C132.128 33.2777 132.12 33.4964 132.104 33.7044C132.088 33.9124 132.058 34.1204 132.016 34.3284C131.893 34.9097 131.658 35.3897 131.312 35.7684C130.97 36.1471 130.533 36.4297 130 36.6164C129.472 36.8031 128.872 36.8964 128.2 36.8964ZM128.072 33.0564C127.266 33.0564 126.57 32.8564 125.984 32.4564C125.402 32.0564 124.952 31.5124 124.632 30.8244C124.317 30.1311 124.16 29.3524 124.16 28.4884C124.16 27.6191 124.32 26.8431 124.64 26.1604C124.96 25.4724 125.413 24.9311 126 24.5364C126.592 24.1364 127.293 23.9364 128.104 23.9364C128.92 23.9364 129.605 24.1364 130.16 24.5364C130.72 24.9311 131.141 25.4724 131.424 26.1604C131.712 26.8484 131.856 27.6244 131.856 28.4884C131.856 29.3524 131.712 30.1284 131.424 30.8164C131.136 31.5044 130.712 32.0511 130.152 32.4564C129.592 32.8564 128.898 33.0564 128.072 33.0564ZM128.304 31.5444C128.853 31.5444 129.301 31.4137 129.648 31.1524C129.994 30.8911 130.248 30.5311 130.408 30.0724C130.568 29.6137 130.648 29.0857 130.648 28.4884C130.648 27.8911 130.565 27.3631 130.4 26.9044C130.24 26.4457 129.989 26.0884 129.648 25.8324C129.312 25.5764 128.882 25.4484 128.36 25.4484C127.805 25.4484 127.349 25.5844 126.992 25.8564C126.634 26.1284 126.368 26.4937 126.192 26.9524C126.021 27.4111 125.936 27.9231 125.936 28.4884C125.936 29.0591 126.021 29.5764 126.192 30.0404C126.368 30.4991 126.629 30.8644 126.976 31.1364C127.328 31.4084 127.77 31.5444 128.304 31.5444ZM138.206 33.0564C137.347 33.0564 136.593 32.8697 135.942 32.4964C135.297 32.1177 134.793 31.5924 134.43 30.9204C134.073 30.2431 133.894 29.4591 133.894 28.5684C133.894 27.6244 134.07 26.8057 134.422 26.1124C134.779 25.4191 135.275 24.8831 135.91 24.5044C136.545 24.1257 137.283 23.9364 138.126 23.9364C139.006 23.9364 139.755 24.1417 140.374 24.5524C140.993 24.9577 141.454 25.5364 141.758 26.2884C142.067 27.0404 142.19 27.9337 142.126 28.9684H140.454V28.3604C140.443 27.3577 140.251 26.6164 139.878 26.1364C139.51 25.6564 138.947 25.4164 138.19 25.4164C137.353 25.4164 136.723 25.6804 136.302 26.2084C135.881 26.7364 135.67 27.4991 135.67 28.4964C135.67 29.4457 135.881 30.1817 136.302 30.7044C136.723 31.2217 137.331 31.4804 138.126 31.4804C138.649 31.4804 139.099 31.3631 139.478 31.1284C139.862 30.8884 140.161 30.5471 140.374 30.1044L142.014 30.6244C141.678 31.3977 141.169 31.9977 140.486 32.4244C139.803 32.8457 139.043 33.0564 138.206 33.0564ZM135.126 28.9684V27.6644H141.294V28.9684H135.126ZM148.865 32.8164C148.321 32.9231 147.787 32.9684 147.265 32.9524C146.742 32.9364 146.275 32.8351 145.865 32.6484C145.454 32.4617 145.145 32.1684 144.937 31.7684C144.75 31.4111 144.649 31.0484 144.633 30.6804C144.622 30.3071 144.617 29.8857 144.617 29.4164V21.7764H146.297V29.3364C146.297 29.6831 146.299 29.9844 146.305 30.2404C146.315 30.4964 146.371 30.7124 146.473 30.8884C146.665 31.2191 146.969 31.4084 147.385 31.4564C147.806 31.4991 148.299 31.4804 148.865 31.4004V32.8164ZM142.961 25.5204V24.1764H148.865V25.5204H142.961ZM153.09 32.8164L156.834 21.2964H159.242L162.986 32.8164H161.25L157.802 22.3044H158.234L154.826 32.8164H153.09ZM155.034 30.2164V28.6484H161.05V30.2164H155.034ZM164.421 32.8164V24.1764H165.909V26.2724L165.701 26.0004C165.807 25.7231 165.946 25.4697 166.117 25.2404C166.287 25.0057 166.485 24.8137 166.709 24.6644C166.927 24.5044 167.17 24.3817 167.437 24.2964C167.709 24.2057 167.986 24.1524 168.269 24.1364C168.551 24.1151 168.823 24.1284 169.085 24.1764V25.7444C168.802 25.6697 168.487 25.6484 168.141 25.6804C167.799 25.7124 167.485 25.8217 167.197 26.0084C166.925 26.1844 166.709 26.3977 166.549 26.6484C166.394 26.8991 166.282 27.1791 166.213 27.4884C166.143 27.7924 166.109 28.1151 166.109 28.4564V32.8164H164.421ZM174.284 33.0564C173.425 33.0564 172.671 32.8697 172.02 32.4964C171.375 32.1177 170.871 31.5924 170.508 30.9204C170.151 30.2431 169.972 29.4591 169.972 28.5684C169.972 27.6244 170.148 26.8057 170.5 26.1124C170.857 25.4191 171.353 24.8831 171.988 24.5044C172.623 24.1257 173.361 23.9364 174.204 23.9364C175.084 23.9364 175.833 24.1417 176.452 24.5524C177.071 24.9577 177.532 25.5364 177.836 26.2884C178.145 27.0404 178.268 27.9337 178.204 28.9684H176.532V28.3604C176.521 27.3577 176.329 26.6164 175.956 26.1364C175.588 25.6564 175.025 25.4164 174.268 25.4164C173.431 25.4164 172.801 25.6804 172.38 26.2084C171.959 26.7364 171.748 27.4991 171.748 28.4964C171.748 29.4457 171.959 30.1817 172.38 30.7044C172.801 31.2217 173.409 31.4804 174.204 31.4804C174.727 31.4804 175.177 31.3631 175.556 31.1284C175.94 30.8884 176.239 30.5471 176.452 30.1044L178.092 30.6244C177.756 31.3977 177.247 31.9977 176.564 32.4244C175.881 32.8457 175.121 33.0564 174.284 33.0564ZM171.204 28.9684V27.6644H177.372V28.9684H171.204ZM182.283 33.0564C181.643 33.0564 181.107 32.9391 180.675 32.7044C180.243 32.4644 179.915 32.1497 179.691 31.7604C179.472 31.3657 179.363 30.9337 179.363 30.4644C179.363 30.0271 179.44 29.6431 179.595 29.3124C179.749 28.9817 179.979 28.7017 180.283 28.4724C180.587 28.2377 180.96 28.0484 181.403 27.9044C181.787 27.7924 182.221 27.6937 182.707 27.6084C183.192 27.5231 183.701 27.4431 184.235 27.3684C184.773 27.2937 185.307 27.2191 185.835 27.1444L185.227 27.4804C185.237 26.8031 185.093 26.3017 184.795 25.9764C184.501 25.6457 183.995 25.4804 183.275 25.4804C182.821 25.4804 182.405 25.5871 182.027 25.8004C181.648 26.0084 181.384 26.3551 181.235 26.8404L179.675 26.3604C179.888 25.6191 180.293 25.0297 180.891 24.5924C181.493 24.1551 182.293 23.9364 183.291 23.9364C184.064 23.9364 184.736 24.0697 185.307 24.3364C185.883 24.5977 186.304 25.0137 186.571 25.5844C186.709 25.8671 186.795 26.1657 186.827 26.4804C186.859 26.7951 186.875 27.1337 186.875 27.4964V32.8164H185.395V30.8404L185.683 31.0964C185.325 31.7577 184.869 32.2511 184.315 32.5764C183.765 32.8964 183.088 33.0564 182.283 33.0564ZM182.579 31.6884C183.053 31.6884 183.461 31.6057 183.803 31.4404C184.144 31.2697 184.419 31.0537 184.627 30.7924C184.835 30.5311 184.971 30.2591 185.035 29.9764C185.125 29.7204 185.176 29.4324 185.187 29.1124C185.203 28.7924 185.211 28.5364 185.211 28.3444L185.755 28.5444C185.227 28.6244 184.747 28.6964 184.315 28.7604C183.883 28.8244 183.491 28.8884 183.139 28.9524C182.792 29.0111 182.483 29.0831 182.211 29.1684C181.981 29.2484 181.776 29.3444 181.595 29.4564C181.419 29.5684 181.277 29.7044 181.171 29.8644C181.069 30.0244 181.019 30.2191 181.019 30.4484C181.019 30.6724 181.075 30.8804 181.187 31.0724C181.299 31.2591 181.469 31.4084 181.699 31.5204C181.928 31.6324 182.221 31.6884 182.579 31.6884ZM192.256 33.0484C191.205 33.0484 190.349 32.8164 189.688 32.3524C189.027 31.8884 188.621 31.2351 188.472 30.3924L190.184 30.1284C190.291 30.5764 190.536 30.9311 190.92 31.1924C191.309 31.4484 191.792 31.5764 192.368 31.5764C192.891 31.5764 193.299 31.4697 193.592 31.2564C193.891 31.0431 194.04 30.7497 194.04 30.3764C194.04 30.1577 193.987 29.9817 193.88 29.8484C193.779 29.7097 193.563 29.5791 193.232 29.4564C192.901 29.3337 192.397 29.1817 191.72 29.0004C190.979 28.8084 190.389 28.6031 189.952 28.3844C189.52 28.1604 189.211 27.9017 189.024 27.6084C188.843 27.3097 188.752 26.9497 188.752 26.5284C188.752 26.0057 188.891 25.5497 189.168 25.1604C189.445 24.7711 189.835 24.4697 190.336 24.2564C190.843 24.0431 191.435 23.9364 192.112 23.9364C192.773 23.9364 193.363 24.0404 193.88 24.2484C194.397 24.4564 194.816 24.7524 195.136 25.1364C195.456 25.5151 195.648 25.9604 195.712 26.4724L194 26.7844C193.941 26.3684 193.747 26.0404 193.416 25.8004C193.085 25.5604 192.656 25.4297 192.128 25.4084C191.621 25.3871 191.211 25.4724 190.896 25.6644C190.581 25.8511 190.424 26.1097 190.424 26.4404C190.424 26.6324 190.483 26.7951 190.6 26.9284C190.723 27.0617 190.957 27.1897 191.304 27.3124C191.651 27.4351 192.163 27.5817 192.84 27.7524C193.565 27.9391 194.141 28.1471 194.568 28.3764C194.995 28.6004 195.299 28.8697 195.48 29.1844C195.667 29.4937 195.76 29.8697 195.76 30.3124C195.76 31.1657 195.448 31.8351 194.824 32.3204C194.205 32.8057 193.349 33.0484 192.256 33.0484ZM200.33 30.6804V27.7204H197.37V26.3764H200.33V23.4324H201.674V26.3764H204.626V27.7204H201.674V30.6804H200.33Z" fill="black"/>
<path d="M25.5408 37.5298C26.1468 38.0298 26.7788 38.4868 27.4258 38.9328C28.0742 38.4927 28.7031 38.0246 29.3108 37.5298C30.3238 36.698 31.2771 35.7961 32.1638 34.8307C34.2078 32.5957 36.4258 29.3558 36.4258 25.7188C36.4258 24.5369 36.193 23.3665 35.7407 22.2746C35.2884 21.1827 34.6255 20.1905 33.7897 19.3548C32.954 18.5191 31.9619 17.8561 30.8699 17.4038C29.778 16.9515 28.6077 16.7188 27.4258 16.7188C26.2439 16.7188 25.0736 16.9515 23.9816 17.4038C22.8897 17.8561 21.8975 18.5191 21.0618 19.3548C20.2261 20.1905 19.5632 21.1827 19.1109 22.2746C18.6586 23.3665 18.4258 24.5369 18.4258 25.7188C18.4258 29.3558 20.6438 32.5947 22.6878 34.8307C23.5744 35.7964 24.5277 36.6976 25.5408 37.5298ZM27.4258 28.9688C26.5638 28.9688 25.7372 28.6263 25.1277 28.0168C24.5182 27.4074 24.1758 26.5807 24.1758 25.7188C24.1758 24.8568 24.5182 24.0301 25.1277 23.4207C25.7372 22.8112 26.5638 22.4688 27.4258 22.4688C28.2877 22.4688 29.1144 22.8112 29.7239 23.4207C30.3334 24.0301 30.6758 24.8568 30.6758 25.7188C30.6758 26.5807 30.3334 27.4074 29.7239 28.0168C29.1144 28.6263 28.2877 28.9688 27.4258 28.9688Z" fill="url(#paint0_linear_4127_541)"/>
<defs>
<linearGradient id="paint0_linear_4127_541" x1="18.4258" y1="24.1169" x2="31.4283" y2="24.8432" gradientUnits="userSpaceOnUse">
<stop stop-color="#52B37D"/>
<stop offset="1" stop-color="#069B49"/>
</linearGradient>
</defs>
</svg>
