<svg width="82" height="63" viewBox="0 0 82 63" fill="none" xmlns="http://www.w3.org/2000/svg">
<path d="M55.2922 46.282C55.2552 46.3606 55.2478 46.4499 55.2713 46.5335C55.2948 46.6171 55.3477 46.6895 55.4202 46.7373L71.1378 57.1703C71.165 57.1916 71.1964 57.207 71.23 57.2155C71.2882 57.2334 71.35 57.236 71.4094 57.2228C71.4689 57.2096 71.5238 57.1811 71.5689 57.1402C71.6279 57.089 71.6684 57.0199 71.6844 56.9435C71.7004 56.867 71.6909 56.7875 71.6574 56.717L61.0981 35.1661C61.0678 35.1053 61.021 35.0542 60.9631 35.0186C60.9052 34.9831 60.8385 34.9644 60.7705 34.9649C60.7029 34.9652 60.6369 34.9849 60.5802 35.0216C60.5235 35.0582 60.4784 35.1104 60.4504 35.1718L55.2922 46.282Z" fill="url(#paint0_linear_4298_803)"/>
<path d="M0.0519871 0.177917C0.0144523 0.24007 -0.0034732 0.312084 0.000556555 0.384566C0.00458631 0.457049 0.0303604 0.526636 0.074554 0.584253L48.1384 62.1553C48.187 62.215 48.2527 62.2583 48.3267 62.2795C48.3736 62.2937 48.4228 62.2988 48.4716 62.2945C48.5325 62.2872 48.5905 62.264 48.6397 62.2274C48.6889 62.1908 48.7276 62.1419 48.7521 62.0857L64.7916 27.5341L81.4448 17.8234C81.5091 17.7863 81.5605 17.7302 81.5918 17.6629C81.6231 17.5956 81.6329 17.5203 81.6199 17.4472C81.6081 17.3753 81.5745 17.3088 81.5237 17.2567C81.4728 17.2046 81.4072 17.1693 81.3356 17.1556L0.434154 0.00672839C0.360562 -0.00762883 0.284305 0.00111569 0.215884 0.0317645C0.147464 0.0624133 0.0902249 0.113466 0.0519871 0.177917Z" fill="url(#paint1_linear_4298_803)"/>
<path d="M18.9774 8.84648C18.9351 8.9255 18.9244 9.01763 18.9474 9.10423C18.9705 9.19083 19.0256 9.26545 19.1016 9.31301L60.4974 35.5818L71.0078 57.0442C71.0305 57.0888 71.0618 57.1283 71.0999 57.1606C71.1381 57.1929 71.1823 57.2173 71.2299 57.2324C71.3029 57.2586 71.3829 57.2586 71.4559 57.2324C71.5387 57.2035 71.6079 57.1451 71.6503 57.0684C71.6927 56.9917 71.7053 56.902 71.6855 56.8166L64.8537 27.2237C64.8402 27.1677 64.8141 27.1154 64.7772 27.0711C64.7403 27.0267 64.6936 26.9914 64.6409 26.9679L19.4292 8.69034C19.3481 8.65431 19.2563 8.65039 19.1725 8.67937C19.0886 8.70836 19.0189 8.76809 18.9774 8.84648Z" fill="white"/>
<defs>
<linearGradient id="paint0_linear_4298_803" x1="85.2254" y1="49.2166" x2="67.3273" y2="43.5604" gradientUnits="userSpaceOnUse">
<stop stop-color="white"/>
<stop offset="1" stop-color="#E8F5FD"/>
</linearGradient>
<linearGradient id="paint1_linear_4298_803" x1="84.7169" y1="43.0852" x2="5.83938" y2="18.1582" gradientUnits="userSpaceOnUse">
<stop stop-color="white"/>
<stop offset="1" stop-color="#CCE7F8"/>
</linearGradient>
</defs>
</svg>
