<svg width="80" height="80" viewBox="0 0 80 80" fill="none" xmlns="http://www.w3.org/2000/svg">
<circle cx="39.6777" cy="39.6777" r="39.6777" fill="white"/>
<path d="M28.1907 21.7403C19.4039 21.7403 12.6738 33.176 12.6738 45.2687C12.6738 52.8386 16.335 57.6197 22.4728 57.6197C26.8878 57.6197 30.0644 55.5414 35.7176 45.6671C35.7176 45.6671 38.0758 41.5106 39.6911 38.6462L43.0507 32.9607C45.9043 28.5565 48.2625 26.3598 51.0622 26.3598C56.877 26.3598 61.5288 34.9205 61.5288 45.4409C61.5288 49.4467 60.2151 51.7726 57.4908 51.7726C54.8849 51.7726 53.6358 50.0497 48.6825 42.0813L44.1275 46.0547C49.2855 54.6908 52.1606 57.6197 57.3723 57.6197C63.3487 57.6197 66.676 52.7633 66.676 45.0318C66.676 32.3577 59.7952 21.7188 51.4283 21.7188C47.0026 21.7188 43.5353 25.0569 40.4018 29.2887L36.9237 34.3928C33.4886 39.6692 31.3996 42.975 31.3996 42.975C26.8232 50.1574 25.2402 51.7618 22.6882 51.7618C20.0608 51.7618 18.5102 49.4575 18.5102 45.3548C18.5102 36.568 22.8928 27.5874 28.1153 27.5874L28.1907 21.7403Z" fill="url(#paint0_linear_4127_545)"/>
<path d="M40.6931 33.2653L36.9242 34.4283C33.4891 39.7048 31.4 43.0107 31.4 43.0107C26.8235 50.1932 25.2405 51.7977 22.6884 51.7977C20.0609 51.7977 18.5103 49.4932 18.5103 45.3905C18.5103 36.6035 22.893 27.6227 28.1157 27.6227L28.1911 21.7539C19.4041 21.7431 12.6738 33.1792 12.6738 45.272C12.6738 52.8422 16.3351 57.6234 22.4731 57.6234C26.8881 57.6234 30.0648 55.5451 35.7182 45.6705C35.7182 45.6705 38.0764 41.5139 39.6917 38.6495L40.6931 33.2653Z" fill="url(#paint1_linear_4127_545)"/>
<path d="M44.1298 46.0679C49.2878 54.7042 52.163 57.6224 57.3749 57.6224L57.4933 51.7752C54.8874 51.7752 53.6382 50.063 48.6848 42.0944C44.5282 35.3319 42.4068 31.9506 40.4039 29.3124C36.0966 23.8313 32.4999 21.7422 28.1926 21.7422L28.1172 27.611C30.9493 27.611 33.3075 29.2477 36.9257 34.4273C38.4441 36.5595 41.5561 41.6314 44.1298 46.0679Z" fill="url(#paint2_linear_4127_545)"/>
<path d="M40.3929 29.3124C36.0855 23.8313 32.4889 21.7422 28.1708 21.7422C23.9173 21.7422 20.1483 24.4235 17.3809 28.5586L21.5375 32.8121C23.2712 29.6785 25.6079 27.6217 28.1169 27.6217C30.949 27.6217 33.2857 29.237 36.9039 34.4166L40.3929 29.3124Z" fill="url(#paint3_linear_4127_545)"/>
<path d="M46.9961 50.5877C50.5389 55.7458 53.2094 57.6195 57.3768 57.6195C63.3533 57.6195 66.6807 52.7629 66.6807 45.0312L61.5334 45.4404C61.5334 49.4463 60.2197 51.7722 57.4953 51.7722C55.3954 51.7722 54.1678 50.6523 51.1635 46.0219L46.9961 50.5877Z" fill="url(#paint4_linear_4127_545)"/>
<defs>
<linearGradient id="paint0_linear_4127_545" x1="12.6738" y1="39.6692" x2="66.676" y2="39.6692" gradientUnits="userSpaceOnUse">
<stop stop-color="#0064E0"/>
<stop offset="0.061763" stop-color="#006AE5"/>
<stop offset="0.2183" stop-color="#007AF4"/>
<stop offset="0.8106" stop-color="#007DF6"/>
<stop offset="1" stop-color="#0080F9"/>
</linearGradient>
<linearGradient id="paint1_linear_4127_545" x1="17.4642" y1="32.9342" x2="36.9478" y2="53.0814" gradientUnits="userSpaceOnUse">
<stop stop-color="#0064E0"/>
<stop offset="0.0134753" stop-color="#0065E1"/>
<stop offset="0.2894" stop-color="#0075F0"/>
<stop offset="0.5971" stop-color="#007FF9"/>
<stop offset="1" stop-color="#0082FC"/>
</linearGradient>
<linearGradient id="paint2_linear_4127_545" x1="23.9767" y1="18.8149" x2="56.9118" y2="54.4076" gradientUnits="userSpaceOnUse">
<stop stop-color="#0082FB"/>
<stop offset="0.0216721" stop-color="#017CF5"/>
<stop offset="0.0904785" stop-color="#0471EA"/>
<stop offset="0.1872" stop-color="#066AE3"/>
<stop offset="0.4561" stop-color="#0668E1"/>
<stop offset="0.7462" stop-color="#056AE3"/>
<stop offset="0.8847" stop-color="#0472EB"/>
<stop offset="0.9742" stop-color="#017CF5"/>
<stop offset="1" stop-color="#0082FB"/>
</linearGradient>
<linearGradient id="paint3_linear_4127_545" x1="17.3809" y1="28.0794" x2="40.3929" y2="28.0794" gradientUnits="userSpaceOnUse">
<stop stop-color="#0064E0"/>
<stop offset="0.4218" stop-color="#0069E4"/>
<stop offset="0.4332" stop-color="#0069E4"/>
<stop offset="1" stop-color="#0668E1"/>
</linearGradient>
<linearGradient id="paint4_linear_4127_545" x1="46.9978" y1="51.3254" x2="66.6807" y2="51.3254" gradientUnits="userSpaceOnUse">
<stop stop-color="#066BE3"/>
<stop offset="0.3087" stop-color="#0470E9"/>
<stop offset="0.559" stop-color="#0279F2"/>
<stop offset="1" stop-color="#0080F9"/>
</linearGradient>
</defs>
</svg>
