<svg width="118" height="95" viewBox="0 0 118 95" fill="none" xmlns="http://www.w3.org/2000/svg">
<path d="M0.667159 21.4513C0.579546 21.4513 0.492805 21.4341 0.41186 21.4006C0.330916 21.367 0.257372 21.3179 0.19542 21.2559C0.133468 21.194 0.0843321 21.1204 0.0508038 21.0395C0.0172756 20.9585 0 20.8718 0 20.7842V14.1792C0.00504213 10.4787 1.47719 6.93117 4.0937 4.31436C6.71021 1.69755 10.2576 0.225008 13.9581 0.219544H20.9967C21.087 0.215137 21.1771 0.229105 21.2618 0.260604C21.3465 0.292104 21.4239 0.340475 21.4894 0.402787C21.5548 0.465099 21.6069 0.540057 21.6425 0.623105C21.6781 0.706153 21.6964 0.795564 21.6964 0.885918C21.6964 0.976272 21.6781 1.06568 21.6425 1.14873C21.6069 1.23178 21.5548 1.30673 21.4894 1.36904C21.4239 1.43135 21.3465 1.47973 21.2618 1.51123C21.1771 1.54273 21.087 1.5567 20.9967 1.55229H13.9581C10.611 1.55608 7.402 2.8875 5.03536 5.25444C2.66872 7.62137 1.33772 10.8305 1.33436 14.1776V20.7842C1.33436 20.8718 1.31708 20.9585 1.28355 21.0395C1.25003 21.1204 1.20089 21.194 1.13894 21.2559C1.07698 21.3179 1.00344 21.367 0.922497 21.4006C0.841553 21.4341 0.754773 21.4513 0.667159 21.4513Z" fill="#8DC7EF"/>
<path d="M116.963 21.6655C116.875 21.6655 116.789 21.6482 116.708 21.6147C116.627 21.5811 116.553 21.532 116.491 21.47C116.429 21.4081 116.38 21.3345 116.347 21.2536C116.313 21.1726 116.296 21.0859 116.296 20.9983V13.9597C116.292 10.6124 114.961 7.40328 112.594 5.03639C110.227 2.6695 107.018 1.33811 103.671 1.33433H97.0656C96.8887 1.33433 96.719 1.26405 96.5939 1.13893C96.4687 1.01381 96.3984 0.844112 96.3984 0.667169C96.3984 0.490225 96.4687 0.320529 96.5939 0.195411C96.719 0.0702925 96.8887 0 97.0656 0H103.671C107.371 0.0050431 110.919 1.47741 113.536 4.09427C116.153 6.71112 117.625 10.2589 117.63 13.9597V20.9983C117.63 21.0859 117.613 21.1726 117.579 21.2536C117.546 21.3345 117.497 21.4081 117.435 21.47C117.373 21.532 117.299 21.5811 117.218 21.6147C117.137 21.6482 117.051 21.6655 116.963 21.6655Z" fill="#8DC7EF"/>
<path d="M103.673 94.2654H96.63C96.4531 94.2654 96.2834 94.1951 96.1583 94.0699C96.0332 93.9448 95.9629 93.7751 95.9629 93.5982C95.9629 93.4212 96.0332 93.2515 96.1583 93.1264C96.2834 93.0013 96.4531 92.931 96.63 92.931H103.667C107.014 92.9277 110.224 91.5964 112.591 89.2294C114.958 86.8624 116.289 83.6531 116.292 80.3057V73.7023C116.292 73.5254 116.363 73.3557 116.488 73.2306C116.613 73.1054 116.783 73.0352 116.96 73.0352C117.137 73.0352 117.306 73.1054 117.431 73.2306C117.556 73.3557 117.627 73.5254 117.627 73.7023V80.3057C117.622 84.0054 116.15 87.5522 113.535 90.1688C110.919 92.7855 107.373 94.2586 103.673 94.2654Z" fill="#8DC7EF"/>
<path d="M20.5646 94.4826H13.9581C10.2576 94.4771 6.71021 93.0046 4.0937 90.3878C1.47719 87.771 0.00504213 84.2234 0 80.5229V73.4875C0 73.3105 0.0703022 73.1408 0.19542 73.0157C0.320538 72.8906 0.490216 72.8203 0.667159 72.8203C0.844103 72.8203 1.01382 72.8906 1.13894 73.0157C1.26405 73.1408 1.33436 73.3105 1.33436 73.4875V80.5229C1.33772 83.8702 2.66869 87.0795 5.03528 89.4467C7.40187 91.8139 10.6108 93.1456 13.9581 93.1499H20.563C20.7341 93.1582 20.8955 93.2321 21.0136 93.3561C21.1318 93.4802 21.1977 93.6449 21.1977 93.8162C21.1977 93.9875 21.1318 94.1523 21.0136 94.2763C20.8955 94.4004 20.7341 94.4742 20.563 94.4826H20.5646Z" fill="#8DC7EF"/>
<path d="M109.195 14.1763V80.5228C109.195 81.9868 108.613 83.3909 107.578 84.4261C106.543 85.4613 105.139 86.0429 103.675 86.0429H13.9614C12.4974 86.0429 11.0934 85.4613 10.0582 84.4261C9.02297 83.3909 8.44141 81.9868 8.44141 80.5228V14.1763C8.4412 13.4513 8.58381 12.7334 8.86114 12.0636C9.13847 11.3938 9.54508 10.7852 10.0577 10.2726C10.5703 9.75994 11.1789 9.35334 11.8488 9.07601C12.5186 8.79868 13.2365 8.65604 13.9614 8.65625H103.675C104.4 8.65604 105.118 8.79868 105.787 9.07601C106.457 9.35334 107.066 9.75994 107.578 10.2726C108.091 10.7852 108.498 11.3938 108.775 12.0636C109.052 12.7334 109.195 13.4513 109.195 14.1763Z" fill="#CDE8F9"/>
<path d="M45.5972 76.4127C45.5972 75.8785 45.385 75.3661 45.0072 74.9884C44.6295 74.6106 44.1172 74.3984 43.583 74.3984H28.9244C28.3902 74.3984 27.8778 74.6106 27.5001 74.9884C27.1224 75.3661 26.9102 75.8785 26.9102 76.4127C26.9102 76.9469 27.1224 77.4592 27.5001 77.8369C27.8778 78.2146 28.3902 78.4269 28.9244 78.4269H43.583C44.1172 78.4269 44.6295 78.2146 45.0072 77.8369C45.385 77.4592 45.5972 76.9469 45.5972 76.4127Z" fill="white"/>
<path d="M66.7516 74.3984H58.8091C58.2749 74.3984 57.7626 74.6106 57.3849 74.9884C57.0071 75.3661 56.7949 75.8785 56.7949 76.4127C56.7949 76.9469 57.0071 77.4592 57.3849 77.8369C57.7626 78.2146 58.2749 78.4269 58.8091 78.4269H66.7516C67.2858 78.4269 67.7981 78.2146 68.1759 77.8369C68.5536 77.4592 68.7658 76.9469 68.7658 76.4127C68.7658 75.8785 68.5536 75.3661 68.1759 74.9884C67.7981 74.6106 67.2858 74.3984 66.7516 74.3984Z" fill="white"/>
<path d="M90.7247 67.1236C90.7247 67.6578 90.5125 68.1701 90.1347 68.5478C89.757 68.9256 89.2446 69.1378 88.7104 69.1378H28.9244C28.3902 69.1378 27.8778 68.9256 27.5001 68.5478C27.1224 68.1701 26.9102 67.6578 26.9102 67.1236C26.9102 66.5894 27.1224 66.0771 27.5001 65.6993C27.8778 65.3216 28.3902 65.1094 28.9244 65.1094H88.7104C89.2446 65.1094 89.757 65.3216 90.1347 65.6993C90.5125 66.0771 90.7247 66.5894 90.7247 67.1236Z" fill="white"/>
<path d="M79.1576 36.614C79.1601 40.6383 77.9691 44.573 75.7352 47.9204C73.5013 51.2678 70.3248 53.8775 66.6076 55.4194C62.8904 56.9614 58.7994 57.3663 54.852 56.5829C50.9046 55.7996 47.2782 53.8632 44.4315 51.0187C41.5847 48.1741 39.6455 44.5492 38.8591 40.6025C38.0726 36.6557 38.4744 32.5644 40.0134 28.846C41.5524 25.1275 44.1596 21.949 47.5053 19.7125C50.8509 17.476 54.7847 16.2819 58.809 16.2812C64.2028 16.2821 69.3757 18.424 73.1911 22.2365C77.0066 26.049 79.1526 31.2202 79.1576 36.614Z" fill="white"/>
<path d="M77.3484 36.6142C77.3507 40.2794 76.2661 43.8629 74.2317 46.9117C72.1973 49.9605 69.3046 52.3375 65.9192 53.7423C62.5339 55.147 58.808 55.5163 55.2128 54.8035C51.6175 54.0907 48.3144 52.3277 45.7211 49.7377C43.1278 47.1476 41.3608 43.8467 40.6435 40.2523C39.9262 36.658 40.2909 32.9317 41.6914 29.5446C43.0919 26.1575 45.4654 23.2618 48.5116 21.2236C51.5579 19.1854 55.14 18.0963 58.8053 18.0941C61.2423 18.0801 63.658 18.5494 65.9126 19.4749C68.1672 20.4003 70.2159 21.7636 71.9403 23.4859C73.6647 25.2081 75.0305 27.2551 75.9588 29.5085C76.8871 31.762 77.3594 34.1771 77.3484 36.6142Z" fill="#9ACCF0"/>
<path d="M73.3206 48.1348C71.5842 50.3186 69.3774 52.0824 66.8645 53.2947C64.3517 54.5071 61.5977 55.1367 58.8077 55.1367C56.0178 55.1367 53.2638 54.5071 50.7509 53.2947C48.2381 52.0824 46.0313 50.3186 44.2949 48.1348C46.0313 45.9509 48.2381 44.1871 50.7509 42.9748C53.2638 41.7624 56.0178 41.1328 58.8077 41.1328C61.5977 41.1328 64.3517 41.7624 66.8645 42.9748C69.3774 44.1871 71.5842 45.9509 73.3206 48.1348Z" fill="white"/>
<path d="M65.7852 35.9014C65.7848 37.2802 65.3755 38.6279 64.609 39.7741C63.8425 40.9202 62.7533 41.8132 61.4791 42.3401C60.205 42.8671 58.8032 43.0043 57.451 42.7344C56.0989 42.4644 54.8572 41.7995 53.883 40.8237C52.9088 39.848 52.246 38.6052 51.9783 37.2526C51.7106 35.9 51.8501 34.4984 52.3792 33.2251C52.9082 31.9519 53.803 30.8641 54.9504 30.0995C56.0978 29.3349 57.4462 28.9278 58.8251 28.9297C60.6721 28.9327 62.4424 29.6686 63.7473 30.9757C65.0523 32.2828 65.7852 34.0544 65.7852 35.9014Z" fill="white"/>
</svg>
