<svg width="52" height="52" viewBox="0 0 52 52" fill="none" xmlns="http://www.w3.org/2000/svg">
<circle cx="25.9258" cy="25.9258" r="25.9258" fill="white"/>
<path d="M20.9582 25.9223C20.9582 23.1781 23.1835 20.953 25.9292 20.953C28.675 20.953 30.9015 23.1781 30.9015 25.9223C30.9015 28.6664 28.675 30.8915 25.9292 30.8915C23.1835 30.8915 20.9582 28.6664 20.9582 25.9223ZM18.2703 25.9223C18.2703 30.1498 21.6992 33.5766 25.9292 33.5766C30.1593 33.5766 33.5882 30.1498 33.5882 25.9223C33.5882 21.6947 30.1593 18.2679 25.9292 18.2679C21.6992 18.2679 18.2703 21.6947 18.2703 25.9223ZM32.1015 17.9644C32.1014 18.3182 32.2062 18.6641 32.4028 18.9583C32.5993 19.2525 32.8788 19.4819 33.2058 19.6175C33.5328 19.753 33.8927 19.7885 34.2399 19.7197C34.5871 19.6508 34.9061 19.4805 35.1565 19.2305C35.407 18.9804 35.5775 18.6617 35.6467 18.3148C35.7159 17.9678 35.6806 17.6081 35.5453 17.2812C35.41 16.9543 35.1807 16.6748 34.8864 16.4782C34.5921 16.2815 34.2461 16.1764 33.8921 16.1763H33.8914C33.4169 16.1765 32.9619 16.365 32.6263 16.7002C32.2907 17.0355 32.102 17.4902 32.1015 17.9644ZM19.9034 38.0559C18.4491 37.9897 17.6587 37.7476 17.1335 37.5431C16.4371 37.2722 15.9402 36.9495 15.4178 36.4281C14.8954 35.9067 14.572 35.4106 14.3021 34.7147C14.0974 34.1899 13.8551 33.3998 13.789 31.9464C13.7167 30.3752 13.7023 29.9032 13.7023 25.9224C13.7023 21.9416 13.7179 21.4709 13.789 19.8983C13.8553 18.445 14.0993 17.6563 14.3021 17.1301C14.5732 16.4341 14.8961 15.9376 15.4178 15.4155C15.9395 14.8934 16.4359 14.5702 17.1335 14.3004C17.6585 14.0958 18.4491 13.8537 19.9034 13.7877C21.4756 13.7154 21.9479 13.701 25.9292 13.701C29.9106 13.701 30.3834 13.7166 31.9569 13.7877C33.4111 13.8538 34.2002 14.0977 34.7268 14.3004C35.4232 14.5702 35.92 14.8941 36.4425 15.4155C36.9649 15.9368 37.287 16.4341 37.5581 17.1301C37.7629 17.6548 38.0051 18.445 38.0712 19.8983C38.1435 21.4709 38.158 21.9416 38.158 25.9224C38.158 29.9032 38.1435 30.3738 38.0712 31.9464C38.005 33.3998 37.7616 34.1897 37.5581 34.7147C37.287 35.4106 36.9641 35.9072 36.4425 36.4281C35.9208 36.949 35.4232 37.2722 34.7268 37.5431C34.2018 37.7477 33.4111 37.9898 31.9569 38.0559C30.3847 38.1282 29.9124 38.1426 25.9292 38.1426C21.9461 38.1426 21.4751 38.1282 19.9034 38.0559ZM19.7799 11.1059C18.192 11.1782 17.107 11.4298 16.1594 11.7983C15.1781 12.1788 14.3474 12.6893 13.5172 13.5177C12.6871 14.346 12.1776 15.1776 11.7968 16.1583C11.4281 17.1059 11.1763 18.1896 11.104 19.7765C11.0305 21.366 11.0137 21.8741 11.0137 25.9223C11.0137 29.9704 11.0305 30.4785 11.104 32.068C11.1763 33.655 11.4281 34.7386 11.7968 35.6862C12.1776 36.6664 12.6872 37.4989 13.5172 38.3268C14.3472 39.1548 15.1781 39.6646 16.1594 40.0462C17.1088 40.4147 18.192 40.6663 19.7799 40.7386C21.371 40.8109 21.8787 40.8289 25.9292 40.8289C29.9798 40.8289 30.4883 40.8121 32.0786 40.7386C33.6666 40.6663 34.7509 40.4147 35.6991 40.0462C36.6798 39.6646 37.5111 39.1552 38.3413 38.3268C39.1714 37.4985 39.6798 36.6664 40.0617 35.6862C40.4304 34.7386 40.6834 33.6549 40.7545 32.068C40.8268 30.4774 40.8436 29.9704 40.8436 25.9223C40.8436 21.8741 40.8268 21.366 40.7545 19.7765C40.6822 18.1895 40.4304 17.1053 40.0617 16.1583C39.6798 15.1782 39.1701 14.3473 38.3413 13.5177C37.5124 12.688 36.6798 12.1788 35.7003 11.7983C34.7509 11.4298 33.6665 11.177 32.0798 11.1059C30.4895 11.0336 29.981 11.0156 25.9304 11.0156C21.8798 11.0156 21.371 11.0324 19.7799 11.1059Z" fill="url(#paint0_radial_4127_477)"/>
<path d="M20.9582 25.9223C20.9582 23.1781 23.1835 20.953 25.9292 20.953C28.675 20.953 30.9015 23.1781 30.9015 25.9223C30.9015 28.6664 28.675 30.8915 25.9292 30.8915C23.1835 30.8915 20.9582 28.6664 20.9582 25.9223ZM18.2703 25.9223C18.2703 30.1498 21.6992 33.5766 25.9292 33.5766C30.1593 33.5766 33.5882 30.1498 33.5882 25.9223C33.5882 21.6947 30.1593 18.2679 25.9292 18.2679C21.6992 18.2679 18.2703 21.6947 18.2703 25.9223ZM32.1015 17.9644C32.1014 18.3182 32.2062 18.6641 32.4028 18.9583C32.5993 19.2525 32.8788 19.4819 33.2058 19.6175C33.5328 19.753 33.8927 19.7885 34.2399 19.7197C34.5871 19.6508 34.9061 19.4805 35.1565 19.2305C35.407 18.9804 35.5775 18.6617 35.6467 18.3148C35.7159 17.9678 35.6806 17.6081 35.5453 17.2812C35.41 16.9543 35.1807 16.6748 34.8864 16.4782C34.5921 16.2815 34.2461 16.1764 33.8921 16.1763H33.8914C33.4169 16.1765 32.9619 16.365 32.6263 16.7002C32.2907 17.0355 32.102 17.4902 32.1015 17.9644ZM19.9034 38.0559C18.4491 37.9897 17.6587 37.7476 17.1335 37.5431C16.4371 37.2722 15.9402 36.9495 15.4178 36.4281C14.8954 35.9067 14.572 35.4106 14.3021 34.7147C14.0974 34.1899 13.8551 33.3998 13.789 31.9464C13.7167 30.3752 13.7023 29.9032 13.7023 25.9224C13.7023 21.9416 13.7179 21.4709 13.789 19.8983C13.8553 18.445 14.0993 17.6563 14.3021 17.1301C14.5732 16.4341 14.8961 15.9376 15.4178 15.4155C15.9395 14.8934 16.4359 14.5702 17.1335 14.3004C17.6585 14.0958 18.4491 13.8537 19.9034 13.7877C21.4756 13.7154 21.9479 13.701 25.9292 13.701C29.9106 13.701 30.3834 13.7166 31.9569 13.7877C33.4111 13.8538 34.2002 14.0977 34.7268 14.3004C35.4232 14.5702 35.92 14.8941 36.4425 15.4155C36.9649 15.9368 37.287 16.4341 37.5581 17.1301C37.7629 17.6548 38.0051 18.445 38.0712 19.8983C38.1435 21.4709 38.158 21.9416 38.158 25.9224C38.158 29.9032 38.1435 30.3738 38.0712 31.9464C38.005 33.3998 37.7616 34.1897 37.5581 34.7147C37.287 35.4106 36.9641 35.9072 36.4425 36.4281C35.9208 36.949 35.4232 37.2722 34.7268 37.5431C34.2018 37.7477 33.4111 37.9898 31.9569 38.0559C30.3847 38.1282 29.9124 38.1426 25.9292 38.1426C21.9461 38.1426 21.4751 38.1282 19.9034 38.0559ZM19.7799 11.1059C18.192 11.1782 17.107 11.4298 16.1594 11.7983C15.1781 12.1788 14.3474 12.6893 13.5172 13.5177C12.6871 14.346 12.1776 15.1776 11.7968 16.1583C11.4281 17.1059 11.1763 18.1896 11.104 19.7765C11.0305 21.366 11.0137 21.8741 11.0137 25.9223C11.0137 29.9704 11.0305 30.4785 11.104 32.068C11.1763 33.655 11.4281 34.7386 11.7968 35.6862C12.1776 36.6664 12.6872 37.4989 13.5172 38.3268C14.3472 39.1548 15.1781 39.6646 16.1594 40.0462C17.1088 40.4147 18.192 40.6663 19.7799 40.7386C21.371 40.8109 21.8787 40.8289 25.9292 40.8289C29.9798 40.8289 30.4883 40.8121 32.0786 40.7386C33.6666 40.6663 34.7509 40.4147 35.6991 40.0462C36.6798 39.6646 37.5111 39.1552 38.3413 38.3268C39.1714 37.4985 39.6798 36.6664 40.0617 35.6862C40.4304 34.7386 40.6834 33.6549 40.7545 32.068C40.8268 30.4774 40.8436 29.9704 40.8436 25.9223C40.8436 21.8741 40.8268 21.366 40.7545 19.7765C40.6822 18.1895 40.4304 17.1053 40.0617 16.1583C39.6798 15.1782 39.1701 14.3473 38.3413 13.5177C37.5124 12.688 36.6798 12.1788 35.7003 11.7983C34.7509 11.4298 33.6665 11.177 32.0798 11.1059C30.4895 11.0336 29.981 11.0156 25.9304 11.0156C21.8798 11.0156 21.371 11.0324 19.7799 11.1059Z" fill="url(#paint1_radial_4127_477)"/>
<defs>
<radialGradient id="paint0_radial_4127_477" cx="0" cy="0" r="1" gradientUnits="userSpaceOnUse" gradientTransform="translate(14.9769 40.9697) scale(38.942 38.9187)">
<stop offset="0.09" stop-color="#FA8F21"/>
<stop offset="0.78" stop-color="#D82D7E"/>
</radialGradient>
<radialGradient id="paint1_radial_4127_477" cx="0" cy="0" r="1" gradientUnits="userSpaceOnUse" gradientTransform="translate(29.1049 42.3053) scale(30.6917 30.6733)">
<stop offset="0.64" stop-color="#8C3AAA" stop-opacity="0"/>
<stop offset="1" stop-color="#8C3AAA"/>
</radialGradient>
</defs>
</svg>
