<svg width="227" height="63" viewBox="0 0 227 63" fill="none" xmlns="http://www.w3.org/2000/svg">
<rect x="0.5" y="0.5" width="225.695" height="54.6562" rx="11.5" fill="white" stroke="#ECECEC"/>
<path d="M32.6526 34.0681C31.5006 34.0681 30.5193 33.8175 29.7086 33.3161C28.8979 32.8095 28.2766 32.1055 27.8446 31.2041C27.4179 30.3028 27.2046 29.2575 27.2046 28.0681C27.2046 26.8788 27.4179 25.8335 27.8446 24.9321C28.2766 24.0308 28.8979 23.3295 29.7086 22.8281C30.5193 22.3215 31.5006 22.0681 32.6526 22.0681C33.9806 22.0681 35.0793 22.4041 35.9486 23.0761C36.8233 23.7481 37.4313 24.6521 37.7726 25.7881L36.0766 26.2441C35.8526 25.4388 35.4526 24.8068 34.8766 24.3481C34.3059 23.8895 33.5646 23.6601 32.6526 23.6601C31.8366 23.6601 31.1566 23.8441 30.6126 24.2121C30.0686 24.5801 29.6579 25.0948 29.3806 25.7561C29.1086 26.4175 28.9726 27.1881 28.9726 28.0681C28.9673 28.9481 29.1006 29.7188 29.3726 30.3801C29.6499 31.0415 30.0606 31.5561 30.6046 31.9241C31.1539 32.2921 31.8366 32.4761 32.6526 32.4761C33.5646 32.4761 34.3059 32.2468 34.8766 31.7881C35.4526 31.3241 35.8526 30.6921 36.0766 29.8921L37.7726 30.3481C37.4313 31.4841 36.8233 32.3881 35.9486 33.0601C35.0793 33.7321 33.9806 34.0681 32.6526 34.0681ZM39.5321 33.8281V25.1881H41.0201V27.2841L40.8121 27.0121C40.9188 26.7348 41.0574 26.4815 41.2281 26.2521C41.3988 26.0175 41.5961 25.8255 41.8201 25.6761C42.0388 25.5161 42.2814 25.3935 42.5481 25.3081C42.8201 25.2175 43.0974 25.1641 43.3801 25.1481C43.6628 25.1268 43.9348 25.1401 44.1961 25.1881V26.7561C43.9134 26.6815 43.5988 26.6601 43.2521 26.6921C42.9108 26.7241 42.5961 26.8335 42.3081 27.0201C42.0361 27.1961 41.8201 27.4095 41.6601 27.6601C41.5054 27.9108 41.3934 28.1908 41.3241 28.5001C41.2548 28.8041 41.2201 29.1268 41.2201 29.4681V33.8281H39.5321ZM49.3954 34.0681C48.5367 34.0681 47.782 33.8815 47.1314 33.5081C46.486 33.1295 45.982 32.6041 45.6194 31.9321C45.262 31.2548 45.0834 30.4708 45.0834 29.5801C45.0834 28.6361 45.2594 27.8175 45.6114 27.1241C45.9687 26.4308 46.4647 25.8948 47.0994 25.5161C47.734 25.1375 48.4727 24.9481 49.3154 24.9481C50.1954 24.9481 50.9447 25.1535 51.5634 25.5641C52.182 25.9695 52.6434 26.5481 52.9474 27.3001C53.2567 28.0521 53.3794 28.9455 53.3154 29.9801H51.6434V29.3721C51.6327 28.3695 51.4407 27.6281 51.0674 27.1481C50.6994 26.6681 50.1367 26.4281 49.3794 26.4281C48.542 26.4281 47.9127 26.6921 47.4914 27.2201C47.07 27.7481 46.8594 28.5108 46.8594 29.5081C46.8594 30.4575 47.07 31.1935 47.4914 31.7161C47.9127 32.2335 48.5207 32.4921 49.3154 32.4921C49.838 32.4921 50.2887 32.3748 50.6674 32.1401C51.0514 31.9001 51.35 31.5588 51.5634 31.1161L53.2034 31.6361C52.8674 32.4095 52.358 33.0095 51.6754 33.4361C50.9927 33.8575 50.2327 34.0681 49.3954 34.0681ZM46.3154 29.9801V28.6761H52.4834V29.9801H46.3154ZM57.394 34.0681C56.754 34.0681 56.218 33.9508 55.786 33.7161C55.354 33.4761 55.026 33.1615 54.802 32.7721C54.5833 32.3775 54.474 31.9455 54.474 31.4761C54.474 31.0388 54.5513 30.6548 54.706 30.3241C54.8607 29.9935 55.09 29.7135 55.394 29.4841C55.698 29.2495 56.0713 29.0601 56.514 28.9161C56.898 28.8041 57.3327 28.7055 57.818 28.6201C58.3033 28.5348 58.8127 28.4548 59.346 28.3801C59.8847 28.3055 60.418 28.2308 60.946 28.1561L60.338 28.4921C60.3487 27.8148 60.2047 27.3135 59.906 26.9881C59.6127 26.6575 59.106 26.4921 58.386 26.4921C57.9327 26.4921 57.5167 26.5988 57.138 26.8121C56.7593 27.0201 56.4953 27.3668 56.346 27.8521L54.786 27.3721C54.9993 26.6308 55.4047 26.0415 56.002 25.6041C56.6047 25.1668 57.4047 24.9481 58.402 24.9481C59.1753 24.9481 59.8473 25.0815 60.418 25.3481C60.994 25.6095 61.4153 26.0255 61.682 26.5961C61.8207 26.8788 61.906 27.1775 61.938 27.4921C61.97 27.8068 61.986 28.1455 61.986 28.5081V33.8281H60.506V31.8521L60.794 32.1081C60.4367 32.7695 59.9807 33.2628 59.426 33.5881C58.8767 33.9081 58.1993 34.0681 57.394 34.0681ZM57.69 32.7001C58.1647 32.7001 58.5727 32.6175 58.914 32.4521C59.2553 32.2815 59.53 32.0655 59.738 31.8041C59.946 31.5428 60.082 31.2708 60.146 30.9881C60.2367 30.7321 60.2873 30.4441 60.298 30.1241C60.314 29.8041 60.322 29.5481 60.322 29.3561L60.866 29.5561C60.338 29.6361 59.858 29.7081 59.426 29.7721C58.994 29.8361 58.602 29.9001 58.25 29.9641C57.9033 30.0228 57.594 30.0948 57.322 30.1801C57.0927 30.2601 56.8873 30.3561 56.706 30.4681C56.53 30.5801 56.3887 30.7161 56.282 30.8761C56.1807 31.0361 56.13 31.2308 56.13 31.4601C56.13 31.6841 56.186 31.8921 56.298 32.0841C56.41 32.2708 56.5807 32.4201 56.81 32.5321C57.0393 32.6441 57.3327 32.7001 57.69 32.7001ZM69.0074 33.8281C68.4634 33.9348 67.93 33.9801 67.4074 33.9641C66.8847 33.9481 66.418 33.8468 66.0074 33.6601C65.5967 33.4735 65.2874 33.1801 65.0794 32.7801C64.8927 32.4228 64.7914 32.0601 64.7754 31.6921C64.7647 31.3188 64.7594 30.8975 64.7594 30.4281V22.7881H66.4394V30.3481C66.4394 30.6948 66.442 30.9961 66.4474 31.2521C66.458 31.5081 66.514 31.7241 66.6154 31.9001C66.8074 32.2308 67.1114 32.4201 67.5274 32.4681C67.9487 32.5108 68.442 32.4921 69.0074 32.4121V33.8281ZM63.1034 26.5321V25.1881H69.0074V26.5321H63.1034ZM74.2547 34.0681C73.3961 34.0681 72.6414 33.8815 71.9907 33.5081C71.3454 33.1295 70.8414 32.6041 70.4787 31.9321C70.1214 31.2548 69.9427 30.4708 69.9427 29.5801C69.9427 28.6361 70.1187 27.8175 70.4707 27.1241C70.8281 26.4308 71.3241 25.8948 71.9587 25.5161C72.5934 25.1375 73.3321 24.9481 74.1747 24.9481C75.0547 24.9481 75.8041 25.1535 76.4227 25.5641C77.0414 25.9695 77.5027 26.5481 77.8067 27.3001C78.1161 28.0521 78.2387 28.9455 78.1747 29.9801H76.5027V29.3721C76.4921 28.3695 76.3001 27.6281 75.9267 27.1481C75.5587 26.6681 74.9961 26.4281 74.2387 26.4281C73.4014 26.4281 72.7721 26.6921 72.3507 27.2201C71.9294 27.7481 71.7187 28.5108 71.7187 29.5081C71.7187 30.4575 71.9294 31.1935 72.3507 31.7161C72.7721 32.2335 73.3801 32.4921 74.1747 32.4921C74.6974 32.4921 75.1481 32.3748 75.5267 32.1401C75.9107 31.9001 76.2094 31.5588 76.4227 31.1161L78.0627 31.6361C77.7267 32.4095 77.2174 33.0095 76.5347 33.4361C75.8521 33.8575 75.0921 34.0681 74.2547 34.0681ZM71.1747 29.9801V28.6761H77.3427V29.9801H71.1747ZM85.6127 34.0681C84.9727 34.0681 84.4367 33.9508 84.0047 33.7161C83.5727 33.4761 83.2447 33.1615 83.0207 32.7721C82.8021 32.3775 82.6927 31.9455 82.6927 31.4761C82.6927 31.0388 82.7701 30.6548 82.9247 30.3241C83.0794 29.9935 83.3087 29.7135 83.6127 29.4841C83.9167 29.2495 84.2901 29.0601 84.7327 28.9161C85.1167 28.8041 85.5514 28.7055 86.0367 28.6201C86.5221 28.5348 87.0314 28.4548 87.5647 28.3801C88.1034 28.3055 88.6367 28.2308 89.1647 28.1561L88.5567 28.4921C88.5674 27.8148 88.4234 27.3135 88.1247 26.9881C87.8314 26.6575 87.3247 26.4921 86.6047 26.4921C86.1514 26.4921 85.7354 26.5988 85.3567 26.8121C84.9781 27.0201 84.7141 27.3668 84.5647 27.8521L83.0047 27.3721C83.2181 26.6308 83.6234 26.0415 84.2207 25.6041C84.8234 25.1668 85.6234 24.9481 86.6207 24.9481C87.3941 24.9481 88.0661 25.0815 88.6367 25.3481C89.2127 25.6095 89.6341 26.0255 89.9007 26.5961C90.0394 26.8788 90.1247 27.1775 90.1567 27.4921C90.1887 27.8068 90.2047 28.1455 90.2047 28.5081V33.8281H88.7247V31.8521L89.0127 32.1081C88.6554 32.7695 88.1994 33.2628 87.6447 33.5881C87.0954 33.9081 86.4181 34.0681 85.6127 34.0681ZM85.9087 32.7001C86.3834 32.7001 86.7914 32.6175 87.1327 32.4521C87.4741 32.2815 87.7487 32.0655 87.9567 31.8041C88.1647 31.5428 88.3007 31.2708 88.3647 30.9881C88.4554 30.7321 88.5061 30.4441 88.5167 30.1241C88.5327 29.8041 88.5407 29.5481 88.5407 29.3561L89.0847 29.5561C88.5567 29.6361 88.0767 29.7081 87.6447 29.7721C87.2127 29.8361 86.8207 29.9001 86.4687 29.9641C86.1221 30.0228 85.8127 30.0948 85.5407 30.1801C85.3114 30.2601 85.1061 30.3561 84.9247 30.4681C84.7487 30.5801 84.6074 30.7161 84.5007 30.8761C84.3994 31.0361 84.3487 31.2308 84.3487 31.4601C84.3487 31.6841 84.4047 31.8921 84.5167 32.0841C84.6287 32.2708 84.7994 32.4201 85.0287 32.5321C85.2581 32.6441 85.5514 32.7001 85.9087 32.7001ZM95.7141 34.0681C94.9088 34.0681 94.2128 33.8681 93.6261 33.4681C93.0448 33.0681 92.5941 32.5241 92.2741 31.8361C91.9594 31.1428 91.8021 30.3641 91.8021 29.5001C91.8021 28.6308 91.9621 27.8548 92.2821 27.1721C92.6021 26.4841 93.0554 25.9428 93.6421 25.5481C94.2341 25.1481 94.9354 24.9481 95.7461 24.9481C96.5621 24.9481 97.2474 25.1481 97.8021 25.5481C98.3621 25.9428 98.7834 26.4841 99.0661 27.1721C99.3541 27.8601 99.4981 28.6361 99.4981 29.5001C99.4981 30.3641 99.3541 31.1401 99.0661 31.8281C98.7781 32.5161 98.3541 33.0628 97.7941 33.4681C97.2341 33.8681 96.5408 34.0681 95.7141 34.0681ZM95.9461 32.5561C96.4954 32.5561 96.9434 32.4255 97.2901 32.1641C97.6368 31.9028 97.8901 31.5428 98.0501 31.0841C98.2101 30.6255 98.2901 30.0975 98.2901 29.5001C98.2901 28.9028 98.2074 28.3748 98.0421 27.9161C97.8821 27.4575 97.6314 27.1001 97.2901 26.8441C96.9541 26.5881 96.5248 26.4601 96.0021 26.4601C95.4474 26.4601 94.9914 26.5961 94.6341 26.8681C94.2768 27.1401 94.0101 27.5055 93.8341 27.9641C93.6634 28.4228 93.5781 28.9348 93.5781 29.5001C93.5781 30.0708 93.6634 30.5881 93.8341 31.0521C94.0101 31.5108 94.2714 31.8761 94.6181 32.1481C94.9701 32.4201 95.4128 32.5561 95.9461 32.5561ZM98.2901 33.8281V27.6121H98.0981V22.3081H99.7781V33.8281H98.2901ZM105.38 23.7721V22.1481H107.052V23.7721H105.38ZM105.38 33.8281V25.1881H107.052V33.8281H105.38ZM115.518 33.8281V29.5801C115.518 29.2441 115.489 28.9001 115.43 28.5481C115.377 28.1908 115.27 27.8601 115.11 27.5561C114.955 27.2521 114.734 27.0068 114.446 26.8201C114.163 26.6335 113.793 26.5401 113.334 26.5401C113.035 26.5401 112.753 26.5908 112.486 26.6921C112.219 26.7881 111.985 26.9455 111.782 27.1641C111.585 27.3828 111.427 27.6708 111.31 28.0281C111.198 28.3855 111.142 28.8201 111.142 29.3321L110.102 28.9401C110.102 28.1561 110.249 27.4655 110.542 26.8681C110.835 26.2655 111.257 25.7961 111.806 25.4601C112.355 25.1241 113.019 24.9561 113.798 24.9561C114.395 24.9561 114.897 25.0521 115.302 25.2441C115.707 25.4361 116.035 25.6895 116.286 26.0041C116.542 26.3135 116.737 26.6521 116.87 27.0201C117.003 27.3881 117.094 27.7481 117.142 28.1001C117.19 28.4521 117.214 28.7615 117.214 29.0281V33.8281H115.518ZM109.446 33.8281V25.1881H110.942V27.6841H111.142V33.8281H109.446ZM124.509 33.8281V24.1481L122.341 25.4681V23.6041L124.509 22.3081H126.213V33.8281H124.509ZM136.15 34.0681C135.265 34.0681 134.513 33.8708 133.894 33.4761C133.275 33.0815 132.801 32.5401 132.47 31.8521C132.145 31.1641 131.979 30.3828 131.974 29.5081C131.979 28.6175 132.15 27.8308 132.486 27.1481C132.822 26.4601 133.302 25.9215 133.926 25.5321C134.55 25.1428 135.299 24.9481 136.174 24.9481C137.118 24.9481 137.923 25.1828 138.59 25.6521C139.262 26.1215 139.705 26.7641 139.918 27.5801L138.254 28.0601C138.089 27.5748 137.817 27.1988 137.438 26.9321C137.065 26.6601 136.635 26.5241 136.15 26.5241C135.601 26.5241 135.15 26.6548 134.798 26.9161C134.446 27.1721 134.185 27.5241 134.014 27.9721C133.843 28.4201 133.755 28.9321 133.75 29.5081C133.755 30.3988 133.958 31.1188 134.358 31.6681C134.763 32.2175 135.361 32.4921 136.15 32.4921C136.689 32.4921 137.123 32.3695 137.454 32.1241C137.79 31.8735 138.046 31.5161 138.222 31.0521L139.918 31.4521C139.635 32.2948 139.169 32.9428 138.518 33.3961C137.867 33.8441 137.078 34.0681 136.15 34.0681ZM141.473 33.8281V22.0681H143.145V33.8281H141.473ZM145.708 23.7721V22.1481H147.38V23.7721H145.708ZM145.708 33.8281V25.1881H147.38V33.8281H145.708ZM153.478 34.0681C152.593 34.0681 151.841 33.8708 151.222 33.4761C150.603 33.0815 150.129 32.5401 149.798 31.8521C149.473 31.1641 149.307 30.3828 149.302 29.5081C149.307 28.6175 149.478 27.8308 149.814 27.1481C150.15 26.4601 150.63 25.9215 151.254 25.5321C151.878 25.1428 152.627 24.9481 153.502 24.9481C154.446 24.9481 155.251 25.1828 155.918 25.6521C156.59 26.1215 157.033 26.7641 157.246 27.5801L155.582 28.0601C155.417 27.5748 155.145 27.1988 154.766 26.9321C154.393 26.6601 153.963 26.5241 153.478 26.5241C152.929 26.5241 152.478 26.6548 152.126 26.9161C151.774 27.1721 151.513 27.5241 151.342 27.9721C151.171 28.4201 151.083 28.9321 151.078 29.5081C151.083 30.3988 151.286 31.1188 151.686 31.6681C152.091 32.2175 152.689 32.4921 153.478 32.4921C154.017 32.4921 154.451 32.3695 154.782 32.1241C155.118 31.8735 155.374 31.5161 155.55 31.0521L157.246 31.4521C156.963 32.2948 156.497 32.9428 155.846 33.3961C155.195 33.8441 154.406 34.0681 153.478 34.0681ZM158.868 33.8281L158.876 22.3081H160.572V29.3481L163.964 25.1881H166.092L162.508 29.5081L166.46 33.8281H164.188L160.572 29.6681V33.8281H158.868Z" fill="black"/>
<path d="M190.944 28.875C191.648 28.1708 192.785 28.1002 193.573 28.7432L193.575 28.7441L214.797 46.1074C215.195 46.4334 215.447 46.9006 215.505 47.4062L215.518 47.626L215.508 47.8262C215.409 48.8172 214.572 49.5916 213.555 49.5928H201.102L193.967 60.293L193.966 60.292C193.602 60.8377 192.992 61.1654 192.336 61.167L192.337 61.168L192.334 61.167L192.332 61.168V61.167C192.14 61.1675 191.948 61.1405 191.764 61.085H191.762C190.933 60.8337 190.366 60.0684 190.367 59.2021V30.2637C190.368 29.8117 190.524 29.3735 190.81 29.0234L190.944 28.875Z" fill="#2196F3" stroke="white" stroke-width="2"/>
<path d="M192.334 23.5097C191.801 23.5097 191.369 23.0778 191.369 22.545V14.8279C191.369 14.2952 191.801 13.8633 192.334 13.8633C192.867 13.8633 193.298 14.2952 193.298 14.8279V22.545C193.298 23.0778 192.867 23.5097 192.334 23.5097Z" fill="#455A64"/>
<path d="M184.617 31.2262H176.9C176.367 31.2262 175.936 30.7943 175.936 30.2615C175.936 29.7288 176.367 29.2969 176.9 29.2969H184.617C185.15 29.2969 185.582 29.7288 185.582 30.2615C185.582 30.7943 185.15 31.2262 184.617 31.2262Z" fill="#455A64"/>
<path d="M207.768 31.2262H200.051C199.518 31.2262 199.086 30.7943 199.086 30.2615C199.086 29.7288 199.518 29.2969 200.051 29.2969H207.768C208.3 29.2969 208.732 29.7288 208.732 30.2615C208.732 30.7943 208.3 31.2262 207.768 31.2262Z" fill="#455A64"/>
<path d="M186.876 25.7685C186.62 25.7689 186.374 25.6676 186.193 25.4868L180.735 20.0347C180.356 19.6559 180.356 19.0419 180.735 18.663C181.114 18.2842 181.728 18.2842 182.107 18.663L187.557 24.1209C187.934 24.4972 187.935 25.1079 187.559 25.4851C187.378 25.667 187.131 25.769 186.874 25.7686L186.876 25.7685Z" fill="#455A64"/>
<path d="M181.421 42.138C180.889 42.139 180.456 41.7078 180.455 41.1751C180.455 40.9182 180.557 40.6718 180.739 40.4904L186.196 35.0325C186.58 34.6624 187.19 34.673 187.56 35.0562C187.921 35.43 187.921 36.0226 187.56 36.3964L182.11 41.8562C181.928 42.0385 181.679 42.14 181.421 42.138Z" fill="#455A64"/>
<path d="M197.789 25.7709C197.256 25.7719 196.823 25.3407 196.822 24.8079C196.822 24.5511 196.924 24.3047 197.106 24.1232L202.558 18.6653C202.941 18.2952 203.552 18.3058 203.922 18.689C204.283 19.0629 204.283 19.6555 203.922 20.0293L198.472 25.4872C198.291 25.6688 198.045 25.7709 197.789 25.7709Z" fill="#455A64"/>
</svg>
