<svg width="110" height="124" viewBox="0 0 110 124" fill="none" xmlns="http://www.w3.org/2000/svg">
<g clip-path="url(#clip0_4184_724)">
<path d="M110 4.82246V78.8926C110 79.5261 109.875 80.1533 109.632 80.7386C109.39 81.3238 109.034 81.8555 108.586 82.3034C108.138 82.7512 107.606 83.1064 107.02 83.3486C106.435 83.5909 105.807 83.7153 105.173 83.7151H4.82477C3.54517 83.7151 2.318 83.207 1.41319 82.3026C0.508372 81.3982 0 80.1716 0 78.8926V4.82246C0 3.54346 0.508372 2.31687 1.41319 1.41248C2.318 0.508083 3.54517 4.72268e-07 4.82477 4.72268e-07H105.173C105.807 -0.000279828 106.435 0.124215 107.02 0.366443C107.606 0.608671 108.138 0.963857 108.586 1.41169C109.034 1.85953 109.39 2.39127 109.632 2.9765C109.875 3.56173 110 4.18899 110 4.82246Z" fill="#CDE8F9"/>
<path d="M80.236 41.8563C80.2381 46.8457 78.7599 51.7236 75.9884 55.8733C73.2169 60.023 69.2765 63.258 64.6655 65.1692C60.0545 67.0804 54.9801 67.5819 50.0839 66.6105C45.1877 65.639 40.6896 63.2382 37.1586 59.7115C33.6276 56.1848 31.2222 51.6907 30.2465 46.7975C29.2709 41.9044 29.7689 36.8319 31.6775 32.2216C33.586 27.6113 36.8195 23.6703 40.969 20.8969C45.1185 18.1235 49.9976 16.6423 54.9894 16.6406C61.6817 16.6412 68.1001 19.2974 72.8341 24.0256C77.5681 28.7538 80.2303 35.1671 80.236 41.8563Z" fill="white"/>
<path d="M65.8054 44.3977L53.2845 54.5036C52.8052 54.8907 52.2262 55.1343 51.6142 55.2062C51.0023 55.2782 50.3825 55.1755 49.8264 54.9101C49.2704 54.6447 48.8009 54.2274 48.4721 53.7065C48.1434 53.1856 47.9689 52.5824 47.9688 51.9665V31.7504C47.9689 31.1345 48.1434 30.5312 48.4721 30.0103C48.8009 29.4894 49.2704 29.0721 49.8264 28.8067C50.3825 28.5413 51.0023 28.4387 51.6142 28.5106C52.2262 28.5826 52.8052 28.8261 53.2845 29.2132L65.8054 39.3192C66.184 39.6254 66.4892 40.0123 66.6989 40.4517C66.9086 40.891 67.0174 41.3716 67.0174 41.8584C67.0174 42.3452 66.9086 42.8258 66.6989 43.2652C66.4892 43.7045 66.184 44.0914 65.8054 44.3977Z" fill="#CDE8F9"/>
<path d="M110 101.055C110 102.244 109.527 103.384 108.686 104.224C107.846 105.064 106.705 105.536 105.516 105.536H4.48903C3.30002 105.536 2.15973 105.064 1.31898 104.224C0.478218 103.384 0.00585938 102.244 0.00585938 101.055C0.00585938 99.8669 0.478218 98.7271 1.31898 97.8867C2.15973 97.0464 3.30002 96.5742 4.48903 96.5742H105.508C106.097 96.5731 106.681 96.6882 107.226 96.9129C107.771 97.1376 108.266 97.4675 108.683 97.8837C109.101 98.2999 109.432 98.7943 109.657 99.3385C109.883 99.8828 110 100.466 110 101.055Z" fill="#CDE8F9"/>
<path d="M74.179 119.508C74.179 120.697 73.7066 121.837 72.8659 122.677C72.0251 123.517 70.8848 123.99 69.6958 123.99H4.48903C3.30002 123.99 2.15973 123.517 1.31898 122.677C0.478218 121.837 0.00585938 120.697 0.00585938 119.508C0.00585938 118.32 0.478218 117.18 1.31898 116.34C2.15973 115.499 3.30002 115.027 4.48903 115.027H69.6894C70.2786 115.027 70.8623 115.142 71.4069 115.367C71.9516 115.591 72.4466 115.921 72.8636 116.338C73.2806 116.754 73.6114 117.248 73.8371 117.792C74.0628 118.336 74.179 118.919 74.179 119.508Z" fill="#CDE8F9"/>
</g>
<defs>
<clipPath id="clip0_4184_724">
<rect width="110" height="124" fill="white"/>
</clipPath>
</defs>
</svg>
