<svg width="58" height="58" viewBox="0 0 58 58" fill="none" xmlns="http://www.w3.org/2000/svg">
<circle cx="28.6963" cy="28.6963" r="23.6338" fill="#F58C28"/>
<circle cx="28.6963" cy="28.6963" r="28.1963" stroke="#FAB473"/>
<path d="M28.6982 16.375C24.3641 16.375 17.0273 17.2399 17.0273 20.4806V22.6277C17.0273 23.9874 17.6697 25.2938 18.7463 26.1224L25.5507 31.3663C25.7418 31.5139 25.8543 31.7413 25.8543 31.9833V37.1944C25.8543 37.5827 26.0466 37.9444 26.3684 38.1609L30.439 40.902C30.9083 41.2177 31.5398 40.8814 31.5398 40.3165V31.9833C31.5398 31.7414 31.6523 31.514 31.8434 31.3664L38.649 26.1224C39.7256 25.2926 40.368 23.9874 40.368 22.6278V20.4806C40.368 17.2399 33.0324 16.375 28.6982 16.375ZM28.6982 18.6286C34.4633 18.6286 37.5576 19.8709 38.0719 20.4793C37.5566 21.0878 34.4624 22.3301 28.6982 22.3301C22.934 22.3301 19.8388 21.0878 19.3235 20.4793C19.8377 19.8709 22.9331 18.6286 28.6982 18.6286Z" fill="white"/>
</svg>
