<svg width="25" height="13" viewBox="0 0 25 13" fill="none" xmlns="http://www.w3.org/2000/svg">
<path d="M11.0654 12.2949H6.14746C4.44666 12.2949 2.99709 11.6953 1.79875 10.4962C0.600403 9.29701 0.000820501 7.84744 8.39244e-07 6.14746C-0.000818822 4.44748 0.598764 2.99791 1.79875 1.79875C2.99873 0.599583 4.4483 0 6.14746 0H11.0654V2.45898H6.14746C5.12288 2.45898 4.25199 2.81759 3.53479 3.53479C2.81759 4.25199 2.45899 5.12288 2.45899 6.14746C2.45899 7.17204 2.81759 8.04293 3.53479 8.76013C4.25199 9.47733 5.12288 9.83594 6.14746 9.83594H11.0654V12.2949ZM7.37695 7.37695V4.91797H17.2129V7.37695H7.37695ZM13.5244 12.2949V9.83594H18.4424C19.467 9.83594 20.3378 9.47733 21.0551 8.76013C21.7723 8.04293 22.1309 7.17204 22.1309 6.14746C22.1309 5.12288 21.7723 4.25199 21.0551 3.53479C20.3378 2.81759 19.467 2.45898 18.4424 2.45898H13.5244V0H18.4424C20.1432 0 21.5932 0.599583 22.7923 1.79875C23.9915 2.99791 24.5907 4.44748 24.5898 6.14746C24.589 7.84744 23.9894 9.29742 22.7911 10.4974C21.5928 11.6974 20.1432 12.2966 18.4424 12.2949H13.5244Z" fill="white"/>
</svg>
