<svg width="139" height="80" viewBox="0 0 139 80" fill="none" xmlns="http://www.w3.org/2000/svg">
<path d="M139 0.00716928V38.5582L138.731 38.8088C138.591 38.5256 138.423 38.2569 138.23 38.0067C136.744 36.4274 135.215 34.8875 133.761 33.2796C133.464 32.8847 133.306 32.4022 133.313 31.908C133.284 25.4011 133.313 18.8941 133.313 12.3872V11.2376H130.473C132.031 10.1454 133.12 8.85259 133.12 6.88296C133.126 6.27451 133.001 5.6719 132.754 5.11586C132.506 4.55983 132.143 4.06333 131.687 3.65993C131.19 3.19599 130.601 2.84064 129.958 2.61646C129.316 2.39228 128.634 2.30416 127.956 2.35771C127.278 2.41126 126.618 2.60531 126.019 2.92751C125.419 3.24972 124.894 3.69305 124.475 4.22933C122.734 6.48187 123.447 9.17131 126.445 11.1732H123.436V19.5208H123.3C123.164 18.7688 123.06 18.0096 122.885 17.2647C122.04 13.6477 119.536 11.4238 115.841 10.9977C115.399 10.9027 114.946 10.869 114.494 10.8974C112.987 11.1588 112.077 10.3674 111.139 9.33246C108.546 6.46754 105.857 3.71365 103.206 0.909613C102.97 0.658933 102.745 0.390345 102.404 0L139 0.00716928Z" fill="black"/>
<path d="M0 31.7675C0.50136 30.0987 0.938261 28.5982 1.40023 27.1121C3.42954 20.5562 5.45886 13.9967 7.48817 7.43368C7.66365 6.87144 7.86778 6.60285 8.52671 6.61359C11.3594 6.65656 14.1921 6.63508 17.0248 6.61359C17.4402 6.61359 17.741 6.6315 17.8842 7.15076C20.1786 15.0078 22.4908 22.8601 24.8209 30.7075C24.914 31.0191 24.9642 31.3414 25.0465 31.7138H17.2754C16.9173 30.2133 16.5377 28.7272 16.2011 27.2267C16.0937 26.7181 15.8895 26.5355 15.3631 26.5427C13.4532 26.5689 11.5552 26.5689 9.66909 26.5427C9.17489 26.5427 8.99942 26.7217 8.89914 27.1909C8.61743 28.5159 8.29751 29.829 7.9394 31.1301C7.87136 31.3736 7.55621 31.721 7.35209 31.7246C4.95988 31.7819 2.54977 31.7675 0 31.7675ZM12.6952 13.2888L12.4516 13.2602C11.6566 16.0893 10.858 18.9148 10.0451 21.7941H14.962C14.1957 18.9112 13.4436 16.1 12.6952 13.2888Z" fill="black"/>
<path d="M94.5102 31.7135C94.3204 30.7896 94.1306 29.8549 93.9229 28.8307C93.8018 28.9219 93.6902 29.0251 93.5898 29.1387C91.8279 31.624 89.339 32.4369 86.4598 32.0036C83.5125 31.5595 81.7398 29.6293 81.0522 26.8432C80.0832 23.171 80.3513 19.2819 81.815 15.7775C82.1258 14.942 82.6554 14.2053 83.3484 13.6446C84.0414 13.0839 84.8723 12.7198 85.7543 12.5902C88.2038 12.1283 90.6425 11.874 93.1923 12.3539V6.39844H100.426V31.7135H94.5102ZM93.2102 26.1699V16.9377C92.0141 16.9377 90.9398 16.9377 89.8619 16.9377C89.5439 16.9065 89.2261 16.9982 88.9737 17.1941C88.7213 17.3899 88.5534 17.6749 88.5046 17.9906C87.9314 20.0554 87.825 22.2218 88.193 24.3328C88.4437 25.7044 89.2996 26.4206 90.7178 26.4349C91.553 26.3952 92.3853 26.3067 93.2102 26.1699Z" fill="black"/>
<path d="M58.4004 12.5234H64.2448L65.0148 15.46C66.0175 14.7043 66.945 13.8556 68.005 13.2325C70.3148 11.886 72.7751 11.7392 75.3177 12.5807C76.7502 13.0642 77.5774 13.9917 77.6634 15.5352C77.7207 16.6095 77.846 17.6839 77.8532 18.7761C77.8818 22.8407 77.8711 26.9053 77.8711 30.9735C77.8711 31.2063 77.846 31.439 77.8317 31.7219H70.6193V30.7156C70.6193 26.953 70.6193 23.1893 70.6193 19.4243C70.6193 18.3499 70.3901 18.0241 69.33 18.0133C68.3126 18.0401 67.2981 18.1346 66.2932 18.2962C65.7202 18.3714 65.577 18.7475 65.577 19.324C65.6021 23.1164 65.577 26.9125 65.577 30.7049V31.7255H58.4147L58.4004 12.5234Z" fill="black"/>
<path d="M122.321 23.6541H110.621C110.514 25.3086 111.223 26.3436 112.68 26.4976C114.237 26.6236 115.799 26.6654 117.361 26.6229C118.532 26.6229 119.699 26.5119 120.967 26.4474C121.164 27.7975 121.39 29.0903 121.515 30.3867C121.515 30.5908 121.135 30.9489 120.86 31.0564C117.73 32.2704 114.467 32.4172 111.169 32.1486C109.417 32.018 107.739 31.3879 106.334 30.333C104.257 28.7895 103.437 26.6265 103.219 24.1698C102.971 21.5223 103.301 18.8525 104.186 16.345C104.402 15.6238 104.788 14.9652 105.312 14.4248C105.837 13.8844 106.483 13.478 107.197 13.2402C110.245 12.1658 113.343 11.7862 116.508 12.4237C119.073 12.9358 120.849 14.4434 121.404 17.0219C121.859 19.1132 122.002 21.2619 122.321 23.6541ZM115.488 20.3165C115.409 19.6397 115.391 19.0989 115.277 18.5797C114.893 16.8428 112.533 16.012 111.105 17.1078C110.892 17.2718 110.742 17.5028 110.678 17.7632C110.542 18.6047 110.471 19.457 110.37 20.3165H115.488Z" fill="black"/>
<path d="M56.0556 23.6401H44.4849C44.2915 25.2731 44.9863 26.3403 46.4617 26.4835C48.1914 26.6483 49.9426 26.6053 51.683 26.6053C52.6965 26.6053 53.7099 26.5086 54.727 26.4513C54.9454 27.7942 55.1245 29.0405 55.3608 30.2724C55.4754 30.8525 55.0743 30.9277 54.7234 31.0602C52.4932 31.9098 50.1188 32.3161 47.733 32.2563C45.9638 32.2496 44.2033 32.0087 42.4974 31.5401C39.3424 30.6018 37.6055 28.2562 37.1256 25.0403C36.6469 22.051 36.9618 18.9884 38.0388 16.1591C38.2668 15.4731 38.652 14.85 39.1637 14.3395C39.6755 13.8289 40.2996 13.4452 40.9861 13.219C43.7413 12.2188 46.6988 11.9053 49.6024 12.3058C52.9113 12.7785 54.838 14.6085 55.4181 17.9318C55.7333 19.7188 55.83 21.5523 56.0556 23.6401ZM44.159 20.3096H49.1977C49.1554 19.6053 49.0608 18.905 48.9148 18.2147C48.5567 17.0257 47.7044 16.596 46.1859 16.7392C44.7535 16.8718 44.5529 17.0759 44.3524 18.5298C44.2736 19.11 44.2271 19.6758 44.159 20.3096Z" fill="black"/>
<path d="M34.0809 31.7432H26.9688V6.45312H34.0809V31.7432Z" fill="black"/>
<path d="M131.913 31.749H124.797V12.5469H131.913V31.749Z" fill="black"/>
<path d="M124.867 6.86817C124.846 5.0776 126.407 3.60933 128.334 3.59858C129.245 3.57744 130.128 3.91904 130.787 4.54827C131.446 5.17751 131.829 6.04287 131.851 6.95411C131.851 8.66948 130.193 10.1771 128.269 10.1771C127.38 10.1886 126.522 9.84665 125.884 9.22628C125.246 8.60591 124.881 7.75783 124.867 6.86817Z" fill="black"/>
<path d="M73.7467 47.5433C74.7874 47.2015 75.7101 46.9219 76.6203 46.5864C76.6914 46.5453 76.7519 46.4882 76.7972 46.4198C76.8424 46.3513 76.8712 46.2733 76.8813 46.1919C76.9 44.5174 76.8813 42.8428 76.8813 41.0783H74.5544V37.6298H131.842V40.9571C131.734 40.9958 131.622 41.0249 131.509 41.0441C129.813 41.1218 129.813 41.1187 129.813 42.7994C129.813 47.8446 129.813 52.8919 129.813 57.9413C129.813 59.3891 129.738 60.8492 130.875 62.0515C127.983 62.4367 125.116 59.9762 125.113 57.233C125.113 54.4287 125.113 51.6244 125.113 48.8201V47.7732C122.428 47.9969 119.831 48.0838 117.498 49.4073C115.432 50.5816 114.662 52.312 115.187 54.6358C115.712 56.9596 116.902 58.951 118.424 60.7591C118.735 61.1288 119.008 61.5358 119.328 61.9614C118.147 62.3404 117.333 62.0981 116.554 61.25C114.509 59.0287 112.841 56.5899 111.813 53.7473C110.489 50.1063 111.971 46.7231 115.488 45.0828C117.408 44.188 119.489 44.1508 121.54 43.9115C122.705 43.7811 123.867 43.6009 125.063 43.4362V41.1342H106.898C107.454 41.6095 107.815 41.9668 108.225 42.2588C108.606 42.5184 108.904 42.8824 109.084 43.3072C109.263 43.7321 109.317 44.1997 109.237 44.654C108.967 46.8815 107.995 48.8263 106.687 50.6034C106.066 51.4515 105.373 52.2716 104.664 53.0638C104.236 53.5485 104.208 53.9151 104.509 54.5302C107.417 60.4671 110.21 66.4505 111.555 72.9839C112.124 75.7488 112.127 75.7489 110.11 77.7837C109.431 78.4922 108.711 79.1613 107.954 79.7875C107.333 71.3405 105.137 63.3532 102.036 55.5399C101.104 56.1612 100.244 56.8074 99.324 57.32C96.7113 58.777 94.4931 58.1495 93.0764 55.5212C91.81 53.2553 91.3624 50.6224 91.8089 48.0652C92.3277 45.0735 95.2263 43.7811 97.6681 45.5799C99.0444 46.5988 100.126 48.0155 101.334 49.255C101.509 49.467 101.672 49.689 101.822 49.9199C102.471 48.8325 103.195 47.9161 103.596 46.8784C104.124 45.5153 104.502 44.0985 104.723 42.6533C104.879 41.6188 104.22 41.0379 103.17 41.0348C98.5939 41.0161 94.0209 41.0348 89.4447 41.0348C89.3385 41.0547 89.2345 41.0848 89.1341 41.1249V42.0134C89.1341 47.0027 89.1341 51.9921 89.1341 56.9783C89.1341 58.746 88.7582 60.5975 90.1313 62.1447L89.9263 62.3497C88.7395 61.8837 87.5155 61.4954 86.3784 60.93C85.0363 60.2589 84.3902 59.1374 84.4057 57.5592C84.4554 52.4239 84.4243 47.2885 84.4243 42.1532V41.0721H81.5351V42.0041C81.5351 47.2896 81.5351 52.5709 81.5351 57.8481C81.5351 59.33 81.5506 60.7995 82.6784 62.1975C80.2893 61.8682 78.4471 60.9952 77.1578 59.153C76.9808 58.8463 76.8906 58.4973 76.8968 58.1433C76.8502 56.1395 76.8347 54.1356 76.8098 52.1287C76.8098 51.7249 76.8098 51.3179 76.8098 50.7245C75.7411 51.0694 74.7719 51.3459 73.8274 51.7124C73.6907 51.7653 73.6472 52.1784 73.6317 52.4301C73.2185 58.7491 66.4087 60.6007 62.4104 58.4291C60.4935 57.3884 59.5615 55.6331 60.2823 53.9399C60.6345 53.1083 61.2486 52.4145 62.0314 51.9641C64.0162 50.9956 66.0556 50.1429 68.1391 49.4104C69.0338 49.0997 69.3818 48.699 69.1332 47.7638C69.0143 47.1368 68.9355 46.5028 68.8971 45.8657C68.5492 46.1484 68.2758 46.3565 68.0304 46.5709C66.8156 47.5868 65.4114 47.7918 64.06 47.0897C62.8423 46.4396 61.7118 45.6379 60.6955 44.7038C59.605 43.7158 59.3969 41.0472 60.2077 39.7331C60.8617 38.618 61.7617 37.667 62.839 36.9526C63.9163 36.2381 65.1425 35.7791 66.4242 35.6105C67.1526 35.5384 67.8851 35.7005 68.515 36.0734C71.6062 37.9157 73.4236 40.5905 73.5696 44.275C73.61 45.3034 73.6752 46.3285 73.7467 47.5433ZM94.5614 52.2654L94.6795 52.312C94.7323 52.7501 94.7665 53.1912 94.8441 53.623C95.1144 55.1205 96.0868 55.5523 97.3046 54.6203C98.1139 53.9422 98.8816 53.216 99.6036 52.4456C99.7036 52.3657 99.7861 52.266 99.8459 52.1528C99.9057 52.0396 99.9415 51.9152 99.9511 51.7876C99.9607 51.6599 99.9439 51.5316 99.9018 51.4107C99.8596 51.2898 99.793 51.1789 99.7061 51.0849C99.0447 50.305 98.301 49.5988 97.4879 48.9786C96.6522 48.3945 95.7855 48.6679 95.3599 49.5999C94.9622 50.4325 94.8007 51.3707 94.5428 52.2654H94.5614ZM68.7138 42.3054C68.5678 41.6219 68.4498 40.9291 68.2665 40.255C68.0676 39.5156 67.5022 39.2857 66.9244 39.7269C66.0247 40.4169 65.1821 41.1785 64.4049 42.0041C63.8239 42.6254 63.9637 43.3399 64.4577 44.0079C65.2841 45.1294 66.011 45.294 67.1294 44.4459C67.844 43.9085 68.9095 43.576 68.7138 42.3054ZM69.1239 53.8001L68.7698 53.4895C67.5271 54.232 66.2564 54.9527 65.0417 55.7325C64.4981 56.0804 64.6006 56.475 65.1474 56.8043C66.1229 57.3883 67.2692 57.2827 67.8937 56.3507C68.4063 55.5678 68.72 54.6545 69.1239 53.8001Z" fill="black"/>
<path d="M11.2975 55.1058V46.1679H9.74414V44.8134H11.2975V43.7136C11.2739 43.1893 11.3358 42.6647 11.4808 42.1603C11.6491 41.7058 11.961 41.3186 12.3693 41.0574C12.9085 40.7483 13.5258 40.6026 14.1463 40.638C14.6943 40.6429 15.2406 40.7012 15.7773 40.812L15.5133 42.3343C15.1751 42.2716 14.832 42.2394 14.488 42.2379C14.2875 42.2171 14.0848 42.2363 13.8918 42.2944C13.6987 42.3526 13.5191 42.4485 13.3634 42.5766C13.1429 42.8034 13.031 43.2259 13.031 43.8472V44.7979H15.0379V46.1679H13.031V55.109L11.2975 55.1058Z" fill="black"/>
<path d="M16.373 55.1051V44.8096H17.945V46.3629C18.2067 45.8073 18.5849 45.3146 19.0541 44.9183C19.3819 44.6892 19.7727 44.5676 20.1725 44.5704C20.8121 44.5851 21.4345 44.78 21.9682 45.1327L21.3655 46.7513C20.9814 46.5106 20.5388 46.3795 20.0855 46.3722C19.7148 46.3689 19.3537 46.4904 19.0603 46.7171C18.7473 46.9579 18.5189 47.2918 18.4079 47.6708C18.2097 48.3318 18.1123 49.0188 18.119 49.7088V55.0989L16.373 55.1051Z" fill="black"/>
<path d="M22.3613 49.9618C22.3613 48.0543 22.8905 46.6418 23.9488 45.7243C24.8503 44.9553 26.0048 44.548 27.1891 44.581C27.8323 44.5583 28.4732 44.6701 29.0707 44.9092C29.6682 45.1484 30.2093 45.5095 30.6593 45.9697C31.5561 46.8996 32.0055 48.1816 32.0076 49.8158C32.0076 51.1392 31.8088 52.183 31.4111 52.9411C31.0235 53.6926 30.4183 54.3097 29.6745 54.7119C28.9132 55.1291 28.0572 55.3431 27.1891 55.3332C26.5418 55.3596 25.8961 55.2496 25.294 55.0104C24.6919 54.7711 24.1468 54.408 23.6941 53.9445C22.8056 53.0291 22.3613 51.7015 22.3613 49.9618ZM24.1539 49.9618C24.1539 51.279 24.4418 52.2659 25.0175 52.9224C25.2873 53.2321 25.6203 53.4804 25.9941 53.6505C26.3679 53.8206 26.7738 53.9087 27.1845 53.9087C27.5951 53.9087 28.0011 53.8206 28.3749 53.6505C28.7486 53.4804 29.0816 53.2321 29.3514 52.9224C29.9251 52.2617 30.213 51.2562 30.215 49.9059C30.215 48.6321 29.9251 47.667 29.3452 47.0104C29.0749 46.7027 28.7421 46.4561 28.3689 46.2872C27.9958 46.1183 27.5909 46.031 27.1814 46.031C26.7718 46.031 26.3669 46.1183 25.9938 46.2872C25.6206 46.4561 25.2878 46.7027 25.0175 47.0104C24.4438 47.6587 24.156 48.6425 24.1539 49.9618Z" fill="black"/>
<path d="M34.0488 55.109V44.8135H35.6022V46.2581C35.9353 45.7344 36.3974 45.3051 36.9441 45.0113C37.4908 44.7176 38.1038 44.5692 38.7244 44.5805C39.3785 44.5561 40.0258 44.7212 40.5884 45.0558C41.0723 45.3686 41.4359 45.8362 41.6198 46.3824C42.4338 45.1811 43.4942 44.5805 44.8011 44.5805C45.8201 44.5805 46.605 44.8632 47.1559 45.4286C47.7068 45.994 47.9813 46.8649 47.9792 48.0413V55.109H46.2457V48.6223C46.269 48.1142 46.2113 47.6055 46.0748 47.1155C45.9582 46.8046 45.739 46.5427 45.4535 46.373C45.1383 46.1819 44.775 46.0849 44.4065 46.0934C44.0723 46.0834 43.7396 46.1422 43.4291 46.2662C43.1186 46.3902 42.8369 46.5767 42.6015 46.8142C42.1231 47.2947 41.8839 48.0651 41.8839 49.1256V55.109H40.141V48.4172C40.184 47.8057 40.034 47.1962 39.7123 46.6744C39.4286 46.2871 38.9636 46.0934 38.3174 46.0934C37.8356 46.0906 37.3627 46.2242 36.9536 46.4787C36.533 46.7439 36.2145 47.1435 36.0495 47.6126C35.8324 48.3087 35.7368 49.037 35.7668 49.7655V55.109H34.0488Z" fill="black"/>
</svg>
