<svg width="46" height="32" viewBox="0 0 46 32" fill="none" xmlns="http://www.w3.org/2000/svg">
<path d="M9.12893 20.5313C12.2798 20.5313 14.834 17.977 14.834 14.8262C14.834 11.6754 12.2798 9.12109 9.12893 9.12109C5.97809 9.12109 3.42383 11.6754 3.42383 14.8262C3.42383 17.977 5.97809 20.5313 9.12893 20.5313Z" fill="#D0E6F9"/>
<path d="M14.3769 22.8203H3.87947C1.59743 22.8203 0 24.6459 0 26.6998V28.5254C0 30.351 1.59743 31.9485 3.42306 31.9485H14.8333C16.6589 31.9485 18.2563 30.351 18.2563 28.5254V26.6998C18.2563 24.6459 16.4307 22.8203 14.3769 22.8203Z" fill="#D0E6F9"/>
<path d="M36.5117 20.5313C39.6626 20.5313 42.2168 17.977 42.2168 14.8262C42.2168 11.6754 39.6626 9.12109 36.5117 9.12109C33.3609 9.12109 30.8066 11.6754 30.8066 14.8262C30.8066 17.977 33.3609 20.5313 36.5117 20.5313Z" fill="#D0E6F9"/>
<path d="M22.8203 11.4102C25.9712 11.4102 28.5254 8.85594 28.5254 5.7051C28.5254 2.55426 25.9712 0 22.8203 0C19.6695 0 17.1152 2.55426 17.1152 5.7051C17.1152 8.85594 19.6695 11.4102 22.8203 11.4102Z" fill="#D0E6F9"/>
<path d="M41.7619 22.8203H31.4927C29.2107 22.8203 27.6133 24.6459 27.6133 26.6998V28.5254C27.6133 30.351 29.2107 31.9485 31.0363 31.9485H42.4465C44.2722 31.9485 45.8696 30.351 45.8696 28.5254V26.6998C45.6414 24.6459 43.8158 22.8203 41.7619 22.8203Z" fill="#D0E6F9"/>
<path d="M28.5276 14.8324C28.5276 14.376 28.5276 14.1478 28.5276 13.6914C28.2994 13.6914 28.0712 13.6914 27.8429 13.6914H17.5738C17.3456 13.6914 17.1174 13.6914 16.8891 13.6914C16.8891 14.1478 16.8891 14.376 16.8891 14.8324C16.8891 17.1145 15.9763 19.1683 14.3789 20.5375C16.2045 20.5375 17.802 21.4503 18.7148 22.8196H26.2455C27.3865 21.4503 28.984 20.7657 30.5814 20.5375C29.4404 19.1683 28.5276 17.1145 28.5276 14.8324Z" fill="#D0E6F9"/>
</svg>
