<svg width="16" height="18" viewBox="0 0 16 18" fill="none" xmlns="http://www.w3.org/2000/svg">
<path d="M4.72017 15.8872C4.90081 16.4908 5.27134 17.0201 5.77673 17.3964C6.28212 17.7727 6.89541 17.9759 7.52551 17.9759C8.1556 17.9759 8.76889 17.7727 9.27428 17.3964C9.77968 17.0201 10.1502 16.4908 10.3308 15.8872H4.72017ZM0 15.051H15.051V12.5425L13.3787 10.034V5.85317C13.3787 5.08452 13.2273 4.3234 12.9331 3.61326C12.639 2.90312 12.2078 2.25787 11.6643 1.71435C11.1208 1.17084 10.4756 0.739696 9.76542 0.445546C9.05528 0.151397 8.29416 0 7.52551 0C6.75686 0 5.99574 0.151397 5.2856 0.445546C4.57546 0.739696 3.93021 1.17084 3.38669 1.71435C2.84317 2.25787 2.41203 2.90312 2.11788 3.61326C1.82373 4.3234 1.67234 5.08452 1.67234 5.85317V10.034L0 12.5425V15.051Z" fill="#2C2C2C"/>
</svg>
