<svg width="30" height="31" viewBox="0 0 30 31" fill="none" xmlns="http://www.w3.org/2000/svg">
<path fill-rule="evenodd" clip-rule="evenodd" d="M22.528 5.37162C20.9273 3.77098 18.8337 2.66327 16.503 2.30022C16.3043 1.29719 15.9717 0 14.8388 0C13.7046 0 13.3733 1.29719 13.1746 2.30022C7.93692 3.11377 3.95126 7.67323 3.95126 13.0608V21.7184C3.87309 21.9383 1.35156 24.6785 1.30652 25.0442C1.27339 25.3092 1.46684 25.5888 1.79015 25.5888H27.8879C28.3119 25.5888 28.5173 25.1064 28.2629 24.7964L25.7268 21.7171V13.0605C25.7268 10.0673 24.5022 7.34443 22.528 5.37162ZM0 12.2816C0.217302 8.82337 1.64701 5.57684 3.98159 3.08063L5.17145 4.18701C3.08188 6.42231 1.81651 9.28832 1.62303 12.3822L0 12.2816ZM25.6961 3.08063C28.0295 5.57697 29.4606 8.82337 29.6777 12.2816L28.0559 12.3836C27.8611 9.28967 26.5971 6.42376 24.5061 4.1884L25.6961 3.08063ZM17.3364 29.8965C15.0998 32.1345 11.3023 30.5139 11.3023 27.3988H18.3754C18.3754 28.3714 17.9777 29.2565 17.3364 29.8965Z" fill="#D0E6F9"/>
</svg>
