<svg width="48" height="48" viewBox="0 0 48 48" fill="none" xmlns="http://www.w3.org/2000/svg">
<circle cx="23.6338" cy="23.6338" r="23.6338" fill="#B99BC3"/>
<path d="M23.6338 24.2939C25.554 24.294 27.3958 25.057 28.7539 26.415C30.112 27.7731 30.8749 29.6149 30.875 31.5352V32.8525C30.8749 33.0268 30.8061 33.1943 30.6826 33.3174C30.5595 33.4412 30.3913 33.5107 30.2168 33.5107H17.0498C16.8754 33.5107 16.708 33.4411 16.585 33.3174C16.4612 33.1943 16.3917 33.0269 16.3916 32.8525V31.5352C16.3917 29.615 17.1547 27.7731 18.5127 26.415C19.8709 25.0569 21.7134 24.2939 23.6338 24.2939ZM14.417 26.9238C15.0509 26.9238 15.6544 27.0515 16.2041 27.2832C15.4708 28.5656 15.0752 30.0287 15.0752 31.5322V32.8486C15.0752 33.075 15.1141 33.2976 15.1885 33.5068H10.4668C10.1035 33.5068 9.80859 33.212 9.80859 32.8486V31.5322C9.80859 28.9871 11.8718 26.9238 14.417 26.9238ZM32.8516 26.9238C35.3966 26.924 37.46 28.9872 37.46 31.5322V32.8486C37.46 33.2119 37.165 33.5066 36.8018 33.5068H32.0801C32.1544 33.2976 32.1934 33.075 32.1934 32.8486V31.5322C32.1934 30.0286 31.7969 28.5657 31.0635 27.2832C31.6132 27.0515 32.2176 26.9238 32.8516 26.9238ZM14.417 19.0205C16.234 19.0205 17.709 20.4955 17.709 22.3125C17.7088 24.1294 16.2339 25.6035 14.417 25.6035C12.6 25.6035 11.1251 24.1294 11.125 22.3125C11.125 20.4955 12.6 19.0205 14.417 19.0205ZM32.8516 19.0205C34.6684 19.0208 36.1426 20.4956 36.1426 22.3125C36.1424 24.1293 34.6683 25.6033 32.8516 25.6035C31.0346 25.6035 29.5597 24.1294 29.5596 22.3125C29.5596 20.4955 31.0345 19.0205 32.8516 19.0205ZM23.6348 13.7578C26.178 13.7578 28.2432 15.823 28.2432 18.3662C28.243 20.9093 26.1779 22.9746 23.6348 22.9746C21.0917 22.9745 19.0265 20.9092 19.0264 18.3662C19.0264 15.8231 21.0917 13.7579 23.6348 13.7578Z" fill="white"/>
</svg>
