<svg width="29" height="25" viewBox="0 0 29 25" fill="none" xmlns="http://www.w3.org/2000/svg">
<path d="M26.3457 10.7686H26.2485V5.96006C26.2485 4.90056 25.3875 4.03823 24.3266 4.03823H23.5563V1.92183C23.5563 0.862331 22.6953 0 21.6345 0H2.69215C1.20804 0 0 1.20804 0 2.69215V21.5372C0 23.0214 1.20804 24.2294 2.69215 24.2294H24.3266C25.3861 24.2294 26.2485 23.3684 26.2485 22.3076V17.499H26.3457C27.4052 17.499 28.2676 16.638 28.2676 15.5772V12.6905C28.2676 11.6297 27.4066 10.7686 26.3457 10.7686ZM2.69214 1.34604H21.6345C21.9513 1.34604 22.2102 1.60501 22.2102 1.92179V4.0382H2.69211C2.60141 4.0382 2.5107 4.02768 2.42263 4.01191C2.41606 4.01191 2.40948 4.00533 2.39897 4.00533C2.31878 3.98825 2.24122 3.96459 2.1663 3.93435C2.1663 3.93435 2.16235 3.93435 2.16235 3.93041C2.08479 3.89623 2.00724 3.85679 1.94019 3.80947C1.86921 3.76215 1.80217 3.70562 1.73776 3.64121C1.67729 3.58074 1.6234 3.5137 1.57607 3.44272C1.48142 3.30469 1.41438 3.14695 1.37758 2.97475C1.37758 2.96818 1.37363 2.96424 1.37363 2.96161C1.35655 2.87353 1.34603 2.78677 1.34603 2.69213C1.34603 1.94812 1.94813 1.34604 2.69214 1.34604ZM4.71126 22.8833V5.38428H6.05733V22.8833H4.71126ZM26.9215 15.5771C26.9215 15.8939 26.6626 16.1529 26.3458 16.1529H19.5181C18.4047 16.1529 17.499 15.2472 17.499 14.1337C17.499 13.0203 18.4047 12.1146 19.5181 12.1146H26.3458C26.6626 12.1146 26.9215 12.3736 26.9215 12.6904V15.5771ZM20.3661 14.1337C20.3661 14.6017 19.9862 14.9816 19.5183 14.9816C19.0503 14.9816 18.6704 14.6017 18.6704 14.1337C18.6704 13.6658 19.0503 13.2859 19.5183 13.2859C19.9862 13.2859 20.3661 13.6658 20.3661 14.1337Z" fill="#D0E6F9"/>
</svg>
