<svg width="48" height="48" viewBox="0 0 48 48" fill="none" xmlns="http://www.w3.org/2000/svg">
<circle cx="23.6338" cy="23.6338" r="23.6338" fill="#5CC4F1"/>
<path fill-rule="evenodd" clip-rule="evenodd" d="M37.3736 23.6294C37.6868 23.6579 37.9047 23.9333 37.8716 24.2417L36.8746 33.1372C36.8413 33.441 36.5612 33.6647 36.2574 33.6362L33.8697 33.3706C33.5945 33.3423 33.3571 33.5318 33.3287 33.8022L33.1011 35.853L29.9683 33.0288C29.8924 32.9624 29.7974 32.9143 29.6929 32.9048L22.5826 32.103C22.4354 32.0888 22.2968 32.0176 22.2066 31.8989C22.1164 31.7803 22.0743 31.6376 22.0933 31.481L22.7242 25.8745L29.0474 24.6118C29.5124 24.5216 29.9162 24.2517 30.1773 23.8579C30.3767 23.5589 30.476 23.2071 30.4712 22.8511L37.3736 23.6294ZM26.4185 11.4351C26.8504 11.3449 27.2587 11.6204 27.3443 12.0523L29.3902 22.2915L29.4195 22.4526C29.4195 22.4573 29.419 22.4622 29.4234 22.4624L29.4761 22.7231C29.5188 22.932 29.4757 23.1412 29.3619 23.312C29.248 23.4923 29.0677 23.6062 28.8589 23.6489L22.232 24.9741L22.1607 24.9878L20.3521 25.3491C20.2479 25.3682 20.1576 25.4198 20.0865 25.4956L16.441 29.3931L15.9087 26.7349C15.8803 26.6068 15.8145 26.4975 15.7007 26.4263C15.6202 26.3694 15.525 26.3453 15.4302 26.3452C15.397 26.3452 15.363 26.3454 15.3345 26.3501L12.4673 26.9243C12.2634 26.9622 12.0502 26.9246 11.8794 26.8062C11.6992 26.6876 11.5852 26.5119 11.5376 26.3032L9.4107 15.6362C9.36809 15.4276 9.41046 15.2142 9.52886 15.0435C9.64279 14.8678 9.82376 14.7493 10.0279 14.7065L26.4185 11.4351ZM26.9791 20.2505L12.899 23.061C12.6382 23.1182 12.463 23.3745 12.5152 23.6401C12.5628 23.8725 12.7718 24.0337 12.9996 24.0337C13.0279 24.0336 13.0612 24.0287 13.0943 24.0239L27.1685 21.2144C27.439 21.1622 27.6101 20.901 27.5533 20.6353C27.5011 20.3742 27.2448 20.1936 26.9791 20.2505ZM26.3853 17.2935L12.3111 20.103C12.0454 20.1599 11.8696 20.4164 11.9263 20.6821C11.969 20.9147 12.1731 21.0766 12.4009 21.0767C12.4389 21.0767 12.4673 21.0716 12.5005 21.0669L26.5806 18.2564C26.8414 18.2039 27.0166 17.9476 26.9644 17.6773C26.912 17.4164 26.651 17.2413 26.3853 17.2935ZM25.7925 14.3403L11.7125 17.1509C11.4515 17.2032 11.2765 17.4594 11.3287 17.7251C11.3809 17.9575 11.5844 18.1185 11.8121 18.1187C11.8453 18.1187 11.8794 18.1192 11.9126 18.105L25.9869 15.2993C26.2479 15.2471 26.4238 14.9909 26.3716 14.7251C26.3147 14.4594 26.0583 14.2836 25.7925 14.3403Z" fill="white"/>
</svg>
