<svg width="37" height="39" viewBox="0 0 37 39" fill="none" xmlns="http://www.w3.org/2000/svg">
<path d="M28.4326 22.7451C28.6788 22.5924 28.99 22.5924 29.2344 22.7451C31.0435 23.8636 33.0837 24.5581 35.2002 24.7754C35.5752 24.811 35.8724 25.1126 35.9014 25.4893L36.1318 28.4873C36.2761 30.3647 35.8179 32.2387 34.8232 33.8359C33.8269 35.4347 32.3487 36.6737 30.6006 37.373L29.124 37.9639C28.9373 38.0386 28.7297 38.0386 28.543 37.9639L27.0664 37.373C25.3181 36.6737 23.8394 35.4349 22.8447 33.8359C21.8501 32.2386 21.3909 30.3645 21.5352 28.4873L21.7656 25.4893C21.7963 25.1126 22.092 24.811 22.4688 24.7754C24.5852 24.5581 26.6234 23.8635 28.4326 22.7451ZM26.2539 0C26.7527 0.00182093 27.1563 0.405544 27.1582 0.904297V21.916C26.5539 22.2521 25.921 22.5375 25.2676 22.7666C24.3187 23.0993 23.3337 23.3218 22.334 23.4287C21.304 23.5274 20.4949 24.352 20.415 25.3838L20.1787 28.3799C19.9513 31.2707 20.9695 34.1188 22.9756 36.21H0.907227C0.406608 36.2083 0.00184526 35.8046 0 35.3057V0.904297C0.00190291 0.40546 0.40665 0.00169683 0.907227 0H26.2539ZM31.001 27.7842C30.7617 27.7876 30.5323 27.8864 30.3643 28.0596L27.9766 30.5244L27.4971 30.0469C27.1423 29.6975 26.572 29.6988 26.2207 30.0518C25.8694 30.4031 25.8681 30.9741 26.2178 31.3271L27.3447 32.4561C27.5144 32.6256 27.7453 32.7206 27.9844 32.7207H27.9912C28.2339 32.719 28.4667 32.6201 28.6348 32.4453V32.4473L31.665 29.3203V29.3184C32.0125 28.9602 32.0035 28.3869 31.6455 28.0391C31.4724 27.8729 31.2419 27.7808 31.001 27.7842ZM13.5791 30.7783C13.0802 30.7784 12.675 31.184 12.6748 31.6846C12.6748 32.1836 13.0801 32.5898 13.5791 32.5898H17.2012C17.7002 32.5898 18.1064 32.1836 18.1064 31.6846C18.1063 31.184 17.7001 30.7783 17.2012 30.7783H13.5791ZM4.52734 26.7051C4.02663 26.7051 3.62207 27.1106 3.62207 27.6113C3.62216 28.1103 4.02669 28.5156 4.52734 28.5156H17.2012C17.7001 28.5156 18.1064 28.1103 18.1064 27.6113C18.1064 27.1106 17.7002 26.7051 17.2012 26.7051H4.52734ZM4.52734 22.6309C4.02675 22.6309 3.62226 23.0366 3.62207 23.5371C3.62207 24.0361 4.02664 24.4424 4.52734 24.4424H17.2012C17.7002 24.4424 18.1064 24.0361 18.1064 23.5371C18.1063 23.0366 17.7001 22.6309 17.2012 22.6309H4.52734ZM4.52734 18.5576C4.02663 18.5576 3.62207 18.9632 3.62207 19.4639C3.62213 19.9628 4.02667 20.3682 4.52734 20.3682H17.2012C17.7002 20.3682 18.1064 19.9628 18.1064 19.4639C18.1064 18.9632 17.7002 18.5576 17.2012 18.5576H4.52734ZM4.52734 14.4834C4.02676 14.4834 3.62227 14.8891 3.62207 15.3896C3.62207 15.8887 4.02664 16.2949 4.52734 16.2949H8.14746C8.64817 16.2949 9.05371 15.8887 9.05371 15.3896C9.05351 14.8891 8.64804 14.4834 8.14746 14.4834H4.52734ZM3.62207 3.62012V10.8633H23.5381V3.62012H3.62207Z" fill="#1079D5"/>
</svg>
