<svg width="58" height="58" viewBox="0 0 58 58" fill="none" xmlns="http://www.w3.org/2000/svg">
<circle cx="28.6963" cy="28.6963" r="23.6338" fill="#AA82B6"/>
<circle cx="28.6963" cy="28.6963" r="28.1963" stroke="#B99BC3"/>
<path d="M28.6963 29.3564C30.6165 29.3565 32.4583 30.1195 33.8164 31.4775C35.1745 32.8356 35.9374 34.6774 35.9375 36.5977V37.915C35.9374 38.0893 35.8686 38.2568 35.7451 38.3799C35.622 38.5037 35.4538 38.5732 35.2793 38.5732H22.1123C21.9379 38.5732 21.7705 38.5036 21.6475 38.3799C21.5237 38.2568 21.4542 38.0894 21.4541 37.915V36.5977C21.4542 34.6775 22.2172 32.8356 23.5752 31.4775C24.9334 30.1194 26.7759 29.3564 28.6963 29.3564ZM19.4795 31.9863C20.1134 31.9863 20.7169 32.114 21.2666 32.3457C20.5333 33.6281 20.1377 35.0912 20.1377 36.5947V37.9111C20.1377 38.1375 20.1766 38.3601 20.251 38.5693H15.5293C15.166 38.5693 14.8711 38.2745 14.8711 37.9111V36.5947C14.8711 34.0496 16.9343 31.9863 19.4795 31.9863ZM37.9141 31.9863C40.4591 31.9865 42.5225 34.0497 42.5225 36.5947V37.9111C42.5225 38.2744 42.2275 38.5691 41.8643 38.5693H37.1426C37.2169 38.3601 37.2559 38.1375 37.2559 37.9111V36.5947C37.2559 35.0911 36.8594 33.6282 36.126 32.3457C36.6757 32.114 37.2801 31.9863 37.9141 31.9863ZM19.4795 24.083C21.2965 24.083 22.7715 25.558 22.7715 27.375C22.7713 29.1919 21.2964 30.666 19.4795 30.666C17.6625 30.666 16.1876 29.1919 16.1875 27.375C16.1875 25.558 17.6625 24.083 19.4795 24.083ZM37.9141 24.083C39.7309 24.0833 41.2051 25.5581 41.2051 27.375C41.2049 29.1918 39.7308 30.6658 37.9141 30.666C36.0971 30.666 34.6222 29.1919 34.6221 27.375C34.6221 25.558 36.097 24.083 37.9141 24.083ZM28.6973 18.8203C31.2405 18.8203 33.3057 20.8855 33.3057 23.4287C33.3055 25.9718 31.2404 28.0371 28.6973 28.0371C26.1542 28.037 24.089 25.9717 24.0889 23.4287C24.0889 20.8856 26.1542 18.8204 28.6973 18.8203Z" fill="white"/>
</svg>
