<svg width="58" height="58" viewBox="0 0 58 58" fill="none" xmlns="http://www.w3.org/2000/svg">
<circle cx="28.6963" cy="28.6963" r="23.6338" fill="#55B473"/>
<circle cx="28.6963" cy="28.6963" r="28.1963" stroke="#96CDA0"/>
<path d="M38.3588 39.0312L36.9862 23.6742C36.9355 23.1399 36.5035 22.7336 35.9691 22.7336H33.503V21.3859C33.503 18.742 31.3676 16.6055 28.7226 16.6055C26.0788 16.6055 23.9422 18.7409 23.9422 21.3859V22.7336H21.4761C20.9417 22.7336 20.5097 23.1409 20.459 23.6742L19.0347 39.0312C18.9583 39.9717 19.6962 40.7852 20.6368 40.7852H36.7565C37.6971 40.7852 38.4353 39.9717 38.3588 39.0312ZM24.6027 26.2415C24.0683 26.2415 23.6115 25.8095 23.6115 25.2503C23.6115 24.9702 23.7128 24.7159 23.9164 24.5381V24.7666C23.9164 25.148 24.2213 25.4529 24.6027 25.4529C24.9841 25.4529 25.289 25.148 25.289 24.7666V24.5381C25.4668 24.7159 25.5939 24.9702 25.5939 25.2503C25.5949 25.7837 25.137 26.2415 24.6027 26.2415ZM25.29 22.7584V21.4106C25.29 19.5294 26.8156 18.004 28.6966 18.004C30.5776 18.004 32.1032 19.5295 32.1032 21.4106V22.7584H28.6966H25.29ZM32.7907 26.2415C32.2564 26.2415 31.7995 25.8095 31.7995 25.2503C31.7995 24.9702 31.9008 24.7159 32.1044 24.5381V24.7666C32.1044 25.148 32.4093 25.4529 32.7907 25.4529C33.1721 25.4529 33.477 25.148 33.477 24.7666V24.5381C33.6548 24.7159 33.7819 24.9702 33.7819 25.2503C33.7819 25.7837 33.3241 26.2415 32.7907 26.2415Z" fill="white"/>
</svg>
