<svg width="29" height="29" viewBox="0 0 29 29" fill="none" xmlns="http://www.w3.org/2000/svg">
<path fill-rule="evenodd" clip-rule="evenodd" d="M17.003 0.960208C17.4072 2.03778 17.9356 2.8389 19.1225 3.33037C20.345 3.8366 21.253 3.60806 22.2925 3.15344C22.295 3.15221 22.811 2.67055 23.2337 2.89664C23.6465 3.11781 24.9686 4.51728 25.3532 4.88589C25.5793 5.10337 25.9835 5.44003 26.0892 5.73492C26.2206 6.10353 26.11 6.44019 25.8434 6.70067L25.6345 7.17985C24.9121 9.05114 25.8373 11.146 27.7172 11.8722C27.8228 11.9128 27.9285 11.9521 28.0342 11.9927C28.4065 11.9865 28.7247 12.1475 28.8918 12.5013C29.0466 12.8294 28.9594 14.0532 28.9594 14.5029C28.9594 14.9526 29.0479 16.1764 28.8918 16.5044C28.7247 16.8583 28.4065 17.0193 28.0342 17.0131L27.4162 17.2625C25.6751 18.0759 24.89 20.193 25.7587 22.122C25.9294 22.4979 26.298 22.7719 26.0978 23.2438C25.8766 23.6578 24.4771 24.9799 24.1085 25.3633C23.891 25.5893 23.5544 25.9936 23.2595 26.0992C22.7005 26.2983 22.6243 25.9973 21.9829 25.7122C20.0845 24.8705 17.8718 25.7835 17.1222 27.7272C17.0817 27.8329 17.0423 27.9386 17.0018 28.0455C17.0079 28.4178 16.847 28.736 16.4931 28.9031C16.165 29.0579 14.9413 28.9707 14.4916 28.9707C14.0419 28.9707 12.8181 29.0592 12.49 28.9031C12.1361 28.736 11.9752 28.4178 11.9813 28.0455L11.7933 27.5601C10.964 25.6888 8.83588 24.884 6.87006 25.7699C6.49531 25.9407 6.22131 26.3093 5.74949 26.1078C5.33665 25.8866 4.01458 24.4872 3.63121 24.1185C3.40513 23.9011 3.00089 23.5644 2.89646 23.2695C2.76499 22.9009 2.87557 22.5655 3.14097 22.305L3.38179 21.7398C4.05388 19.9324 3.12623 17.8485 1.2672 17.1323C1.16153 17.0918 1.05586 17.0525 0.950197 17.0119C0.5779 17.0181 0.260901 16.8571 0.0925555 16.5032C-0.0622609 16.1752 0.0249785 14.9514 0.0249785 14.5017C0.0249785 14.052 -0.0634876 12.8282 0.0925555 12.5001C0.259658 12.1463 0.5779 11.9853 0.950197 11.9914L1.5707 11.7408C3.31178 10.9262 4.09566 8.81036 3.22452 6.8776C3.03407 6.45368 2.6925 6.30748 2.89645 5.73369C3.01809 5.39458 3.94574 4.58732 4.26277 4.27155C4.57977 3.95578 5.3858 3.02567 5.72491 2.90523C6.28395 2.70495 6.36136 3.00721 7.00153 3.29228C8.90233 4.13394 11.1139 3.21978 11.8622 1.27723C11.9028 1.17156 11.9421 1.06589 11.9826 0.959006C11.9765 0.586709 12.1374 0.268483 12.4913 0.101365C12.8194 -0.0522213 14.0431 0.0362446 14.4929 0.0362446C15.5852 0.0362446 17.0239 -0.280771 17.003 0.960208ZM14.4928 9.33374C9.89976 9.33374 7.59005 14.9119 10.8374 18.1596C14.0848 21.407 19.6633 19.0959 19.6633 14.5042C19.6633 11.6488 17.3484 9.33374 14.4928 9.33374Z" fill="#1079D5"/>
</svg>
