<svg width="48" height="48" viewBox="0 0 48 48" fill="none" xmlns="http://www.w3.org/2000/svg">
<circle cx="23.6338" cy="23.6338" r="23.6338" fill="#F58C28"/>
<path d="M23.6357 11.3125C19.3016 11.3125 11.9648 12.1774 11.9648 15.4181V17.5652C11.9648 18.9249 12.6072 20.2313 13.6838 21.0599L20.4882 26.3038C20.6793 26.4514 20.7918 26.6788 20.7918 26.9208V32.1319C20.7918 32.5202 20.9841 32.8819 21.3059 33.0984L25.3765 35.8395C25.8458 36.1552 26.4773 35.8189 26.4773 35.254V26.9208C26.4773 26.6789 26.5898 26.4515 26.7809 26.3039L33.5865 21.0599C34.6631 20.2301 35.3055 18.9249 35.3055 17.5653V15.4181C35.3055 12.1774 27.9699 11.3125 23.6357 11.3125ZM23.6357 13.5661C29.4008 13.5661 32.4951 14.8084 33.0094 15.4168C32.4941 16.0253 29.3999 17.2676 23.6357 17.2676C17.8715 17.2676 14.7763 16.0253 14.261 15.4168C14.7752 14.8084 17.8706 13.5661 23.6357 13.5661Z" fill="white"/>
</svg>
