<svg width="39" height="40" viewBox="0 0 39 40" fill="none" xmlns="http://www.w3.org/2000/svg">
<path d="M32.867 30.5421V35.457C32.867 36.4851 32.4479 37.4199 31.7718 38.0944C31.0956 38.7706 30.1625 39.1897 29.1343 39.1897H3.73269C2.70458 39.1897 1.76976 38.7706 1.09525 38.0944C0.419107 37.4183 0 36.4835 0 35.457V10.0193C0 9.51342 0.0933184 9.03534 0.278312 8.59004L0.350348 8.42469C0.530434 8.04815 0.779262 7.69779 1.09523 7.38183L7.43254 1.04451C7.73542 0.751463 8.06774 0.518993 8.42465 0.34871L8.63748 0.258669C9.06966 0.0867677 9.53462 0 10.0209 0H29.1342C30.1624 0 31.0972 0.419107 31.7717 1.09525C32.4478 1.7714 32.8669 2.70454 32.8669 3.73269V8.64756H34.5958C35.6222 8.64756 36.5554 9.0683 37.2332 9.74445C37.911 10.419 38.3301 11.3521 38.3301 12.3819V26.8067C38.3301 27.8348 37.911 28.7696 37.2348 29.4458L37.1808 29.4949C36.5079 30.1416 35.5961 30.541 34.5957 30.541H32.8669L32.867 30.5421ZM31.1906 35.457V30.5421H21.0306L15.9276 34.1438C15.551 34.409 15.0272 34.319 14.762 33.9408C14.6588 33.7935 14.6097 33.6265 14.6097 33.4595L14.6064 12.3814C14.6064 11.3533 15.0255 10.4184 15.7017 9.7423L15.7557 9.69318C16.4286 9.04487 17.3404 8.64705 18.3391 8.64705H31.1873V3.73218C31.1873 3.16572 30.9564 2.65169 30.5832 2.27839C30.2115 1.90676 29.6958 1.67429 29.1294 1.67429H10.016C9.88993 1.67429 9.76879 1.68247 9.65582 1.70212V8.82023C9.65582 9.28355 9.28092 9.65844 8.81761 9.65844H1.69949C1.67985 9.77468 1.67166 9.89419 1.67166 10.0186V35.4563C1.67166 36.0228 1.9025 36.5368 2.27576 36.9101C2.64739 37.2817 3.1631 37.5142 3.72956 37.5142H29.1312C29.6977 37.5142 30.2117 37.2834 30.585 36.9101C30.9566 36.5385 31.1891 36.0228 31.1891 35.4563L31.1906 35.457ZM24.6748 14.9585C24.8761 14.667 25.143 14.4346 25.4458 14.2758C25.7471 14.117 26.0909 14.0318 26.451 14.0318C27.0453 14.0318 27.5855 14.2725 27.9735 14.6638C28.3632 15.0534 28.6055 15.5937 28.6055 16.1863C28.6055 16.6218 28.4778 17.0261 28.2551 17.3634C28.0243 17.717 27.6919 18.0019 27.3007 18.1771C26.767 18.4144 26.3364 18.7861 26.0352 19.2428L25.9975 19.3067C25.7225 19.7504 25.5686 20.271 25.5637 20.8276L25.549 22.1357C25.5457 22.5974 25.9157 22.9722 26.3774 22.9771C26.839 22.9804 27.2139 22.6104 27.2188 22.1487L27.2336 20.8407C27.2369 20.6049 27.2974 20.3856 27.4088 20.2022L27.4382 20.1613C27.5659 19.9681 27.7509 19.8077 27.9834 19.7045C28.6726 19.3967 29.2538 18.899 29.6582 18.2819C30.0527 17.6778 30.2819 16.9591 30.2819 16.188C30.2819 15.1304 29.853 14.1727 29.1589 13.4802C28.4664 12.7877 27.5086 12.3571 26.4511 12.3571C25.8273 12.3571 25.2183 12.5126 24.6748 12.7975C24.1328 13.0823 23.6581 13.4965 23.3012 14.0106C23.0393 14.3904 23.1342 14.911 23.514 15.1729C23.8939 15.4349 24.4144 15.3399 24.6764 14.9601L24.6748 14.9585ZM27.1435 25.9961V25.0874C27.1435 24.6241 26.7686 24.2492 26.3053 24.2492C25.842 24.2492 25.4671 24.6241 25.4671 25.0874V25.9961C25.4671 26.4594 25.842 26.8343 26.3053 26.8343C26.7686 26.8343 27.1435 26.4594 27.1435 25.9961Z" fill="#D0E6F9"/>
</svg>
