<svg width="48" height="48" viewBox="0 0 48 48" fill="none" xmlns="http://www.w3.org/2000/svg">
<circle cx="23.6338" cy="23.6338" r="23.6338" fill="#96CDA0"/>
<path d="M33.2963 33.9687L31.9237 18.6117C31.873 18.0774 31.441 17.6711 30.9066 17.6711H28.4405V16.3234C28.4405 13.6795 26.3051 11.543 23.6601 11.543C21.0163 11.543 18.8797 13.6784 18.8797 16.3234V17.6711H16.4136C15.8792 17.6711 15.4472 18.0784 15.3965 18.6117L13.9722 33.9687C13.8958 34.9092 14.6337 35.7227 15.5743 35.7227H31.694C32.6346 35.7227 33.3728 34.9092 33.2963 33.9687ZM19.5402 21.179C19.0058 21.179 18.549 20.747 18.549 20.1878C18.549 19.9077 18.6503 19.6534 18.8539 19.4756V19.7041C18.8539 20.0855 19.1588 20.3904 19.5402 20.3904C19.9216 20.3904 20.2265 20.0855 20.2265 19.7041V19.4756C20.4043 19.6534 20.5314 19.9077 20.5314 20.1878C20.5324 20.7212 20.0745 21.179 19.5402 21.179ZM20.2275 17.6959V16.3481C20.2275 14.4669 21.7531 12.9415 23.6341 12.9415C25.5151 12.9415 27.0407 14.467 27.0407 16.3481V17.6959H23.6341H20.2275ZM27.7282 21.179C27.1939 21.179 26.737 20.747 26.737 20.1878C26.737 19.9077 26.8383 19.6534 27.0419 19.4756V19.7041C27.0419 20.0855 27.3468 20.3904 27.7282 20.3904C28.1096 20.3904 28.4145 20.0855 28.4145 19.7041V19.4756C28.5923 19.6534 28.7194 19.9077 28.7194 20.1878C28.7194 20.7212 28.2616 21.179 27.7282 21.179Z" fill="white"/>
</svg>
