<svg width="39" height="39" viewBox="0 0 39 39" fill="none" xmlns="http://www.w3.org/2000/svg">
<path d="M28.7582 17.5474C23.1138 17.5474 18.5222 22.1389 18.5222 27.7833C18.5222 33.4277 23.1138 38.0193 28.7582 38.0193C34.4026 38.0193 38.9941 33.4277 38.9941 27.7833C38.9941 22.1389 34.4026 17.5474 28.7582 17.5474ZM28.7582 33.3887C27.951 33.3887 27.2959 32.7336 27.2959 31.9265C27.2959 31.1193 27.951 30.4642 28.7582 30.4642C29.5654 30.4642 30.2205 31.1193 30.2205 31.9265C30.2205 32.7336 29.5654 33.3887 28.7582 33.3887ZM30.2205 28.027C30.2205 28.8342 29.5654 29.4893 28.7582 29.4893C27.951 29.4893 27.2959 28.8342 27.2959 28.027V24.1276C27.2959 23.3204 27.951 22.6653 28.7582 22.6653C29.5654 22.6653 30.2205 23.3204 30.2205 24.1276V28.027ZM28.2708 14.6423V5.36169C28.2708 2.39814 25.8726 0 22.9091 0H5.36169C2.39814 0 0 2.39814 0 5.36169V30.7079C0 33.6714 2.39814 36.0696 5.36169 36.0696H18.5417C16.709 33.8079 15.5977 30.9224 15.5977 27.7833C15.5977 20.6864 21.2323 14.8958 28.2708 14.6423ZM7.3114 7.79883H20.9594C21.7587 7.79883 22.4216 8.46173 22.4216 9.26111C22.4216 10.0605 21.7587 10.7234 20.9594 10.7234H7.3114C6.51202 10.7234 5.84912 10.0605 5.84912 9.26111C5.84912 8.46173 6.51202 7.79883 7.3114 7.79883ZM7.3114 13.6479H20.9594C21.7587 13.6479 22.4216 14.3108 22.4216 15.1102C22.4216 15.9096 21.7587 16.5725 20.9594 16.5725H7.3114C6.51202 16.5725 5.84912 15.9096 5.84912 15.1102C5.84912 14.3108 6.51202 13.6479 7.3114 13.6479ZM13.1605 22.4216H7.3114C6.51202 22.4216 5.84912 21.7587 5.84912 20.9594C5.84912 20.16 6.51202 19.4971 7.3114 19.4971H13.1605C13.9599 19.4971 14.6228 20.16 14.6228 20.9594C14.6228 21.7587 13.9599 22.4216 13.1605 22.4216Z" fill="#D0E6F9"/>
</svg>
