<svg width="58" height="58" viewBox="0 0 58 58" fill="none" xmlns="http://www.w3.org/2000/svg">
<circle cx="28.6963" cy="28.6963" r="23.6338" fill="#E69600"/>
<circle cx="28.6963" cy="28.6963" r="28.1963" stroke="#FAC83C"/>
<path fill-rule="evenodd" clip-rule="evenodd" d="M33.8602 37.6298L30.7241 39.4402C30.4732 39.585 30.153 39.4996 30.0082 39.2495L27.2084 34.4009L23.4921 38.6387C23.4085 38.7475 23.2825 38.8249 23.1359 38.8429C22.8481 38.8771 22.5864 38.6711 22.5532 38.3833L20.1517 18.472C20.1374 18.3425 20.1697 18.2085 20.2534 18.0961C20.427 17.865 20.7552 17.8182 20.9864 17.9909L36.9971 30.003C37.114 30.0777 37.2013 30.1982 37.23 30.3448C37.2849 30.629 37.0996 30.9051 36.8154 30.96L31.2528 32.0662L34.0355 36.8852L34.0517 36.9121C34.1965 37.163 34.111 37.4832 33.861 37.628L33.8602 37.6298Z" fill="white"/>
</svg>
