<?xml version="1.0" standalone="no"?>
<!DOCTYPE svg PUBLIC "-//W3C//DTD SVG 1.1//EN" "http://www.w3.org/Graphics/SVG/1.1/DTD/svg11.dtd" >
<svg xmlns="http://www.w3.org/2000/svg" xmlns:xlink="http://www.w3.org/1999/xlink" version="1.1">
<metadata>
Created by FontForge 20201107 at Thu Nov  7 18:13:27 2024
 By 
Copyright 2024 The Parkinsans Project Authors (https://github.com/redstonedesign/parkinsans)
</metadata>
<defs>
<font id="Parkinsans-SemiBold" horiz-adv-x="637" >
  <font-face 
    font-family="Parkinsans SemiBold"
    font-weight="600"
    font-stretch="normal"
    units-per-em="1000"
    panose-1="0 0 0 0 0 0 0 0 0 0"
    ascent="800"
    descent="-200"
    x-height="554"
    cap-height="698"
    bbox="-83 -287.474 1097 998"
    underline-thickness="50"
    underline-position="-150"
    unicode-range="U+0020-FB02"
  />
<missing-glyph horiz-adv-x="600" 
d="M97 660h413v-660h-413v660zM137 620v-580h333v580h-333zM239 216l-3 103h30q34 0 63.5 10.5t48 33.5t18.5 61q0 42 -27.5 66.5t-71.5 24.5q-38 0 -62.5 -19.5t-31.5 -55.5l-41 12q9 44 44 73t93 29q62 0 101.5 -36t39.5 -91q0 -68 -45.5 -104t-115.5 -36l-3 -71h-37z
M262 98q-16 0 -26.5 10.5t-10.5 24.5t10.5 24t26.5 10t26.5 -10t10.5 -24t-10.5 -24.5t-26.5 -10.5z" />
    <glyph glyph-name="fi" unicode="fi" horiz-adv-x="646" 
d="M106 0v438h-63v116h63v28q0 56 17 93.5t48 60.5t74 33t95 8v-118q-26 0 -47 -6t-32.5 -22.5t-11.5 -47.5v-29h266v-116h-266v-438h-143zM430 0v554h142v-554h-142zM502 621q-42 0 -70 25.5t-28 63.5t28 64t70 26t70 -26t28 -64t-28 -63.5t-70 -25.5z" />
    <glyph glyph-name="fl" unicode="fl" horiz-adv-x="664" 
d="M84 0v438h-64v116h64v28q0 56 17 93.5t48 60.5t74 33t95 8v-118q-27 0 -47.5 -6t-32.5 -22.5t-12 -47.5v-29h98v-116h-98v-438h-142zM567 -7q-37 0 -72.5 15.5t-58 50t-22.5 90.5v591h141v-582q0 -22 13 -33t31 -11q13 0 22 4l26 -107q-35 -18 -80 -18z" />
    <glyph glyph-name=".notdef" horiz-adv-x="600" 
d="M97 660h413v-660h-413v660zM137 620v-580h333v580h-333zM239 216l-3 103h30q34 0 63.5 10.5t48 33.5t18.5 61q0 42 -27.5 66.5t-71.5 24.5q-38 0 -62.5 -19.5t-31.5 -55.5l-41 12q9 44 44 73t93 29q62 0 101.5 -36t39.5 -91q0 -68 -45.5 -104t-115.5 -36l-3 -71h-37z
M262 98q-16 0 -26.5 10.5t-10.5 24.5t10.5 24t26.5 10t26.5 -10t10.5 -24t-10.5 -24.5t-26.5 -10.5z" />
    <glyph glyph-name=".null" horiz-adv-x="0" 
 />
    <glyph glyph-name="nonmarkingreturn" horiz-adv-x="333" 
 />
    <glyph glyph-name="space" unicode=" " horiz-adv-x="237" 
 />
    <glyph glyph-name="exclam" unicode="!" horiz-adv-x="360" 
d="M104 710h152l-17 -482h-119zM180 -7q-40 0 -66.5 25t-26.5 61q0 37 26.5 61.5t66.5 24.5q41 0 67 -24.5t26 -61.5q0 -36 -26 -61t-67 -25z" />
    <glyph glyph-name="quotedbl" unicode="&#x22;" horiz-adv-x="366" 
d="M37 799h121l-12 -213h-96zM207 799h121l-12 -213h-96z" />
    <glyph glyph-name="numbersign" unicode="#" horiz-adv-x="888" 
d="M299 740h133l-158 -740h-133zM614 740h133l-158 -740h-133zM26 295h753v-126h-753v126zM87 575h753v-126h-753v126z" />
    <glyph glyph-name="dollar" unicode="$" horiz-adv-x="655" 
d="M285 -87v875h64v-875h-64zM320 -7q-72 0 -129 26t-93 72t-46 108l143 29q11 -55 43 -86t78 -31q52 0 80 22.5t28 60.5q0 31 -19.5 50t-52 32t-70.5 23.5t-76.5 24t-70.5 35.5t-51.5 56t-19.5 87q0 64 31 109.5t86.5 69.5t128.5 24q64 0 116.5 -23t86.5 -63.5t41 -92.5
l-141 -36q-9 47 -37.5 73t-70.5 26q-27 0 -49.5 -9t-35.5 -27t-13 -45q0 -30 20 -48.5t52 -31t70.5 -23t77 -24.5t71 -36t52 -56.5t19.5 -86.5q0 -55 -30.5 -103t-86.5 -77t-132 -29z" />
    <glyph glyph-name="percent" unicode="%" horiz-adv-x="831" 
d="M150 0l393 698h137l-392 -698h-138zM196 380q-68 0 -113.5 42t-45.5 121t45.5 120.5t113.5 41.5t113.5 -41.5t45.5 -120.5t-45.5 -121t-113.5 -42zM195 464q27 0 42 19t15 60q0 42 -15.5 60t-40.5 18q-26 0 -41 -18t-15 -60q0 -41 15 -60t40 -19zM636 -7q-68 0 -113.5 42
t-45.5 121t45.5 121t113.5 42t113 -42t45 -121t-45 -121t-113 -42zM635 78q26 0 41 18.5t15 60.5q0 41 -15 59t-41 18q-25 0 -40.5 -18t-15.5 -59q0 -42 15.5 -60.5t40.5 -18.5z" />
    <glyph glyph-name="ampersand" unicode="&#x26;" horiz-adv-x="779" 
d="M606 0l-382 376q-48 48 -67 86t-19 82q0 48 24.5 86t70.5 61t110 23q60 0 102 -22t66.5 -60.5t27.5 -90.5l-124 -28q-1 40 -24 65.5t-51 25.5q-29 0 -47 -17t-18 -42t14.5 -50.5t48.5 -59.5l441 -435h-173zM293 -12q-78 0 -135.5 26t-90 74.5t-32.5 113.5q0 76 48.5 137
t148.5 92l53 17l66 -89l-52 -16q-64 -21 -94.5 -55.5t-30.5 -77.5q0 -29 15.5 -53t43 -38t64.5 -14q49 0 88 19t72 56t62 90l67 116l119 -54l-52 -90q-45 -82 -97.5 -139t-116.5 -86t-146 -29z" />
    <glyph glyph-name="quotesingle" unicode="'" horiz-adv-x="196" 
d="M37 799h121l-12 -213h-96z" />
    <glyph glyph-name="parenleft" unicode="(" horiz-adv-x="485" 
d="M310 -197q-65 63 -110.5 149.5t-69.5 189.5t-24 214t24.5 216.5t73 196t121.5 155.5h150q-76 -72 -128 -166.5t-78.5 -198t-26.5 -203.5t26.5 -200t75.5 -191t118 -162h-152z" />
    <glyph glyph-name="parenright" unicode=")" horiz-adv-x="485" 
d="M174 -197h-151q69 71 118 162t75.5 191t26.5 200t-27 203.5t-79 198t-128 166.5h151q72 -65 121 -155.5t73 -196t24 -216.5t-23.5 -214t-69 -189.5t-111.5 -149.5z" />
    <glyph glyph-name="asterisk" unicode="*" horiz-adv-x="519" 
d="M290 601l109 88l51 -91l-131 -47l131 -47l-53 -93l-107 89l23 -138h-104l21 138l-107 -91l-55 96l130 48l-129 44l51 92l111 -88l-23 139h106z" />
    <glyph glyph-name="plus" unicode="+" horiz-adv-x="667" 
d="M400 611v-510h-133v510h133zM78 417h510v-123h-510v123z" />
    <glyph glyph-name="comma" unicode="," horiz-adv-x="247" 
d="M11 -132v64q35 -2 63.5 8.5t48 29t25.5 37.5q-10 -8 -23 -11.5t-25 -3.5q-34 0 -59.5 18.5t-25.5 60.5t28.5 67.5t70.5 25.5q32 0 55.5 -17.5t37.5 -44.5t14 -58q0 -62 -30.5 -103t-78.5 -59t-101 -14z" />
    <glyph glyph-name="hyphen" unicode="-" horiz-adv-x="583" 
d="M121 416h425v-118h-425v118z" />
    <glyph glyph-name="period" unicode="." horiz-adv-x="274" 
d="M138 -7q-41 0 -67.5 25t-26.5 61q0 37 26.5 61.5t67.5 24.5q40 0 66 -24.5t26 -61.5q0 -36 -26 -61t-66 -25z" />
    <glyph glyph-name="slash" unicode="/" horiz-adv-x="484" 
d="M306 947h137l-269 -1128h-138z" />
    <glyph glyph-name="zero" unicode="0" horiz-adv-x="646" 
d="M323 -7q-94 0 -154 50t-88 135.5t-28 191.5t28 190t88 133t154 49t154 -49t88 -133t28 -190t-28 -191.5t-88 -135.5t-154 -50zM323 124q50 0 78.5 34.5t40.5 91t12 120.5q0 47 -6.5 90t-21.5 77t-40.5 54t-62.5 20t-62.5 -20t-40.5 -54t-21.5 -77t-6.5 -90
q0 -64 12 -120.5t41 -91t78 -34.5z" />
    <glyph glyph-name="one" unicode="1" horiz-adv-x="461" 
d="M16 0v115h151v445q-13 -23 -38 -41t-55 -28.5t-58 -10.5v132q37 0 71.5 15.5t59.5 42t34 60.5h124v-615h140v-115h-429z" />
    <glyph glyph-name="two" unicode="2" horiz-adv-x="574" 
d="M44 0v105q32 26 57.5 47.5t47.5 40.5t43.5 39t46.5 44q31 29 57 58.5t45.5 59.5t30.5 60t11 59q0 51 -25.5 80.5t-74.5 28.5q-37 0 -61.5 -20t-37 -51t-15.5 -66l-124 24q5 70 37 122.5t84 81.5t119 29q76 0 129.5 -27.5t82 -77t28.5 -116.5q0 -48 -16 -93t-43.5 -86.5
t-63 -80.5t-76 -75.5t-82.5 -70.5h294v-115h-494z" />
    <glyph glyph-name="three" unicode="3" horiz-adv-x="602" 
d="M301 -7q-71 0 -126 24.5t-89 70.5t-41 111l130 23q5 -32 19.5 -57.5t40 -40t63.5 -14.5t62 13.5t35.5 37.5t11.5 54q0 53 -36 81t-112 28h-40v114h35q65 0 103 23.5t38 72.5q0 42 -25.5 66.5t-72.5 24.5q-32 0 -55.5 -13t-37.5 -37t-18 -56l-129 26q13 95 76 146t168 51
q73 0 124 -25t78.5 -68t27.5 -100q0 -64 -32.5 -106t-78.5 -58v0q61 -20 93 -67t32 -116q0 -58 -30 -106t-84.5 -75.5t-129.5 -27.5z" />
    <glyph glyph-name="four" unicode="4" horiz-adv-x="662" 
d="M397 0v150h-349v112l326 468h164v-457h87v-123h-87v-150h-141zM202 273h203v306z" />
    <glyph glyph-name="five" unicode="5" horiz-adv-x="642" 
d="M339 -7q-77 0 -132 26t-86.5 71t-41.5 99l132 26q5 -27 20.5 -51.5t42 -39.5t63.5 -15q34 0 60.5 17.5t41.5 48t15 67.5q0 38 -15.5 68t-42.5 48t-62 18q-38 0 -67.5 -22t-43.5 -58l-136 34v400h455v-123h-324v-207q9 20 30.5 40.5t54 35t74.5 14.5q55 0 103.5 -29
t78 -83.5t29.5 -132.5q0 -72 -32 -129t-88 -90t-129 -33z" />
    <glyph glyph-name="six" unicode="6" horiz-adv-x="641" 
d="M337 -7q-94 0 -153.5 46t-87.5 126t-28 182q0 84 17.5 155.5t51.5 125t84 84t115 30.5q68 0 117 -25.5t79 -67t38 -89.5l-126 -29q-10 44 -39 70t-73 26q-36 0 -62.5 -20t-44 -56t-26.5 -86.5t-9 -112.5q12 36 38 63.5t61 43.5t73 16q66 0 115.5 -28.5t77.5 -82.5
t28 -129q0 -69 -29 -123.5t-84 -86.5t-133 -32zM335 110q34 0 60.5 16.5t41.5 44t15 63.5t-14 64.5t-41 45.5t-65 17q-30 0 -59 -15t-47 -42.5t-18 -66.5q0 -37 16 -65.5t44.5 -45t66.5 -16.5z" />
    <glyph glyph-name="seven" unicode="7" horiz-adv-x="548" 
d="M108 0l268 609h-342v121h483v-105l-265 -625h-144z" />
    <glyph glyph-name="eight" unicode="8" horiz-adv-x="643" 
d="M321 -7q-79 0 -138.5 28t-92 78t-32.5 116q0 65 31 110t85 67q-49 25 -74 63.5t-25 93.5q0 63 32.5 106t88 65t125.5 22q65 0 121 -20.5t90.5 -63t34.5 -109.5q0 -55 -26.5 -94.5t-72.5 -62.5q56 -23 87 -68t31 -109q0 -66 -33 -116t-92 -78t-140 -28zM321 110
q59 0 92.5 31.5t33.5 79.5q0 53 -34.5 81.5t-91.5 28.5t-92 -28.5t-35 -81.5q0 -48 34 -79.5t93 -31.5zM321 432q48 0 79 27t31 70q0 49 -29 73.5t-81 24.5q-50 0 -79 -25t-29 -73q0 -44 30 -70.5t78 -26.5z" />
    <glyph glyph-name="nine" unicode="9" horiz-adv-x="636" 
d="M311 742q95 0 154.5 -47t87 -128.5t27.5 -184.5q0 -110 -31.5 -198.5t-91.5 -139.5t-147 -51q-69 0 -119.5 25t-81 66t-39.5 90l127 28q9 -40 39.5 -66t77.5 -26q36 0 62.5 18.5t45 53t27.5 84t9 110.5q-11 -36 -37 -63.5t-59.5 -43t-68.5 -15.5q-68 0 -119.5 29.5
t-80 84t-28.5 129.5q0 69 29 124.5t84.5 88t132.5 32.5zM313 627q-33 0 -60 -17t-42 -46t-15 -64t14.5 -65t41 -48t64.5 -18q31 0 59.5 16t46.5 45t18 67q0 27 -9 51t-25.5 41.5t-40 27.5t-52.5 10z" />
    <glyph glyph-name="colon" unicode=":" horiz-adv-x="277" 
d="M138 -7q-41 0 -67.5 25t-26.5 61q0 37 26.5 61.5t67.5 24.5q40 0 66 -24.5t26 -61.5q0 -36 -26 -61t-66 -25zM138 407q-41 0 -67.5 25t-26.5 61q0 37 26.5 61.5t67.5 24.5q40 0 66 -24.5t26 -61.5q0 -36 -26 -61t-66 -25z" />
    <glyph glyph-name="semicolon" unicode=";" horiz-adv-x="301" 
d="M147 403q-41 0 -67.5 25t-26.5 61q0 37 26.5 61.5t67.5 24.5q40 0 66.5 -24.5t26.5 -61.5q0 -36 -26.5 -61t-66.5 -25zM44 -132v64q35 -2 64 8.5t48 29t25 37.5q-10 -8 -22.5 -11.5t-25.5 -3.5q-34 0 -59.5 18.5t-25.5 60.5t29 67.5t70 25.5q32 0 56 -17.5t37.5 -44.5
t13.5 -58q0 -62 -30.5 -103t-78.5 -59t-101 -14z" />
    <glyph glyph-name="less" unicode="&#x3c;" horiz-adv-x="667" 
d="M531 132h-178l-217 224l217 224h178l-218 -224z" />
    <glyph glyph-name="equal" unicode="=" horiz-adv-x="667" 
d="M60 297h546v-123h-546v123zM60 538h546v-123h-546v123z" />
    <glyph glyph-name="greater" unicode="&#x3e;" horiz-adv-x="667" 
d="M354 356l-218 224h178l217 -224l-217 -224h-178z" />
    <glyph glyph-name="question" unicode="?" horiz-adv-x="531" 
d="M134 233l-6 170h70q46 0 80.5 12t54 37t19.5 63q0 37 -24.5 63.5t-69.5 26.5q-39 0 -65.5 -25.5t-35.5 -70.5l-123 39q9 49 39 88.5t77.5 63t108.5 23.5q69 0 120.5 -25.5t80 -72.5t28.5 -112q0 -62 -29 -107.5t-80.5 -70.5t-117.5 -25l-5 -77h-122zM201 -7
q-40 0 -66.5 25t-26.5 61q0 37 26.5 61.5t66.5 24.5q41 0 67 -24.5t26 -61.5q0 -36 -26 -61t-67 -25z" />
    <glyph glyph-name="at" unicode="@" horiz-adv-x="1051" 
d="M613 134l1 32l23 -53q-26 -55 -78.5 -87.5t-115.5 -32.5q-76 0 -118.5 45.5t-42.5 124.5q0 56 17.5 106.5t49.5 90.5t76 63t97 23q58 0 90.5 -26.5t42.5 -76.5l-25 -16l19 111h118l-47 -269q-6 -37 0.5 -59.5t40.5 -22.5q28 0 49 20.5t34 53.5t19.5 71.5t6.5 74.5
q0 81 -33 137.5t-96 86t-154 29.5q-88 0 -162 -32t-128.5 -88.5t-84.5 -132.5t-30 -165q0 -83 33 -140.5t96 -87.5t152 -30q44 0 88.5 8.5t82.5 26.5l21 -92q-48 -21 -101.5 -31t-110.5 -10q-112 0 -195.5 42.5t-129.5 120.5t-46 183q0 111 39 206.5t110.5 167t168.5 111
t213 39.5q117 0 201.5 -43.5t130 -120.5t45.5 -180q0 -60 -15.5 -117t-46 -102.5t-75.5 -72t-103 -26.5q-70 0 -102 38t-25 102zM531 343q-38 0 -65.5 -23t-42.5 -58.5t-15 -75.5q0 -39 19.5 -63.5t60.5 -24.5q36 0 65.5 21t46.5 55.5t17 74.5q0 27 -9.5 48t-28.5 33.5
t-48 12.5z" />
    <glyph glyph-name="A" unicode="A" horiz-adv-x="716" 
d="M440 698l252 -698h-149l-215 624h60l-215 -624h-148l252 698h163zM168 245h370l36 -112h-442z" />
    <glyph glyph-name="B" unicode="B" horiz-adv-x="644" 
d="M69 0v698h289q73 0 123.5 -23.5t77 -64t26.5 -92.5q0 -50 -22 -86t-58 -56t-80 -26l17 12q45 -2 81 -26.5t57 -63t21 -83.5q0 -55 -27.5 -98t-79 -67t-124.5 -24h-301zM210 115h141q51 0 79 23.5t28 67.5q0 45 -30 70.5t-80 25.5h-138v-187zM210 410h127q49 0 76.5 22
t27.5 65q0 41 -27.5 64t-76.5 23h-127v-174z" />
    <glyph glyph-name="C" unicode="C" horiz-adv-x="757" 
d="M389 -7q-76 0 -140.5 26.5t-112.5 74t-74.5 113t-26.5 143.5t27 143t75 112.5t112.5 73.5t139.5 26q77 0 141.5 -26.5t110.5 -76.5t68 -121l-135 -42q-24 69 -71.5 104.5t-112.5 35.5q-61 0 -108.5 -28.5t-74.5 -79.5t-27 -121t26.5 -122t73.5 -80.5t108 -28.5
q64 0 115 36.5t76 101.5l137 -32q-22 -74 -71 -126t-115 -79t-141 -27z" />
    <glyph glyph-name="D" unicode="D" horiz-adv-x="718" 
d="M69 0v698h244q112 0 194.5 -43t128.5 -122t46 -185t-46 -184t-128.5 -121t-194.5 -43h-244zM210 120h98q110 0 169.5 60t59.5 168t-59.5 170t-169.5 62h-98v-460z" />
    <glyph glyph-name="E" unicode="E" horiz-adv-x="532" 
d="M475 584h-265v-174h235v-111h-235v-185h265v-114h-406v698h406v-114z" />
    <glyph glyph-name="F" unicode="F" horiz-adv-x="530" 
d="M69 698h432v-114h-291v-178h223v-111h-223v-295h-141v698z" />
    <glyph glyph-name="G" unicode="G" horiz-adv-x="770" 
d="M565 456q-10 29 -26.5 51.5t-39 38.5t-50 24.5t-60.5 8.5q-61 0 -108.5 -29t-74 -80t-26.5 -120q0 -71 26.5 -123t76 -81t116.5 -29q39 0 72 15t58.5 39t41 54t21.5 59h-228v111h370v-395h-124v177l10 5q-2 -17 -12 -41t-29 -49.5t-47.5 -48t-66.5 -36.5t-86 -14
q-70 0 -132 26t-109.5 73.5t-75 113t-27.5 144.5t27.5 144t76 112.5t113 73t139.5 25.5q112 0 195 -51t118 -148z" />
    <glyph glyph-name="H" unicode="H" horiz-adv-x="718" 
d="M69 698h141v-698h-141v698zM508 698h141v-698h-141v698zM190 411h343v-114h-343v114z" />
    <glyph glyph-name="I" unicode="I" horiz-adv-x="421" 
d="M62 0v114h78v470h-78v114h297v-114h-78v-470h78v-114h-297z" />
    <glyph glyph-name="J" unicode="J" horiz-adv-x="570" 
d="M259 -7q-48 0 -86.5 14.5t-67 40t-46 59.5t-24.5 73l133 41q9 -50 31.5 -76t56.5 -26q27 0 44 11.5t25.5 31.5t8.5 47v489h142v-489q0 -69 -27 -117t-76 -73.5t-114 -25.5z" />
    <glyph glyph-name="K" unicode="K" horiz-adv-x="660" 
d="M69 0v698h141v-283q76 0 132 34.5t89 98t37 150.5h152q-2 -57 -22.5 -112t-53 -101.5t-72.5 -80t-84 -47.5q66 -19 120 -67t89.5 -121.5t45.5 -168.5h-152q-6 95 -43 161.5t-97.5 101.5t-140.5 35v-298h-141z" />
    <glyph glyph-name="L" unicode="L" horiz-adv-x="460" 
d="M210 698v-587h230v-111h-371v698h141z" />
    <glyph glyph-name="M" unicode="M" horiz-adv-x="900" 
d="M69 698h161l248 -580l-55 -5l248 585h160v-698h-141v583l51 -8l-237 -575h-107l-238 575l51 8v-583h-141v698z" />
    <glyph glyph-name="N" unicode="N" horiz-adv-x="736" 
d="M667 698v-698h-141l-316 477v-477h-141v698h141l316 -478v478h141z" />
    <glyph glyph-name="O" unicode="O" horiz-adv-x="785" 
d="M393 -7q-74 0 -139 26t-114 74t-77 113t-28 144q0 78 28 143t77 112.5t114 73.5t139 26t139 -26t113.5 -73.5t76.5 -112.5t28 -143q0 -79 -28 -144t-76.5 -113t-113.5 -74t-139 -26zM392 120q64 0 111.5 28t74.5 80t27 122t-27 121.5t-74.5 79.5t-111.5 28
q-62 0 -110 -28t-75 -79.5t-27 -121.5t27 -122t75 -80t110 -28z" />
    <glyph glyph-name="P" unicode="P" horiz-adv-x="609" 
d="M69 0v698h257q85 0 141 -28.5t83.5 -77.5t27.5 -110q0 -53 -25.5 -102.5t-80.5 -81t-146 -31.5h-116v-267h-141zM210 381h110q59 0 86.5 27.5t27.5 73.5q0 48 -27.5 75t-86.5 27h-110v-203z" />
    <glyph glyph-name="Q" unicode="Q" horiz-adv-x="774" 
d="M679 -125q-33 0 -72.5 12t-74 41.5t-53.5 81.5l113 58q17 -36 42 -51t60 -15q10 0 21.5 1.5t22.5 3.5v-123q-11 -4 -26 -6.5t-33 -2.5zM393 -7q-74 0 -139 26t-114 74t-77 113t-28 144q0 78 28 143t77 112.5t114 73.5t139 26t139 -26t113.5 -73.5t76.5 -112.5t28 -143
q0 -79 -28 -144t-76.5 -113t-113.5 -74t-139 -26zM393 120q63 0 110.5 28t74.5 80t27 122t-27 121.5t-74.5 79.5t-110.5 28t-111 -28t-75 -79.5t-27 -121.5t27 -122t75 -80t111 -28z" />
    <glyph glyph-name="R" unicode="R" horiz-adv-x="681" 
d="M69 0v698h263q82 0 138 -27t84.5 -74.5t28.5 -108.5q0 -67 -41.5 -114.5t-109.5 -63.5q52 -18 93.5 -61t68.5 -106t36 -143h-152q-6 71 -31 128.5t-75 91.5q-30 21 -70.5 33t-91.5 12v-265h-141zM210 379h116q55 0 84 30t29 74q0 45 -29.5 73t-83.5 28h-116v-205z" />
    <glyph glyph-name="S" unicode="S" horiz-adv-x="619" 
d="M318 -7q-72 0 -129 26t-93 72t-46 108l143 29q11 -55 43 -86t78 -31q52 0 80 22.5t28 60.5q0 31 -19.5 50t-52 32t-70.5 23.5t-76.5 24t-70.5 35.5t-51.5 56t-19.5 87q0 64 31 109.5t86.5 69.5t128.5 24q64 0 116.5 -23t86.5 -63.5t41 -92.5l-141 -36q-9 47 -37.5 73
t-70.5 26q-27 0 -49.5 -9t-35.5 -27t-13 -45q0 -30 20 -48.5t52 -31t70.5 -23t77 -24.5t71 -36t52 -56.5t19.5 -86.5q0 -55 -30.5 -103t-86.5 -77t-132 -29z" />
    <glyph glyph-name="T" unicode="T" horiz-adv-x="577" 
d="M32 698h513v-114h-186v-584h-141v584h-186v114z" />
    <glyph glyph-name="U" unicode="U" horiz-adv-x="697" 
d="M67 698h141v-431q0 -73 37 -109.5t103 -36.5q68 0 105 36.5t37 109.5v431h141v-430q0 -92 -39 -153t-104 -91.5t-142 -30.5t-140.5 30.5t-101 91.5t-37.5 153v430z" />
    <glyph glyph-name="V" unicode="V" horiz-adv-x="711" 
d="M547 698h150l-255 -698h-172l-256 698h151l191 -555z" />
    <glyph glyph-name="W" unicode="W" horiz-adv-x="1025" 
d="M22 698h151l141 -620h-38l161 620h157l154 -621h-40l143 621h152l-195 -698h-166l-144 546h28l-150 -546h-166z" />
    <glyph glyph-name="X" unicode="X" horiz-adv-x="686" 
d="M37 698h163l449 -698h-162zM362 278l-162 -278h-159l242 388zM324 421l162 277h159l-243 -387z" />
    <glyph glyph-name="Y" unicode="Y" 
d="M11 698h160l178 -381h-59l178 381h158l-236 -455v-243h-142v243z" />
    <glyph glyph-name="Z" unicode="Z" horiz-adv-x="576" 
d="M526 589l-313 -470h313v-119h-476v109l311 471h-311v118h476v-109z" />
    <glyph glyph-name="bracketleft" unicode="[" horiz-adv-x="497" 
d="M135 924h252v-115h-120v-890h120v-116h-252v1121z" />
    <glyph glyph-name="backslash" unicode="\" horiz-adv-x="758" 
d="M595 -181h-137l-285 1128h138z" />
    <glyph glyph-name="bracketright" unicode="]" horiz-adv-x="496" 
d="M362 924v-1121h-252v116h119v890h-119v115h252z" />
    <glyph glyph-name="asciicircum" unicode="^" horiz-adv-x="680" 
d="M341 533l-164 -367h-144l239 534h137l239 -534h-145z" />
    <glyph glyph-name="underscore" unicode="_" horiz-adv-x="789" 
d="M106 -41h588v-134h-588v134z" />
    <glyph glyph-name="grave" unicode="`" horiz-adv-x="272" 
d="M10 812l231 -119v-100l-231 105v114z" />
    <glyph glyph-name="a" unicode="a" horiz-adv-x="678" 
d="M282 -7q-73 0 -129 36.5t-88 101t-32 146.5q0 83 32 147t88 100.5t129 36.5q66 0 115 -34t71 -94v121h142v-554h-68q-34 0 -54 20.5t-20 54.5v47q-22 -61 -71 -95t-115 -34zM322 116q39 0 72 19t53.5 55t20.5 87q0 52 -20.5 88t-53.5 54.5t-72 18.5q-37 0 -70.5 -18.5
t-54 -54.5t-20.5 -88q0 -51 20.5 -87t54 -55t70.5 -19z" />
    <glyph glyph-name="b" unicode="b" horiz-adv-x="679" 
d="M396 -7q-65 0 -114.5 34t-70.5 95v-47q0 -34 -20 -54.5t-55 -20.5h-67v740h142v-307q21 60 70.5 94t114.5 34q73 0 129.5 -36.5t88.5 -100.5t32 -147q0 -82 -32 -146.5t-88.5 -101t-129.5 -36.5zM356 116q38 0 71 19t53.5 55t20.5 87q0 53 -20.5 88.5t-53.5 54t-71 18.5
t-71 -18.5t-53.5 -54.5t-20.5 -88q0 -51 20.5 -87t53.5 -55t71 -19z" />
    <glyph glyph-name="c" unicode="c" horiz-adv-x="601" 
d="M307 -7q-80 0 -142 35t-97 99.5t-35 150.5t34.5 149.5t96.5 98.5t143 35q44 0 83.5 -9t71.5 -28.5t57 -52t41 -80.5l-136 -43q-15 46 -44.5 70t-73.5 24q-39 0 -68 -19t-45 -55.5t-16 -89.5t16 -90t45 -56.5t68 -19.5q51 0 81.5 29.5t41.5 75.5l137 -32
q-13 -51 -46.5 -95t-85.5 -70.5t-127 -26.5z" />
    <glyph glyph-name="d" unicode="d" horiz-adv-x="678" 
d="M282 -7q-73 0 -129 36.5t-88 101t-32 146.5q0 83 32 147t88 100.5t129 36.5q66 0 115 -34t71 -94v307h142v-740h-68q-34 0 -54 20.5t-20 54.5v47q-22 -61 -71 -95t-115 -34zM322 116q39 0 72 19t53.5 55t20.5 87q0 52 -20.5 88t-53.5 54.5t-72 18.5q-37 0 -70.5 -18.5
t-54 -54.5t-20.5 -88q0 -51 20.5 -87t54 -55t70.5 -19z" />
    <glyph glyph-name="e" unicode="e" horiz-adv-x="619" 
d="M332 -7q-64 0 -118.5 20t-95 57t-63 88.5t-22.5 114.5q0 65 23 118t64 91t94 58.5t112 20.5q50 0 94 -13.5t77.5 -38t52 -58.5t18.5 -74q0 -52 -30 -87t-79.5 -55.5t-108.5 -28t-116 -5.5q-9 1 -21 1t-21.5 0.5t-12.5 0.5q6 -27 28.5 -50t55.5 -35.5t71 -12.5q33 0 64 11
t57.5 30.5t43.5 42.5l97 -73q-32 -42 -74 -69.5t-90 -40.5t-100 -13zM239 302q33 0 66.5 3t62 11.5t46 24t17.5 39.5q0 20 -13.5 35.5t-36 25t-51.5 9.5q-46 0 -81.5 -21t-55.5 -54.5t-22 -69.5q12 -1 30 -2t38 -1z" />
    <glyph glyph-name="f" unicode="f" horiz-adv-x="346" 
d="M84 0v438h-64v116h64v34q0 53 17 89.5t48 59t74 32.5t95 8v-118q-27 0 -47.5 -6t-32.5 -22.5t-12 -47.5v-29h98v-116h-98v-438h-142z" />
    <glyph glyph-name="g" unicode="g" horiz-adv-x="678" 
d="M327 -271q-67 0 -125 20.5t-100 61.5t-61 100l126 47q20 -50 62 -79.5t95 -29.5q45 0 77 18t49.5 52.5t17.5 82.5v120q-21 -61 -70 -95t-115 -34q-73 0 -129.5 36.5t-88.5 101t-32 146.5q0 83 32 147t88.5 100.5t129.5 36.5q66 0 115 -34t70 -94v121h142v-550
q0 -58 -18 -107.5t-53 -87t-88 -59t-124 -21.5zM323 116q38 0 71 18.5t53.5 55t20.5 87.5q0 52 -20.5 88t-53.5 54.5t-71 18.5t-71.5 -18.5t-54 -54.5t-20.5 -88q0 -51 20.5 -87.5t54 -55t71.5 -18.5z" />
    <glyph glyph-name="h" unicode="h" horiz-adv-x="661" 
d="M69 0v740h141v-303q13 37 40 65t63 43.5t74 15.5q63 0 110.5 -28t73.5 -80.5t26 -126.5v-326h-140v299q0 66 -34 104t-89 38q-37 0 -65 -20t-43.5 -54t-15.5 -78v-289h-141z" />
    <glyph glyph-name="i" unicode="i" horiz-adv-x="280" 
d="M68 0v554h142v-554h-142zM140 621q-42 0 -70 25.5t-28 63.5t28 64t70 26t70 -26t28 -64t-28 -63.5t-70 -25.5z" />
    <glyph glyph-name="j" unicode="j" horiz-adv-x="301" 
d="M40 -271q-32 0 -63.5 11.5t-59.5 33.5l58 102q21 -11 41 -11q27 0 45 20t18 56v613h141v-632q0 -62 -26 -105t-66.5 -65.5t-87.5 -22.5zM150 621q-42 0 -70 25.5t-28 63.5t28 64t70 26t70 -26t28 -64t-28 -63.5t-70 -25.5z" />
    <glyph glyph-name="k" unicode="k" horiz-adv-x="594" 
d="M69 0v740h141v-410q50 10 95 39.5t78 76.5t46 108h150q-16 -64 -51.5 -119t-82.5 -96t-98 -61q39 -11 78 -37.5t73 -64t58 -82.5t32 -94h-150q-10 46 -33 83.5t-53.5 66t-67 46.5t-74.5 22v-218h-141z" />
    <glyph glyph-name="l" unicode="l" horiz-adv-x="319" 
d="M69 149v591h141v-582q0 -22 13 -33t31 -11q13 0 22 4l26 -107q-35 -18 -80 -18q-37 0 -72.5 15.5t-58 50t-22.5 90.5z" />
    <glyph glyph-name="m" unicode="m" horiz-adv-x="1048" 
d="M69 0v554h141v-117q13 37 40 65t62 43.5t72 15.5q76 0 127 -42.5t63 -115.5q12 50 40 85t68 54t86 19q100 0 158.5 -61t58.5 -175v-325h-141v298q0 67 -34 105t-89 38q-56 0 -90 -43.5t-34 -109.5v-288h-140v298q0 67 -34 105t-89 38q-37 0 -65 -20t-43.5 -54.5
t-15.5 -78.5v-288h-141z" />
    <glyph glyph-name="n" unicode="n" horiz-adv-x="661" 
d="M69 0v554h141v-117q13 37 40 65t63 43.5t74 15.5q63 0 110.5 -28t73.5 -80.5t26 -126.5v-326h-140v300q0 66 -34 103.5t-89 37.5q-37 0 -65 -19.5t-43.5 -53.5t-15.5 -78v-290h-141z" />
    <glyph glyph-name="o" unicode="o" 
d="M315 -7q-80 0 -143.5 35t-101 99t-37.5 151t38 150.5t103 98t145 34.5t144.5 -34.5t102.5 -98t38 -150.5t-38.5 -151t-104 -99t-146.5 -35zM315 116q37 0 70 17.5t54 54t21 90.5t-20.5 90t-53 53.5t-69.5 17.5t-68.5 -17.5t-51.5 -53.5t-20 -90t19 -90.5t50.5 -54
t68.5 -17.5z" />
    <glyph glyph-name="p" unicode="p" horiz-adv-x="679" 
d="M396 -7q-65 0 -114.5 34t-70.5 95v-386h-142v818h142v-121q21 60 70.5 94t114.5 34q73 0 129.5 -36.5t88.5 -100.5t32 -147q0 -82 -32 -146.5t-88.5 -101t-129.5 -36.5zM356 116q38 0 71 19t53.5 55t20.5 87q0 52 -20.5 88t-53.5 54.5t-71 18.5t-71 -18.5t-53.5 -54.5
t-20.5 -88q0 -51 20.5 -87t53.5 -55t71 -19z" />
    <glyph glyph-name="q" unicode="q" horiz-adv-x="678" 
d="M468 -264v386q-22 -61 -71 -95t-115 -34q-73 0 -129 36.5t-88 101t-32 146.5q0 83 32 147t88 100.5t129 36.5q66 0 115 -34t71 -94v121h142v-818h-142zM322 116q39 0 72 19t53.5 55t20.5 87q0 52 -20.5 88t-53.5 54.5t-72 18.5q-37 0 -70.5 -18.5t-54 -54.5t-20.5 -88
q0 -51 20.5 -87t54 -55t70.5 -19z" />
    <glyph glyph-name="r" unicode="r" horiz-adv-x="408" 
d="M69 0v554h141v-554h-141zM180 259l30 168q19 62 64.5 98t108.5 36v-148q-9 3 -17.5 3.5t-17.5 0.5q-39 0 -70.5 -18t-49.5 -53t-18 -87h-30z" />
    <glyph glyph-name="s" unicode="s" horiz-adv-x="532" 
d="M272 -7q-60 0 -108 19.5t-80 54.5t-45 78l132 30q9 -33 36 -52.5t63 -19.5q42 0 63.5 16t21.5 40q0 25 -22.5 38.5t-58 22t-75.5 19t-76 28t-58.5 48t-22.5 81.5q0 45 26.5 83t75.5 60t117 22q59 0 104 -18t74 -51.5t40 -78.5l-128 -34q-9 35 -31.5 53.5t-62.5 18.5
q-38 0 -58 -14.5t-20 -38.5q0 -25 22.5 -38.5t58 -23t75.5 -20t75.5 -28.5t58 -49t22.5 -82q0 -45 -27 -82.5t-76 -59.5t-116 -22z" />
    <glyph glyph-name="t" unicode="t" horiz-adv-x="427" 
d="M280 -7q-78 0 -123.5 46.5t-45.5 132.5v267h-86v115h351v-115h-122v-272q0 -26 15 -39t34 -13q12 0 22.5 4t20.5 12l50 -97q-26 -21 -54 -31t-62 -10zM67 510v44q22 0 34.5 13t12.5 35v89h140v-66q0 -15 -7.5 -30t-20.5 -26t-31 -15z" />
    <glyph glyph-name="u" unicode="u" horiz-adv-x="661" 
d="M451 75v479h142v-554h-67q-34 0 -54.5 20.5t-20.5 54.5zM279 -7q-66 0 -114.5 28t-74.5 81t-26 128v324h140v-300q0 -67 34 -103.5t89 -36.5q38 0 66 19.5t43 53.5t15 77l22 -29q-3 -83 -30.5 -137t-70 -79.5t-93.5 -25.5z" />
    <glyph glyph-name="v" unicode="v" horiz-adv-x="600" 
d="M161 554l139 -424l139 424h151l-205 -554h-172l-203 554h151z" />
    <glyph glyph-name="w" unicode="w" horiz-adv-x="845" 
d="M7 554h143l117 -509h-42l128 509h149l126 -509h-42l116 509h136l-161 -554h-154l-121 469h44l-124 -469h-153z" />
    <glyph glyph-name="x" unicode="x" horiz-adv-x="542" 
d="M7 554h160l368 -554h-160zM292 222l-131 -222h-151l214 329zM253 338l128 216h151l-213 -323z" />
    <glyph glyph-name="y" unicode="y" 
d="M437 5v549h141v-549q0 -57 -17.5 -107t-52.5 -88t-87.5 -59.5t-123.5 -21.5q-66 0 -120 22t-92.5 64t-57.5 104l125 43q19 -50 53.5 -80.5t87.5 -30.5q67 0 105.5 41t38.5 113zM460 252q-2 -77 -20 -126t-46.5 -75.5t-61 -36.5t-63.5 -10q-65 0 -114 28t-76 81t-27 129
v312h139v-289q0 -67 34 -103.5t89 -36.5q38 0 66 19.5t42.5 53.5t14.5 77z" />
    <glyph glyph-name="z" unicode="z" horiz-adv-x="483" 
d="M442 441l-244 -325h246v-116h-406v114l242 324h-241v116h403v-113z" />
    <glyph glyph-name="braceleft" unicode="{" horiz-adv-x="508" 
d="M109 308v111q49 3 73 25t24 59q0 35 -4.5 79.5t-9.5 91.5t-5 86q0 80 47.5 123t123.5 43h69v-119h-41q-32 0 -47 -14.5t-15 -45.5q0 -30 4 -73.5t8 -90t4 -85.5q0 -51 -25 -87t-80 -47v-2q55 -10 80 -45.5t25 -87.5q0 -39 -4 -85.5t-8 -90t-4 -74.5q0 -30 15 -44.5
t47 -14.5h41v-119h-69q-76 0 -123.5 42.5t-47.5 122.5q0 41 5 87t9.5 91t4.5 79q0 37 -24 59.5t-73 25.5z" />
    <glyph glyph-name="bar" unicode="|" horiz-adv-x="308" 
d="M225 808v-929h-142v929h142z" />
    <glyph glyph-name="braceright" unicode="}" horiz-adv-x="508" 
d="M399 308q-49 -3 -73 -25.5t-24 -59.5q0 -34 5 -79t9.5 -91t4.5 -87q0 -80 -47.5 -122.5t-123.5 -42.5h-69v119h41q33 0 47.5 14.5t14.5 44.5q0 31 -4 74.5t-8 90t-4 85.5q0 52 25 87.5t80 45.5v2q-55 11 -80 47t-25 87q0 39 4 85.5t8 90t4 73.5q0 31 -14.5 45.5
t-47.5 14.5h-41v119h69q76 0 123.5 -43t47.5 -123q0 -39 -4.5 -86t-9.5 -91.5t-5 -79.5q0 -37 24 -59t73 -25v-111z" />
    <glyph glyph-name="asciitilde" unicode="~" horiz-adv-x="593" 
d="M382 223q-31 0 -55 10t-44 22.5t-39.5 22.5t-41.5 10q-26 0 -44 -16t-23 -49h-103q17 101 64 146t114 45q32 0 56 -10t44.5 -23t39.5 -23t41 -10q25 0 43.5 16t22.5 49h104q-16 -101 -64 -145.5t-115 -44.5z" />
    <glyph glyph-name="uni00A0" unicode="&#xa0;" horiz-adv-x="237" 
 />
    <glyph glyph-name="exclamdown" unicode="&#xa1;" horiz-adv-x="360" 
d="M104 -148l16 482h119l17 -482h-152zM180 569q41 0 67 -24.5t26 -61.5q0 -36 -26 -61t-67 -25q-40 0 -66.5 25t-26.5 61q0 37 26.5 61.5t66.5 24.5z" />
    <glyph glyph-name="cent" unicode="&#xa2;" horiz-adv-x="662" 
d="M324 -7q-86 0 -146 35t-92 94.5t-32 134.5q0 74 33.5 134t93 95.5t137.5 35.5q57 0 104 -15.5t82 -51t55 -94.5l-129 -34q-15 42 -43 63t-70 21q-37 0 -65 -19t-43.5 -53.5t-15.5 -81.5t16 -80t45.5 -50.5t68.5 -17.5q34 0 56 11t36 31t21 46l127 -24q-14 -48 -43.5 -89
t-77 -66t-118.5 -25zM290 -87v172h64v-172h-64zM290 431v171h64v-171h-64z" />
    <glyph glyph-name="sterling" unicode="&#xa3;" horiz-adv-x="655" 
d="M82 0l-18 86q41 35 62 70t25 70t-6 71h-106v99h82q-8 25 -14 54.5t-6 66.5q0 69 31 118t85.5 75t122.5 26q65 0 117 -26t83 -73.5t32 -112.5l-130 -20q-2 33 -14.5 59t-34.5 41t-54 15q-29 0 -52.5 -11.5t-36.5 -36.5t-13 -65q0 -28 7 -55.5t15 -54.5h188v-99h-165
q8 -49 -14 -97t-72 -85h377v-115h-491z" />
    <glyph glyph-name="currency" unicode="&#xa4;" horiz-adv-x="562" 
d="M280 197q-57 0 -101 22.5t-68.5 63t-24.5 95.5t25 95t69.5 62t101.5 22t101.5 -22t69.5 -62t25 -95t-25.5 -95.5t-70 -63t-102.5 -22.5zM118 157l-58 59l93 93l69 -48zM444 157l-92 92l61 56l89 -89zM280 283q32 0 58 23t26 71t-25 72t-58 24t-57.5 -24t-24.5 -72
t24.5 -71t56.5 -23zM151 451l-91 90l58 59l98 -98zM404 442l-58 60l98 98l58 -59z" />
    <glyph glyph-name="yen" unicode="&#xa5;" 
d="M397 410h192v-100h-199zM48 235h541v-98h-541v98zM11 698h160l175 -386h-54l175 386h159l-236 -455v-243h-142v243zM48 410h221l8 -100h-229v100z" />
    <glyph glyph-name="brokenbar" unicode="&#xa6;" horiz-adv-x="352" 
d="M247 278v-399h-142v399h142zM105 409v399h142v-399h-142z" />
    <glyph glyph-name="section" unicode="&#xa7;" horiz-adv-x="582" 
d="M290 -218q-63 0 -111.5 21t-76.5 61t-29 95h141q2 -25 10.5 -42.5t25.5 -26.5t42 -9q36 0 57 16t21 47q0 22 -13 38.5t-47 34t-95 41.5q-57 22 -97 48.5t-61 60t-21 77.5q0 43 20 79.5t63 61.5t112 34l-16 -56q-44 20 -76.5 44.5t-50.5 55.5t-18 70q0 48 26.5 87.5
t76 62.5t119.5 23q65 0 113 -21t75.5 -61t28.5 -95h-141q-1 26 -10 43t-25.5 26t-41.5 9q-37 0 -58 -16t-21 -47q0 -22 13.5 -38.5t47.5 -33.5t94 -41q57 -23 97.5 -49.5t61.5 -59.5t21 -78q0 -42 -20 -77.5t-63 -61.5t-113 -43l16 63q44 -20 76.5 -44.5t50.5 -55t18 -70.5
q0 -48 -26 -87t-76 -62.5t-120 -23.5zM293 152q50 0 78 27.5t28 64.5q0 39 -29 65.5t-79 26.5t-79 -27t-29 -65q0 -37 29.5 -64.5t80.5 -27.5z" />
    <glyph glyph-name="dieresis" unicode="&#xa8;" horiz-adv-x="339" 
d="M76 620q-28 0 -47 19.5t-19 46.5q0 29 19.5 48t46.5 19q29 0 48 -19.5t19 -47.5t-19.5 -47t-47.5 -19zM262 620q-28 0 -47 19.5t-19 46.5q0 29 19 48t47 19t47.5 -19.5t19.5 -47.5t-19 -47t-48 -19z" />
    <glyph glyph-name="copyright" unicode="&#xa9;" horiz-adv-x="784" 
d="M393 -8q-104 0 -183 45.5t-123.5 126.5t-44.5 187q0 105 44.5 185.5t123.5 126t183 45.5q103 0 182 -45.5t123 -126t44 -185.5q0 -106 -44 -187t-123 -126.5t-182 -45.5zM393 43q91 0 157 38.5t102 107.5t36 162t-36 161.5t-102 106.5t-157 38t-157.5 -38t-102.5 -106.5
t-36 -161.5t36 -162t102.5 -107.5t157.5 -38.5zM393 121q-65 0 -114.5 28t-77.5 79.5t-28 120.5t27.5 120.5t77.5 80t115 28.5q47 0 86.5 -13.5t69.5 -43t46 -80.5l-109 -34q-12 37 -35.5 56t-58.5 19q-31 0 -54.5 -15.5t-36.5 -45t-13 -72.5t13 -72.5t36.5 -45t54.5 -15.5
q40 0 64 23t35 61l109 -27q-11 -40 -37 -75t-68.5 -56t-101.5 -21z" />
    <glyph glyph-name="ordfeminine" unicode="&#xaa;" horiz-adv-x="462" 
d="M28 530q0 55 22.5 95t60.5 62.5t84 22.5t77 -19t46 -42q16 -23 25.5 -55.5t9.5 -63.5q0 -32 -9 -63t-26 -59q-14 -28 -45.5 -44t-74.5 -16q-48 0 -86 22.5t-61 64t-23 95.5zM140 529q0 -47 27 -71.5t62 -24.5t62 24.5t27 71.5t-27 71.5t-62 24.5t-62 -24.5t-27 -71.5z
M318 394v310h108v-350h-68q-19 0 -29.5 10.5t-10.5 29.5z" />
    <glyph glyph-name="guillemotleft" unicode="&#xab;" horiz-adv-x="522" 
d="M266 120h-133l-88 175l88 175h133l-91 -175zM474 120h-133l-88 175l88 175h133l-91 -175z" />
    <glyph glyph-name="logicalnot" unicode="&#xac;" horiz-adv-x="667" 
d="M35 438h591v-243h-141v135h-450v108z" />
    <glyph glyph-name="registered" unicode="&#xae;" horiz-adv-x="515" 
d="M258 284q-62 0 -110 27.5t-75.5 75.5t-27.5 110q0 61 27.5 109t75.5 75.5t110 27.5q63 0 110.5 -27.5t75 -75.5t27.5 -109q0 -62 -27.5 -110t-75 -75.5t-110.5 -27.5zM258 335q73 0 115.5 45t42.5 117t-42.5 116.5t-115.5 44.5t-115.5 -44.5t-42.5 -116.5t42.5 -117
t115.5 -45zM286 392q0 19 -3.5 36t-14 28t-31.5 11v-75h-67v214h106q35 0 56 -18.5t21 -50.5q0 -39 -30 -58q15 -9 24 -23t13 -30t4 -34h-78zM236 517h32q7 0 12 3.5t5 12.5q0 8 -5 11.5t-12 3.5h-32v-31z" />
    <glyph glyph-name="macron" unicode="&#xaf;" horiz-adv-x="403" 
d="M10 732h383v-100h-383v100z" />
    <glyph glyph-name="degree" unicode="&#xb0;" horiz-adv-x="445" 
d="M222 347q-58 0 -101.5 22t-68.5 62.5t-25 95.5q0 56 25 95.5t69.5 61t101.5 21.5t101 -21.5t69 -61t25 -95.5q0 -55 -25 -95t-69.5 -62.5t-101.5 -22.5zM222 427q32 0 58.5 24t26.5 76q0 51 -26 76t-59 25t-59 -25t-26 -76q0 -52 26 -76t59 -24z" />
    <glyph glyph-name="plusminus" unicode="&#xb1;" horiz-adv-x="667" 
d="M401 623v-462h-134v462h134zM79 488h509v-123h-509v123zM79 242h509v-123h-509v123z" />
    <glyph glyph-name="uni00B2" unicode="&#xb2;" horiz-adv-x="361" 
d="M183 707q47 0 78 -16t47 -42t16 -55q0 -37 -25 -64.5t-81 -58.5l-65 -39h169v-86h-288v81l115 76q29 21 45 41t16 44q0 18 -9.5 28.5t-25.5 10.5q-20 0 -30 -17.5t-10 -34.5l-105 20q3 32 21 57.5t51.5 40t80.5 14.5z" />
    <glyph glyph-name="uni00B3" unicode="&#xb3;" horiz-adv-x="347" 
d="M164 342q-23 0 -48 5t-47.5 16t-36.5 29.5t-15 45.5l98 20q4 -20 15.5 -29t29.5 -9t30 10t12 29q0 18 -13 28t-34 10h-35v57h30q22 0 34.5 9.5t12.5 28.5q0 17 -10.5 26.5t-30.5 9.5q-18 0 -28 -8.5t-14 -24.5l-95 30q9 23 26.5 41.5t47 29.5t73.5 11q43 0 76.5 -14
t52 -38t18.5 -53q0 -31 -17.5 -50t-46.5 -27v-2q31 -9 50 -29t19 -52q0 -44 -42.5 -72t-111.5 -28z" />
    <glyph glyph-name="acute" unicode="&#xb4;" horiz-adv-x="251" 
d="M241 812v-114l-231 -105v100z" />
    <glyph glyph-name="uni00B5" unicode="&#xb5;" horiz-adv-x="679" 
d="M604 0h-142v554h142v-554zM484 140q-11 -45 -38.5 -78t-67 -50.5t-88.5 -17.5q-26 0 -49.5 7.5t-41.5 22.5l17 10v-298h-141v818h141v-304q0 -66 33.5 -100t88.5 -34q57 0 90.5 34t33.5 100z" />
    <glyph glyph-name="paragraph" unicode="&#xb6;" horiz-adv-x="668" 
d="M593 698v-698h-121v590h-64v-590h-120v278q-83 0 -140.5 29t-86.5 77t-29 103q0 57 24.5 105t77 77t135.5 29h324z" />
    <glyph glyph-name="periodcentered" unicode="&#xb7;" horiz-adv-x="284" 
d="M145 243q-41 0 -67.5 25t-26.5 61q0 37 26.5 61.5t67.5 24.5q40 0 66 -24.5t26 -61.5q0 -36 -26 -61t-66 -25z" />
    <glyph glyph-name="cedilla" unicode="&#xb8;" horiz-adv-x="295" 
d="M155 -43q34 0 64 -11.5t48 -35.5t18 -62q0 -37 -18.5 -62.5t-48.5 -37.5t-66 -12h-142v82h119q23 0 36 7t13 25q0 19 -13 25t-36 6h-62v126h88v-50z" />
    <glyph glyph-name="uni00B9" unicode="&#xb9;" horiz-adv-x="258" 
d="M107 346v253q-11 -26 -36 -40.5t-51 -14.5v101q28 0 51 14.5t33 38.5h111v-352h-108z" />
    <glyph glyph-name="ordmasculine" unicode="&#xba;" horiz-adv-x="451" 
d="M224 347q-57 0 -101.5 23t-69.5 64t-25 94q0 55 25.5 95.5t70 63t101.5 22.5q58 0 102.5 -22.5t69.5 -63t25 -94.5t-25.5 -95t-70.5 -64t-102 -23zM223 431q34 0 61 24.5t27 72.5t-26.5 73t-60.5 25q-33 0 -59 -25t-26 -73t25.5 -72.5t58.5 -24.5z" />
    <glyph glyph-name="guillemotright" unicode="&#xbb;" horiz-adv-x="522" 
d="M258 120l91 175l-91 175h133l88 -175l-88 -175h-133zM50 120l91 175l-91 175h133l88 -175l-88 -175h-133z" />
    <glyph glyph-name="onequarter" unicode="&#xbc;" horiz-adv-x="732" 
d="M459 698h135l-383 -698h-136zM698 129v-64h-43v-65h-108v65h-191v58l149 229h150v-223h43zM550 130v146l-88 -146h88zM124 346v253q-12 -26 -36.5 -40.5t-50.5 -14.5v101q27 0 50.5 14.5t32.5 38.5h112v-352h-108z" />
    <glyph glyph-name="onehalf" unicode="&#xbd;" horiz-adv-x="759" 
d="M453 698h135l-377 -698h-136zM124 346v253q-12 -26 -36.5 -40.5t-50.5 -14.5v101q27 0 50.5 14.5t32.5 38.5h112v-352h-108zM566 354q47 0 78.5 -16t47 -42t15.5 -55q0 -37 -24.5 -64.5t-80.5 -58.5l-66 -39h170v-86h-289v81l115 76q30 21 45.5 41t15.5 44q0 18 -9 28.5
t-26 10.5q-20 0 -30 -17.5t-10 -34.5l-104 20q2 32 20.5 57.5t52 40t79.5 14.5z" />
    <glyph glyph-name="threequarters" unicode="&#xbe;" horiz-adv-x="814" 
d="M564 698h135l-394 -698h-135zM791 129v-64h-43v-65h-108v65h-191v58l144 229h155v-223h43zM644 129v152l-89 -152h89zM189 342q-24 0 -49 5t-47 16t-36 29.5t-16 45.5l99 20q3 -20 15 -29t30 -9t30 10t12 29q0 18 -13 28t-34 10h-36v57h31q22 0 34.5 9.5t12.5 28.5
q0 17 -10.5 26.5t-30.5 9.5q-18 0 -28.5 -8.5t-13.5 -24.5l-95 30q9 23 26.5 41.5t47 29.5t73.5 11q43 0 76 -14t52 -38t19 -53q0 -31 -18 -50t-47 -27v-2q31 -9 50 -29t19 -52q0 -44 -42.5 -72t-110.5 -28z" />
    <glyph glyph-name="questiondown" unicode="&#xbf;" horiz-adv-x="531" 
d="M398 326l6 -170h-71q-45 0 -80 -12t-54.5 -36.5t-19.5 -63.5q0 -37 24.5 -63.5t69.5 -26.5q40 0 66.5 25.5t34.5 70.5l123 -39q-8 -49 -38 -88.5t-78 -63t-109 -23.5q-69 0 -120.5 25.5t-80 72.5t-28.5 112q0 63 29 108t80.5 70t117.5 25l6 77h122zM330 566
q41 0 67.5 -24.5t26.5 -61.5q0 -36 -26.5 -61t-67.5 -25q-40 0 -66.5 25t-26.5 61q0 37 26.5 61.5t66.5 24.5z" />
    <glyph glyph-name="Agrave" unicode="&#xc0;" horiz-adv-x="716" 
d="M440 698l252 -698h-149l-215 624h60l-215 -624h-148l252 698h163zM168 245h370l36 -112h-442zM237 957l231 -119v-100l-231 105v114z" />
    <glyph glyph-name="Aacute" unicode="&#xc1;" horiz-adv-x="716" 
d="M440 698l252 -698h-149l-215 624h60l-215 -624h-148l252 698h163zM168 245h370l36 -112h-442zM468 957v-114l-231 -105v100z" />
    <glyph glyph-name="Acircumflex" unicode="&#xc2;" horiz-adv-x="716" 
d="M440 698l252 -698h-149l-215 624h60l-215 -624h-148l252 698h163zM168 245h370l36 -112h-442zM507 738l-148 84l-149 -84v103l149 81l148 -81v-103z" />
    <glyph glyph-name="Atilde" unicode="&#xc3;" horiz-adv-x="716" 
d="M440 698l252 -698h-149l-215 624h60l-215 -624h-148l252 698h163zM168 245h370l36 -112h-442zM419 750q-28 0 -48 11t-37.5 22.5t-37.5 11.5q-16 0 -28 -10.5t-15 -33.5h-76q11 69 44.5 101t81.5 32q28 0 48 -11.5t37.5 -22.5t37.5 -11q17 0 28.5 10.5t14.5 32.5h76
q-11 -68 -44 -100t-82 -32z" />
    <glyph glyph-name="Adieresis" unicode="&#xc4;" horiz-adv-x="716" 
d="M440 698l252 -698h-149l-215 624h60l-215 -624h-148l252 698h163zM168 245h370l36 -112h-442zM265 765q-28 0 -47 19.5t-19 46.5q0 29 19.5 48t46.5 19q29 0 48 -19.5t19 -47.5t-19.5 -47t-47.5 -19zM451 765q-28 0 -47 19.5t-19 46.5q0 29 19 48t47 19t47.5 -19.5
t19.5 -47.5t-19 -47t-48 -19z" />
    <glyph glyph-name="Aring" unicode="&#xc5;" horiz-adv-x="716" 
d="M440 698l252 -698h-149l-215 624h60l-215 -624h-148l252 698h163zM168 245h370l36 -112h-442zM477 862q0 -53 -34.5 -84t-83.5 -31q-48 0 -82.5 31t-34.5 84t34.5 84t82.5 31q49 0 83.5 -31t34.5 -84zM407 863q0 22 -14 36t-34 14q-19 0 -33.5 -14t-14.5 -36t14.5 -36
t33.5 -14q20 0 34 14t14 36z" />
    <glyph glyph-name="AE" unicode="&#xc6;" horiz-adv-x="938" 
d="M9 0l372 698h499v-111h-262v-178h232v-108h-232v-190h262v-111h-403v596l-314 -596h-154zM153 131l61 108h330v-108h-391z" />
    <glyph glyph-name="Ccedilla" unicode="&#xc7;" horiz-adv-x="757" 
d="M430 -43q34 0 64 -11.5t48 -35.5t18 -62q0 -37 -18.5 -62.5t-48.5 -37.5t-66 -12h-142v82h119q23 0 36 7t13 25q0 19 -13 25t-36 6h-62v126h88v-50zM389 -7q-76 0 -140.5 26.5t-112.5 74t-74.5 113t-26.5 143.5t27 143t75 112.5t112.5 73.5t139.5 26q77 0 141.5 -26.5
t110.5 -76.5t68 -121l-135 -42q-24 69 -71.5 104.5t-112.5 35.5q-61 0 -108.5 -28.5t-74.5 -79.5t-27 -121t26.5 -122t73.5 -80.5t108 -28.5q64 0 115 36.5t76 101.5l137 -32q-22 -74 -71 -126t-115 -79t-141 -27z" />
    <glyph glyph-name="Egrave" unicode="&#xc8;" horiz-adv-x="532" 
d="M475 584h-265v-174h235v-111h-235v-185h265v-114h-406v698h406v-114zM151 957l231 -119v-100l-231 105v114z" />
    <glyph glyph-name="Eacute" unicode="&#xc9;" horiz-adv-x="532" 
d="M475 584h-265v-174h235v-111h-235v-185h265v-114h-406v698h406v-114zM382 957v-114l-231 -105v100z" />
    <glyph glyph-name="Ecircumflex" unicode="&#xca;" horiz-adv-x="532" 
d="M475 584h-265v-174h235v-111h-235v-185h265v-114h-406v698h406v-114zM420 738l-148 84l-149 -84v103l149 81l148 -81v-103z" />
    <glyph glyph-name="Edieresis" unicode="&#xcb;" horiz-adv-x="532" 
d="M475 584h-265v-174h235v-111h-235v-185h265v-114h-406v698h406v-114zM178 765q-28 0 -47 19.5t-19 46.5q0 29 19.5 48t46.5 19q29 0 48 -19.5t19 -47.5t-19.5 -47t-47.5 -19zM364 765q-28 0 -47 19.5t-19 46.5q0 29 19 48t47 19t47.5 -19.5t19.5 -47.5t-19 -47t-48 -19z
" />
    <glyph glyph-name="Igrave" unicode="&#xcc;" horiz-adv-x="421" 
d="M62 0v114h78v470h-78v114h297v-114h-78v-470h78v-114h-297zM90 957l231 -119v-100l-231 105v114z" />
    <glyph glyph-name="Iacute" unicode="&#xcd;" horiz-adv-x="421" 
d="M62 0v114h78v470h-78v114h297v-114h-78v-470h78v-114h-297zM321 957v-114l-231 -105v100z" />
    <glyph glyph-name="Icircumflex" unicode="&#xce;" horiz-adv-x="421" 
d="M62 0v114h78v470h-78v114h297v-114h-78v-470h78v-114h-297zM359 738l-148 84l-149 -84v103l149 81l148 -81v-103z" />
    <glyph glyph-name="Idieresis" unicode="&#xcf;" horiz-adv-x="421" 
d="M62 0v114h78v470h-78v114h297v-114h-78v-470h78v-114h-297zM117 765q-28 0 -47 19.5t-19 46.5q0 29 19.5 48t46.5 19q29 0 48 -19.5t19 -47.5t-19.5 -47t-47.5 -19zM303 765q-28 0 -47 19.5t-19 46.5q0 29 19 48t47 19t47.5 -19.5t19.5 -47.5t-19 -47t-48 -19z" />
    <glyph glyph-name="Eth" unicode="&#xd0;" horiz-adv-x="726" 
d="M77 0v698h245q112 0 194.5 -43t128 -122t45.5 -185t-45.5 -184t-128 -121t-194.5 -43h-245zM7 287v123h378v-123h-378zM219 115h98q110 0 169 62.5t59 170.5t-59 170t-169 62h-98v-465z" />
    <glyph glyph-name="Ntilde" unicode="&#xd1;" horiz-adv-x="736" 
d="M667 698v-698h-141l-316 477v-477h-141v698h141l316 -478v478h141zM428 750q-28 0 -48 11t-37.5 22.5t-37.5 11.5q-16 0 -28 -10.5t-15 -33.5h-76q11 69 44.5 101t81.5 32q28 0 48 -11.5t37.5 -22.5t37.5 -11q17 0 28.5 10.5t14.5 32.5h76q-11 -68 -44 -100t-82 -32z" />
    <glyph glyph-name="Ograve" unicode="&#xd2;" horiz-adv-x="785" 
d="M393 -7q-74 0 -139 26t-114 74t-77 113t-28 144q0 78 28 143t77 112.5t114 73.5t139 26t139 -26t113.5 -73.5t76.5 -112.5t28 -143q0 -79 -28 -144t-76.5 -113t-113.5 -74t-139 -26zM392 120q64 0 111.5 28t74.5 80t27 122t-27 121.5t-74.5 79.5t-111.5 28
q-62 0 -110 -28t-75 -79.5t-27 -121.5t27 -122t75 -80t110 -28zM271 957l231 -119v-100l-231 105v114z" />
    <glyph glyph-name="Oacute" unicode="&#xd3;" horiz-adv-x="785" 
d="M393 -7q-74 0 -139 26t-114 74t-77 113t-28 144q0 78 28 143t77 112.5t114 73.5t139 26t139 -26t113.5 -73.5t76.5 -112.5t28 -143q0 -79 -28 -144t-76.5 -113t-113.5 -74t-139 -26zM392 120q64 0 111.5 28t74.5 80t27 122t-27 121.5t-74.5 79.5t-111.5 28
q-62 0 -110 -28t-75 -79.5t-27 -121.5t27 -122t75 -80t110 -28zM502 957v-114l-231 -105v100z" />
    <glyph glyph-name="Ocircumflex" unicode="&#xd4;" horiz-adv-x="785" 
d="M393 -7q-74 0 -139 26t-114 74t-77 113t-28 144q0 78 28 143t77 112.5t114 73.5t139 26t139 -26t113.5 -73.5t76.5 -112.5t28 -143q0 -79 -28 -144t-76.5 -113t-113.5 -74t-139 -26zM392 120q64 0 111.5 28t74.5 80t27 122t-27 121.5t-74.5 79.5t-111.5 28
q-62 0 -110 -28t-75 -79.5t-27 -121.5t27 -122t75 -80t110 -28zM541 738l-148 84l-149 -84v103l149 81l148 -81v-103z" />
    <glyph glyph-name="Otilde" unicode="&#xd5;" horiz-adv-x="785" 
d="M393 -7q-74 0 -139 26t-114 74t-77 113t-28 144q0 78 28 143t77 112.5t114 73.5t139 26t139 -26t113.5 -73.5t76.5 -112.5t28 -143q0 -79 -28 -144t-76.5 -113t-113.5 -74t-139 -26zM392 120q64 0 111.5 28t74.5 80t27 122t-27 121.5t-74.5 79.5t-111.5 28
q-62 0 -110 -28t-75 -79.5t-27 -121.5t27 -122t75 -80t110 -28zM453 750q-28 0 -48 11t-37.5 22.5t-37.5 11.5q-16 0 -28 -10.5t-15 -33.5h-76q11 69 44.5 101t81.5 32q28 0 48 -11.5t37.5 -22.5t37.5 -11q17 0 28.5 10.5t14.5 32.5h76q-11 -68 -44 -100t-82 -32z" />
    <glyph glyph-name="Odieresis" unicode="&#xd6;" horiz-adv-x="785" 
d="M393 -7q-74 0 -139 26t-114 74t-77 113t-28 144q0 78 28 143t77 112.5t114 73.5t139 26t139 -26t113.5 -73.5t76.5 -112.5t28 -143q0 -79 -28 -144t-76.5 -113t-113.5 -74t-139 -26zM392 120q64 0 111.5 28t74.5 80t27 122t-27 121.5t-74.5 79.5t-111.5 28
q-62 0 -110 -28t-75 -79.5t-27 -121.5t27 -122t75 -80t110 -28zM299 765q-28 0 -47 19.5t-19 46.5q0 29 19.5 48t46.5 19q29 0 48 -19.5t19 -47.5t-19.5 -47t-47.5 -19zM485 765q-28 0 -47 19.5t-19 46.5q0 29 19 48t47 19t47.5 -19.5t19.5 -47.5t-19 -47t-48 -19z" />
    <glyph glyph-name="multiply" unicode="&#xd7;" horiz-adv-x="667" 
d="M192 593l379 -379l-92 -91l-379 379zM96 215l378 378l92 -92l-378 -378z" />
    <glyph glyph-name="Oslash" unicode="&#xd8;" horiz-adv-x="785" 
d="M664 698h97l-640 -698h-97zM392 -7q-73 0 -138 26t-114.5 74t-77 113t-27.5 144q0 78 27.5 143t77 112.5t114.5 73.5t138 26q75 0 139.5 -26t113.5 -73.5t76.5 -112.5t27.5 -143q0 -79 -27.5 -144t-76.5 -113t-113.5 -74t-139.5 -26zM392 120q63 0 111 28t75 80t27 122
t-27 121.5t-75 79.5t-111 28t-111 -28t-74.5 -79.5t-26.5 -121.5t26.5 -122t74.5 -80t111 -28z" />
    <glyph glyph-name="Ugrave" unicode="&#xd9;" horiz-adv-x="697" 
d="M67 698h141v-431q0 -73 37 -109.5t103 -36.5q68 0 105 36.5t37 109.5v431h141v-430q0 -92 -39 -153t-104 -91.5t-142 -30.5t-140.5 30.5t-101 91.5t-37.5 153v430zM227 957l231 -119v-100l-231 105v114z" />
    <glyph glyph-name="Uacute" unicode="&#xda;" horiz-adv-x="697" 
d="M67 698h141v-431q0 -73 37 -109.5t103 -36.5q68 0 105 36.5t37 109.5v431h141v-430q0 -92 -39 -153t-104 -91.5t-142 -30.5t-140.5 30.5t-101 91.5t-37.5 153v430zM458 957v-114l-231 -105v100z" />
    <glyph glyph-name="Ucircumflex" unicode="&#xdb;" horiz-adv-x="697" 
d="M67 698h141v-431q0 -73 37 -109.5t103 -36.5q68 0 105 36.5t37 109.5v431h141v-430q0 -92 -39 -153t-104 -91.5t-142 -30.5t-140.5 30.5t-101 91.5t-37.5 153v430zM497 738l-148 84l-149 -84v103l149 81l148 -81v-103z" />
    <glyph glyph-name="Udieresis" unicode="&#xdc;" horiz-adv-x="697" 
d="M67 698h141v-431q0 -73 37 -109.5t103 -36.5q68 0 105 36.5t37 109.5v431h141v-430q0 -92 -39 -153t-104 -91.5t-142 -30.5t-140.5 30.5t-101 91.5t-37.5 153v430zM255 765q-28 0 -47 19.5t-19 46.5q0 29 19.5 48t46.5 19q29 0 48 -19.5t19 -47.5t-19.5 -47t-47.5 -19z
M441 765q-28 0 -47 19.5t-19 46.5q0 29 19 48t47 19t47.5 -19.5t19.5 -47.5t-19 -47t-48 -19z" />
    <glyph glyph-name="Yacute" unicode="&#xdd;" 
d="M11 698h160l178 -381h-59l178 381h158l-236 -455v-243h-142v243zM429 957v-114l-231 -105v100z" />
    <glyph glyph-name="Thorn" unicode="&#xde;" horiz-adv-x="609" 
d="M69 0v698h140v-137h117q85 0 141 -28.5t83.5 -77t27.5 -108.5q0 -52 -25.5 -101t-80.5 -80t-146 -31h-116v-135h-141zM210 243h110q59 0 86.5 29t27.5 75q0 47 -27.5 76t-86.5 29h-110v-209z" />
    <glyph glyph-name="germandbls" unicode="&#xdf;" horiz-adv-x="729" 
d="M51 549q0 63 30 113t89 79t147 29q77 0 131 -25t82 -65t28 -86q0 -36 -12.5 -62.5t-31 -47t-36.5 -36.5t-30.5 -29t-12.5 -27q0 -10 7.5 -19t28.5 -19.5t63 -25.5q77 -27 110 -67t33 -100q0 -50 -25.5 -89t-72 -60.5t-111.5 -21.5q-95 0 -153.5 48.5t-68.5 138.5h136
q1 -37 23 -58.5t61 -21.5q34 0 52.5 13.5t18.5 41.5q0 27 -17.5 44.5t-69.5 35.5q-81 28 -119 59t-38 79q0 28 12.5 50.5t31 42t37.5 37t31 36.5t12 40q0 37 -28.5 57t-76.5 20q-65 0 -92.5 -31.5t-27.5 -86.5v-535h-141v549z" />
    <glyph glyph-name="agrave" unicode="&#xe0;" horiz-adv-x="678" 
d="M282 -7q-73 0 -129 36.5t-88 101t-32 146.5q0 83 32 147t88 100.5t129 36.5q66 0 115 -34t71 -94v121h142v-554h-68q-34 0 -54 20.5t-20 54.5v47q-22 -61 -71 -95t-115 -34zM322 116q39 0 72 19t53.5 55t20.5 87q0 52 -20.5 88t-53.5 54.5t-72 18.5q-37 0 -70.5 -18.5
t-54 -54.5t-20.5 -88q0 -51 20.5 -87t54 -55t70.5 -19zM218 812l231 -119v-100l-231 105v114z" />
    <glyph glyph-name="aacute" unicode="&#xe1;" horiz-adv-x="678" 
d="M282 -7q-73 0 -129 36.5t-88 101t-32 146.5q0 83 32 147t88 100.5t129 36.5q66 0 115 -34t71 -94v121h142v-554h-68q-34 0 -54 20.5t-20 54.5v47q-22 -61 -71 -95t-115 -34zM322 116q39 0 72 19t53.5 55t20.5 87q0 52 -20.5 88t-53.5 54.5t-72 18.5q-37 0 -70.5 -18.5
t-54 -54.5t-20.5 -88q0 -51 20.5 -87t54 -55t70.5 -19zM449 812v-114l-231 -105v100z" />
    <glyph glyph-name="acircumflex" unicode="&#xe2;" horiz-adv-x="678" 
d="M282 -7q-73 0 -129 36.5t-88 101t-32 146.5q0 83 32 147t88 100.5t129 36.5q66 0 115 -34t71 -94v121h142v-554h-68q-34 0 -54 20.5t-20 54.5v47q-22 -61 -71 -95t-115 -34zM322 116q39 0 72 19t53.5 55t20.5 87q0 52 -20.5 88t-53.5 54.5t-72 18.5q-37 0 -70.5 -18.5
t-54 -54.5t-20.5 -88q0 -51 20.5 -87t54 -55t70.5 -19zM487 593l-148 84l-149 -84v103l149 81l148 -81v-103z" />
    <glyph glyph-name="atilde" unicode="&#xe3;" horiz-adv-x="678" 
d="M282 -7q-73 0 -129 36.5t-88 101t-32 146.5q0 83 32 147t88 100.5t129 36.5q66 0 115 -34t71 -94v121h142v-554h-68q-34 0 -54 20.5t-20 54.5v47q-22 -61 -71 -95t-115 -34zM322 116q39 0 72 19t53.5 55t20.5 87q0 52 -20.5 88t-53.5 54.5t-72 18.5q-37 0 -70.5 -18.5
t-54 -54.5t-20.5 -88q0 -51 20.5 -87t54 -55t70.5 -19zM400 605q-28 0 -48 11t-37.5 22.5t-37.5 11.5q-16 0 -28 -10.5t-15 -33.5h-76q11 69 44.5 101t81.5 32q28 0 48 -11.5t37.5 -22.5t37.5 -11q17 0 28.5 10.5t14.5 32.5h76q-11 -68 -44 -100t-82 -32z" />
    <glyph glyph-name="adieresis" unicode="&#xe4;" horiz-adv-x="678" 
d="M282 -7q-73 0 -129 36.5t-88 101t-32 146.5q0 83 32 147t88 100.5t129 36.5q66 0 115 -34t71 -94v121h142v-554h-68q-34 0 -54 20.5t-20 54.5v47q-22 -61 -71 -95t-115 -34zM322 116q39 0 72 19t53.5 55t20.5 87q0 52 -20.5 88t-53.5 54.5t-72 18.5q-37 0 -70.5 -18.5
t-54 -54.5t-20.5 -88q0 -51 20.5 -87t54 -55t70.5 -19zM246 620q-28 0 -47 19.5t-19 46.5q0 29 19.5 48t46.5 19q29 0 48 -19.5t19 -47.5t-19.5 -47t-47.5 -19zM432 620q-28 0 -47 19.5t-19 46.5q0 29 19 48t47 19t47.5 -19.5t19.5 -47.5t-19 -47t-48 -19z" />
    <glyph glyph-name="aring" unicode="&#xe5;" horiz-adv-x="678" 
d="M282 -7q-73 0 -129 36.5t-88 101t-32 146.5q0 83 32 147t88 100.5t129 36.5q66 0 115 -34t71 -94v121h142v-554h-68q-34 0 -54 20.5t-20 54.5v47q-22 -61 -71 -95t-115 -34zM322 116q39 0 72 19t53.5 55t20.5 87q0 52 -20.5 88t-53.5 54.5t-72 18.5q-37 0 -70.5 -18.5
t-54 -54.5t-20.5 -88q0 -51 20.5 -87t54 -55t70.5 -19zM457 717q0 -53 -34.5 -84t-83.5 -31q-48 0 -82.5 31t-34.5 84t34.5 84t82.5 31q49 0 83.5 -31t34.5 -84zM387 718q0 22 -14 36t-34 14q-19 0 -33.5 -14t-14.5 -36t14.5 -36t33.5 -14q20 0 34 14t14 36z" />
    <glyph glyph-name="ae" unicode="&#xe6;" horiz-adv-x="1113" 
d="M282 -7q-73 0 -129 36.5t-88 100.5t-32 147q0 82 32 146.5t88 101t129 36.5q66 0 115 -34t71 -94v121h142v-554h-68q-34 0 -54 20.5t-20 54.5v47q-22 -61 -71 -95t-115 -34zM322 116q39 0 72 19t53.5 55t20.5 87q0 52 -20.5 88t-53.5 54.5t-72 18.5q-37 0 -70.5 -18.5
t-54 -54.5t-20.5 -88t20.5 -87.5t54 -54.5t70.5 -19zM817 -7q-64 0 -119 20t-95.5 57t-63 88.5t-22.5 114.5q0 65 23.5 118t64 91t94 58.5t112.5 20.5q50 0 94 -13.5t77.5 -38t52 -58.5t18.5 -74q0 -42 -20 -72.5t-54.5 -51t-77 -32.5t-88 -16.5t-88.5 -3.5q-10 1 -23 1
t-23.5 0.5t-14.5 0.5q6 -27 28 -50t55.5 -35.5t70.5 -12.5q33 0 64.5 11t57.5 30.5t44 42.5l97 -73q-32 -42 -74 -69.5t-90.5 -40.5t-99.5 -13zM728 302q32 0 65 3t61 11.5t45 24t17 39.5q0 20 -13.5 35.5t-36.5 25t-52 9.5q-46 0 -81 -21t-55 -54.5t-22 -69.5q14 -1 32 -2
t40 -1z" />
    <glyph glyph-name="ccedilla" unicode="&#xe7;" horiz-adv-x="601" 
d="M307 -7q-80 0 -142 35t-97 99.5t-35 150.5t34.5 149.5t96.5 98.5t143 35q44 0 83.5 -9t71.5 -28.5t57 -52t41 -80.5l-136 -43q-15 46 -44.5 70t-73.5 24q-39 0 -68 -19t-45 -55.5t-16 -89.5t16 -90t45 -56.5t68 -19.5q51 0 81.5 29.5t41.5 75.5l137 -32
q-13 -51 -46.5 -95t-85.5 -70.5t-127 -26.5zM204 -264v82h119q23 0 36 7t13 25q0 19 -13 25t-36 6h-62v124h88v-48q34 0 64 -11.5t48 -35.5t18 -62q0 -37 -18.5 -62.5t-48.5 -37.5t-66 -12h-142z" />
    <glyph glyph-name="egrave" unicode="&#xe8;" horiz-adv-x="619" 
d="M332 -7q-64 0 -118.5 20t-95 57t-63 88.5t-22.5 114.5q0 65 23 118t64 91t94 58.5t112 20.5q50 0 94 -13.5t77.5 -38t52 -58.5t18.5 -74q0 -52 -30 -87t-79.5 -55.5t-108.5 -28t-116 -5.5q-9 1 -21 1t-21.5 0.5t-12.5 0.5q6 -27 28.5 -50t55.5 -35.5t71 -12.5q33 0 64 11
t57.5 30.5t43.5 42.5l97 -73q-32 -42 -74 -69.5t-90 -40.5t-100 -13zM239 302q33 0 66.5 3t62 11.5t46 24t17.5 39.5q0 20 -13.5 35.5t-36 25t-51.5 9.5q-46 0 -81.5 -21t-55.5 -54.5t-22 -69.5q12 -1 30 -2t38 -1zM192 812l231 -119v-100l-231 105v114z" />
    <glyph glyph-name="eacute" unicode="&#xe9;" horiz-adv-x="619" 
d="M332 -7q-64 0 -118.5 20t-95 57t-63 88.5t-22.5 114.5q0 65 23 118t64 91t94 58.5t112 20.5q50 0 94 -13.5t77.5 -38t52 -58.5t18.5 -74q0 -52 -30 -87t-79.5 -55.5t-108.5 -28t-116 -5.5q-9 1 -21 1t-21.5 0.5t-12.5 0.5q6 -27 28.5 -50t55.5 -35.5t71 -12.5q33 0 64 11
t57.5 30.5t43.5 42.5l97 -73q-32 -42 -74 -69.5t-90 -40.5t-100 -13zM239 302q33 0 66.5 3t62 11.5t46 24t17.5 39.5q0 20 -13.5 35.5t-36 25t-51.5 9.5q-46 0 -81.5 -21t-55.5 -54.5t-22 -69.5q12 -1 30 -2t38 -1zM423 812v-114l-231 -105v100z" />
    <glyph glyph-name="ecircumflex" unicode="&#xea;" horiz-adv-x="619" 
d="M332 -7q-64 0 -118.5 20t-95 57t-63 88.5t-22.5 114.5q0 65 23 118t64 91t94 58.5t112 20.5q50 0 94 -13.5t77.5 -38t52 -58.5t18.5 -74q0 -52 -30 -87t-79.5 -55.5t-108.5 -28t-116 -5.5q-9 1 -21 1t-21.5 0.5t-12.5 0.5q6 -27 28.5 -50t55.5 -35.5t71 -12.5q33 0 64 11
t57.5 30.5t43.5 42.5l97 -73q-32 -42 -74 -69.5t-90 -40.5t-100 -13zM239 302q33 0 66.5 3t62 11.5t46 24t17.5 39.5q0 20 -13.5 35.5t-36 25t-51.5 9.5q-46 0 -81.5 -21t-55.5 -54.5t-22 -69.5q12 -1 30 -2t38 -1zM462 593l-148 84l-149 -84v103l149 81l148 -81v-103z" />
    <glyph glyph-name="edieresis" unicode="&#xeb;" horiz-adv-x="619" 
d="M332 -7q-64 0 -118.5 20t-95 57t-63 88.5t-22.5 114.5q0 65 23 118t64 91t94 58.5t112 20.5q50 0 94 -13.5t77.5 -38t52 -58.5t18.5 -74q0 -52 -30 -87t-79.5 -55.5t-108.5 -28t-116 -5.5q-9 1 -21 1t-21.5 0.5t-12.5 0.5q6 -27 28.5 -50t55.5 -35.5t71 -12.5q33 0 64 11
t57.5 30.5t43.5 42.5l97 -73q-32 -42 -74 -69.5t-90 -40.5t-100 -13zM239 302q33 0 66.5 3t62 11.5t46 24t17.5 39.5q0 20 -13.5 35.5t-36 25t-51.5 9.5q-46 0 -81.5 -21t-55.5 -54.5t-22 -69.5q12 -1 30 -2t38 -1zM220 620q-28 0 -47 19.5t-19 46.5q0 29 19.5 48t46.5 19
q29 0 48 -19.5t19 -47.5t-19.5 -47t-47.5 -19zM406 620q-28 0 -47 19.5t-19 46.5q0 29 19 48t47 19t47.5 -19.5t19.5 -47.5t-19 -47t-48 -19z" />
    <glyph glyph-name="igrave" unicode="&#xec;" horiz-adv-x="292" 
d="M75 554h142v-554h-142v554zM25 812l231 -119v-100l-231 105v114z" />
    <glyph glyph-name="iacute" unicode="&#xed;" horiz-adv-x="292" 
d="M75 554h142v-554h-142v554zM256 812v-114l-231 -105v100z" />
    <glyph glyph-name="icircumflex" unicode="&#xee;" horiz-adv-x="292" 
d="M75 554h142v-554h-142v554zM294 593l-148 84l-149 -84v103l149 81l148 -81v-103z" />
    <glyph glyph-name="idieresis" unicode="&#xef;" horiz-adv-x="292" 
d="M75 554h142v-554h-142v554zM52 620q-28 0 -47 19.5t-19 46.5q0 29 19.5 48t46.5 19q29 0 48 -19.5t19 -47.5t-19.5 -47t-47.5 -19zM238 620q-28 0 -47 19.5t-19 46.5q0 29 19 48t47 19t47.5 -19.5t19.5 -47.5t-19 -47t-48 -19z" />
    <glyph glyph-name="eth" unicode="&#xf0;" horiz-adv-x="638" 
d="M545 741v-64l-281 -89v64zM318 112q36 0 68.5 18t53 55t20.5 93t-20.5 92t-53 54t-68.5 18t-68 -18t-52.5 -54t-20.5 -92t20 -93t52 -55t69 -18zM305 562q46 0 88 -16t66 -42l-7 -5q-15 42 -43 84.5t-65.5 82t-80.5 74.5h136q64 -56 110 -123.5t71 -143t25 -156.5
q0 -107 -38 -179.5t-103.5 -109t-145.5 -36.5t-144.5 35t-102.5 99.5t-38 151.5q0 88 36.5 151.5t98.5 98t137 34.5z" />
    <glyph glyph-name="ntilde" unicode="&#xf1;" horiz-adv-x="661" 
d="M69 0v554h141v-117q13 37 40 65t63 43.5t74 15.5q63 0 110.5 -28t73.5 -80.5t26 -126.5v-326h-140v300q0 66 -34 103.5t-89 37.5q-37 0 -65 -19.5t-43.5 -53.5t-15.5 -78v-290h-141zM391 605q-28 0 -48 11t-37.5 22.5t-37.5 11.5q-16 0 -28 -10.5t-15 -33.5h-76
q11 69 44.5 101t81.5 32q28 0 48 -11.5t37.5 -22.5t37.5 -11q17 0 28.5 10.5t14.5 32.5h76q-11 -68 -44 -100t-82 -32z" />
    <glyph glyph-name="ograve" unicode="&#xf2;" 
d="M315 -7q-80 0 -143.5 35t-101 99t-37.5 151t38 150.5t103 98t145 34.5t144.5 -34.5t102.5 -98t38 -150.5t-38.5 -151t-104 -99t-146.5 -35zM315 116q37 0 70 17.5t54 54t21 90.5t-20.5 90t-53 53.5t-69.5 17.5t-68.5 -17.5t-51.5 -53.5t-20 -90t19 -90.5t50.5 -54
t68.5 -17.5zM197 817l231 -119v-100l-231 105v114z" />
    <glyph glyph-name="oacute" unicode="&#xf3;" 
d="M315 -7q-80 0 -143.5 35t-101 99t-37.5 151t38 150.5t103 98t145 34.5t144.5 -34.5t102.5 -98t38 -150.5t-38.5 -151t-104 -99t-146.5 -35zM315 116q37 0 70 17.5t54 54t21 90.5t-20.5 90t-53 53.5t-69.5 17.5t-68.5 -17.5t-51.5 -53.5t-20 -90t19 -90.5t50.5 -54
t68.5 -17.5zM428 817v-114l-231 -105v100z" />
    <glyph glyph-name="ocircumflex" unicode="&#xf4;" 
d="M315 -7q-80 0 -143.5 35t-101 99t-37.5 151t38 150.5t103 98t145 34.5t144.5 -34.5t102.5 -98t38 -150.5t-38.5 -151t-104 -99t-146.5 -35zM315 116q37 0 70 17.5t54 54t21 90.5t-20.5 90t-53 53.5t-69.5 17.5t-68.5 -17.5t-51.5 -53.5t-20 -90t19 -90.5t50.5 -54
t68.5 -17.5zM467 598l-148 84l-149 -84v103l149 81l148 -81v-103z" />
    <glyph glyph-name="otilde" unicode="&#xf5;" 
d="M315 -7q-80 0 -143.5 35t-101 99t-37.5 151t38 150.5t103 98t145 34.5t144.5 -34.5t102.5 -98t38 -150.5t-38.5 -151t-104 -99t-146.5 -35zM315 116q37 0 70 17.5t54 54t21 90.5t-20.5 90t-53 53.5t-69.5 17.5t-68.5 -17.5t-51.5 -53.5t-20 -90t19 -90.5t50.5 -54
t68.5 -17.5zM379 610q-28 0 -48 11t-37.5 22.5t-37.5 11.5q-16 0 -28 -10.5t-15 -33.5h-76q11 69 44.5 101t81.5 32q28 0 48 -11.5t37.5 -22.5t37.5 -11q17 0 28.5 10.5t14.5 32.5h76q-11 -68 -44 -100t-82 -32z" />
    <glyph glyph-name="odieresis" unicode="&#xf6;" 
d="M315 -7q-80 0 -143.5 35t-101 99t-37.5 151t38 150.5t103 98t145 34.5t144.5 -34.5t102.5 -98t38 -150.5t-38.5 -151t-104 -99t-146.5 -35zM315 116q37 0 70 17.5t54 54t21 90.5t-20.5 90t-53 53.5t-69.5 17.5t-68.5 -17.5t-51.5 -53.5t-20 -90t19 -90.5t50.5 -54
t68.5 -17.5zM225 625q-28 0 -47 19.5t-19 46.5q0 29 19.5 48t46.5 19q29 0 48 -19.5t19 -47.5t-19.5 -47t-47.5 -19zM411 625q-28 0 -47 19.5t-19 46.5q0 29 19 48t47 19t47.5 -19.5t19.5 -47.5t-19 -47t-48 -19z" />
    <glyph glyph-name="divide" unicode="&#xf7;" horiz-adv-x="667" 
d="M78 418h510v-123h-510v123zM343 54q-41 0 -67.5 25t-26.5 61q0 37 26.5 61.5t67.5 24.5q40 0 66 -24.5t26 -61.5q0 -36 -26 -61t-66 -25zM343 496q-41 0 -67.5 24.5t-26.5 61.5q0 36 26.5 61t67.5 25q40 0 66 -25t26 -61q0 -37 -26 -61.5t-66 -24.5z" />
    <glyph glyph-name="oslash" unicode="&#xf8;" horiz-adv-x="634" 
d="M528 554h85l-507 -554h-85zM313 -7q-80 0 -143.5 35t-101 99t-37.5 151t38 150.5t103 98t145 34.5t144.5 -34.5t102.5 -98t38 -150.5t-38.5 -151t-104 -99t-146.5 -35zM313 116q37 0 70 17.5t54 54t21 90.5t-20.5 90t-53 53.5t-69.5 17.5t-68.5 -17.5t-51.5 -53.5
t-20 -90t19 -90.5t50.5 -54t68.5 -17.5z" />
    <glyph glyph-name="ugrave" unicode="&#xf9;" horiz-adv-x="661" 
d="M451 75v479h142v-554h-67q-34 0 -54.5 20.5t-20.5 54.5zM279 -7q-66 0 -114.5 28t-74.5 81t-26 128v324h140v-300q0 -67 34 -103.5t89 -36.5q38 0 66 19.5t43 53.5t15 77l22 -29q-3 -83 -30.5 -137t-70 -79.5t-93.5 -25.5zM206 812l231 -119v-100l-231 105v114z" />
    <glyph glyph-name="uacute" unicode="&#xfa;" horiz-adv-x="661" 
d="M451 75v479h142v-554h-67q-34 0 -54.5 20.5t-20.5 54.5zM279 -7q-66 0 -114.5 28t-74.5 81t-26 128v324h140v-300q0 -67 34 -103.5t89 -36.5q38 0 66 19.5t43 53.5t15 77l22 -29q-3 -83 -30.5 -137t-70 -79.5t-93.5 -25.5zM437 812v-114l-231 -105v100z" />
    <glyph glyph-name="ucircumflex" unicode="&#xfb;" horiz-adv-x="661" 
d="M451 75v479h142v-554h-67q-34 0 -54.5 20.5t-20.5 54.5zM279 -7q-66 0 -114.5 28t-74.5 81t-26 128v324h140v-300q0 -67 34 -103.5t89 -36.5q38 0 66 19.5t43 53.5t15 77l22 -29q-3 -83 -30.5 -137t-70 -79.5t-93.5 -25.5zM475 593l-148 84l-149 -84v103l149 81l148 -81
v-103z" />
    <glyph glyph-name="udieresis" unicode="&#xfc;" horiz-adv-x="661" 
d="M451 75v479h142v-554h-67q-34 0 -54.5 20.5t-20.5 54.5zM279 -7q-66 0 -114.5 28t-74.5 81t-26 128v324h140v-300q0 -67 34 -103.5t89 -36.5q38 0 66 19.5t43 53.5t15 77l22 -29q-3 -83 -30.5 -137t-70 -79.5t-93.5 -25.5zM234 620q-28 0 -47 19.5t-19 46.5q0 29 19.5 48
t46.5 19q29 0 48 -19.5t19 -47.5t-19.5 -47t-47.5 -19zM420 620q-28 0 -47 19.5t-19 46.5q0 29 19 48t47 19t47.5 -19.5t19.5 -47.5t-19 -47t-48 -19z" />
    <glyph glyph-name="yacute" unicode="&#xfd;" 
d="M437 5v549h141v-549q0 -57 -17.5 -107t-52.5 -88t-87.5 -59.5t-123.5 -21.5q-66 0 -120 22t-92.5 64t-57.5 104l125 43q19 -50 53.5 -80.5t87.5 -30.5q67 0 105.5 41t38.5 113zM460 252q-2 -77 -20 -126t-46.5 -75.5t-61 -36.5t-63.5 -10q-65 0 -114 28t-76 81t-27 129
v312h139v-289q0 -67 34 -103.5t89 -36.5q38 0 66 19.5t42.5 53.5t14.5 77zM423 812v-114l-231 -105v100z" />
    <glyph glyph-name="thorn" unicode="&#xfe;" horiz-adv-x="679" 
d="M69 -264v1004h141v-271q27 41 72 66.5t107 25.5q71 0 129 -35t92.5 -99t34.5 -149t-34.5 -149t-92.5 -100t-129 -36q-62 0 -106.5 28t-72.5 72v-357h-141zM355 116q37 0 70.5 18t54.5 54.5t21 89.5q0 54 -21 89.5t-54.5 53.5t-70.5 18q-35 0 -68.5 -18t-55 -54t-21.5 -89
t21.5 -89.5t55 -54.5t68.5 -18z" />
    <glyph glyph-name="ydieresis" unicode="&#xff;" 
d="M437 5v549h141v-549q0 -57 -17.5 -107t-52.5 -88t-87.5 -59.5t-123.5 -21.5q-66 0 -120 22t-92.5 64t-57.5 104l125 43q19 -50 53.5 -80.5t87.5 -30.5q67 0 105.5 41t38.5 113zM460 252q-2 -77 -20 -126t-46.5 -75.5t-61 -36.5t-63.5 -10q-65 0 -114 28t-76 81t-27 129
v312h139v-289q0 -67 34 -103.5t89 -36.5q38 0 66 19.5t42.5 53.5t14.5 77zM220 620q-28 0 -47 19.5t-19 46.5q0 29 19.5 48t46.5 19q29 0 48 -19.5t19 -47.5t-19.5 -47t-47.5 -19zM406 620q-28 0 -47 19.5t-19 46.5q0 29 19 48t47 19t47.5 -19.5t19.5 -47.5t-19 -47t-48 -19
z" />
    <glyph glyph-name="Amacron" unicode="&#x100;" horiz-adv-x="716" 
d="M440 698l252 -698h-149l-215 624h60l-215 -624h-148l252 698h163zM168 245h370l36 -112h-442zM168 877h383v-100h-383v100z" />
    <glyph glyph-name="amacron" unicode="&#x101;" horiz-adv-x="678" 
d="M282 -7q-73 0 -129 36.5t-88 101t-32 146.5q0 83 32 147t88 100.5t129 36.5q66 0 115 -34t71 -94v121h142v-554h-68q-34 0 -54 20.5t-20 54.5v47q-22 -61 -71 -95t-115 -34zM322 116q39 0 72 19t53.5 55t20.5 87q0 52 -20.5 88t-53.5 54.5t-72 18.5q-37 0 -70.5 -18.5
t-54 -54.5t-20.5 -88q0 -51 20.5 -87t54 -55t70.5 -19zM148 732h383v-100h-383v100z" />
    <glyph glyph-name="Abreve" unicode="&#x102;" horiz-adv-x="716" 
d="M440 698l252 -698h-149l-215 624h60l-215 -624h-148l252 698h163zM168 245h370l36 -112h-442zM359 743q-72 0 -116 41.5t-44 114.5v20h75q0 -33 18 -51.5t67 -18.5t67 18.5t18 51.5h75v-21q0 -73 -43.5 -114t-116.5 -41z" />
    <glyph glyph-name="abreve" unicode="&#x103;" horiz-adv-x="678" 
d="M282 -7q-73 0 -129 36.5t-88 101t-32 146.5q0 83 32 147t88 100.5t129 36.5q66 0 115 -34t71 -94v121h142v-554h-68q-34 0 -54 20.5t-20 54.5v47q-22 -61 -71 -95t-115 -34zM322 116q39 0 72 19t53.5 55t20.5 87q0 52 -20.5 88t-53.5 54.5t-72 18.5q-37 0 -70.5 -18.5
t-54 -54.5t-20.5 -88q0 -51 20.5 -87t54 -55t70.5 -19zM340 598q-72 0 -116 41.5t-44 114.5v20h75q0 -33 18 -51.5t67 -18.5t67 18.5t18 51.5h75v-21q0 -73 -43.5 -114t-116.5 -41z" />
    <glyph glyph-name="Aogonek" unicode="&#x104;" horiz-adv-x="716" 
d="M659 70l33 -70l-48 -23q-36 -17 -49 -33t-13 -33q0 -18 14 -29t37 -11q31 0 70 14v-84q-19 -7 -42 -11t-47 -4q-36 0 -68.5 11.5t-52 36.5t-19.5 65q0 28 13 53.5t44.5 50.5t86.5 49zM440 698l252 -698h-149l-215 624h60l-215 -624h-148l252 698h163zM168 245h370
l36 -112h-442z" />
    <glyph glyph-name="aogonek" unicode="&#x105;" horiz-adv-x="678" 
d="M282 -7q-73 0 -129 36.5t-88 101t-32 146.5q0 83 32 147t88 100.5t129 36.5q66 0 115 -34t71 -94v121h142v-554h-68q-34 0 -54 20.5t-20 54.5v47q-22 -61 -71 -95t-115 -34zM532 -209q-36 0 -68.5 11.5t-52 36t-19.5 62.5q0 28 12.5 54.5t44 51t87.5 45.5l41 15l33 -67
l-48 -24q-34 -17 -48 -32t-14 -32t13.5 -26.5t36.5 -9.5q32 0 71 14v-83q-19 -7 -42 -11.5t-47 -4.5zM322 116q39 0 72 19t53.5 55t20.5 87q0 52 -20.5 88t-53.5 54.5t-72 18.5q-37 0 -70.5 -18.5t-54 -54.5t-20.5 -88q0 -51 20.5 -87t54 -55t70.5 -19z" />
    <glyph glyph-name="Cacute" unicode="&#x106;" horiz-adv-x="757" 
d="M495 964v-114l-231 -106v101zM389 -7q-76 0 -140.5 26.5t-112.5 74t-74.5 113t-26.5 143.5t27 143t75 112.5t112.5 73.5t139.5 26q77 0 141.5 -26.5t110.5 -76.5t68 -121l-135 -42q-24 69 -71.5 104.5t-112.5 35.5q-61 0 -108.5 -28.5t-74.5 -79.5t-27 -121t26.5 -122
t73.5 -80.5t108 -28.5q64 0 115 36.5t76 101.5l137 -32q-22 -74 -71 -126t-115 -79t-141 -27z" />
    <glyph glyph-name="cacute" unicode="&#x107;" horiz-adv-x="601" 
d="M307 -7q-80 0 -142 35t-97 99.5t-35 150.5t34.5 149.5t96.5 98.5t143 35q44 0 83.5 -9t71.5 -28.5t57 -52t41 -80.5l-136 -43q-15 46 -44.5 70t-73.5 24q-39 0 -68 -19t-45 -55.5t-16 -89.5t16 -90t45 -56.5t68 -19.5q51 0 81.5 29.5t41.5 75.5l137 -32
q-13 -51 -46.5 -95t-85.5 -70.5t-127 -26.5zM178 593v100l231 119v-114z" />
    <glyph glyph-name="Cdotaccent" unicode="&#x10a;" horiz-adv-x="757" 
d="M389 -7q-76 0 -140.5 26.5t-112.5 74t-74.5 113t-26.5 143.5t27 143.5t75 112.5t112.5 73t138.5 26q78 0 142.5 -26.5t110.5 -76.5t68 -121l-135 -42q-24 69 -71.5 104.5t-112.5 35.5q-61 0 -108.5 -28.5t-74.5 -80t-27 -120.5q0 -70 26.5 -122t73.5 -80.5t108 -28.5
q64 0 115 36.5t76 101.5l137 -32q-22 -74 -71 -126t-115 -79t-141 -27zM392 771q-31 0 -52 21t-21 52t21.5 52.5t51.5 21.5q31 0 52.5 -21.5t21.5 -52.5t-21.5 -52t-52.5 -21z" />
    <glyph glyph-name="cdotaccent" unicode="&#x10b;" horiz-adv-x="601" 
d="M307 -7q-80 0 -142 35t-97 99.5t-35 150.5t34.5 149.5t96.5 98.5t143 35q44 0 83.5 -9t71.5 -28.5t57 -52t41 -80.5l-136 -43q-15 46 -44.5 70t-73.5 24q-39 0 -68 -19t-45 -55.5t-16 -89.5t16 -90t45 -56.5t68 -19.5q51 0 81.5 29.5t41.5 75.5l137 -32
q-13 -51 -46.5 -95t-85.5 -70.5t-127 -26.5zM306 621q-30 0 -51.5 21t-21.5 52t21.5 52t51.5 21q31 0 52.5 -21t21.5 -52t-21.5 -52t-52.5 -21z" />
    <glyph glyph-name="Ccaron" unicode="&#x10c;" horiz-adv-x="757" 
d="M534 928v-103l-148 -81l-149 81v103l149 -86zM389 -7q-76 0 -140.5 26.5t-112.5 74t-74.5 113t-26.5 143.5t27 143t75 112.5t112.5 73.5t139.5 26q77 0 141.5 -26.5t110.5 -76.5t68 -121l-135 -42q-24 69 -71.5 104.5t-112.5 35.5q-61 0 -108.5 -28.5t-74.5 -79.5
t-27 -121t26.5 -122t73.5 -80.5t108 -28.5q64 0 115 36.5t76 101.5l137 -32q-22 -74 -71 -126t-115 -79t-141 -27z" />
    <glyph glyph-name="ccaron" unicode="&#x10d;" horiz-adv-x="601" 
d="M307 -7q-80 0 -142 35t-97 99.5t-35 150.5t34.5 149.5t96.5 98.5t143 35q44 0 83.5 -9t71.5 -28.5t57 -52t41 -80.5l-136 -43q-15 46 -44.5 70t-73.5 24q-39 0 -68 -19t-45 -55.5t-16 -89.5t16 -90t45 -56.5t68 -19.5q51 0 81.5 29.5t41.5 75.5l137 -32
q-13 -51 -46.5 -95t-85.5 -70.5t-127 -26.5zM300 593l-149 81v103l149 -86l149 86v-103z" />
    <glyph glyph-name="Dcaron" unicode="&#x10e;" horiz-adv-x="718" 
d="M69 0v698h244q112 0 194.5 -43t128.5 -122t46 -185t-46 -184t-128.5 -121t-194.5 -43h-244zM210 120h98q110 0 169.5 60t59.5 168t-59.5 170t-169.5 62h-98v-460zM504 928v-109l-148 -81l-149 81v109l149 -87z" />
    <glyph glyph-name="dcaron" unicode="&#x10f;" horiz-adv-x="813" 
d="M282 -7q-73 0 -129 36.5t-88 101t-32 146.5q0 83 32 147t88 100.5t129 36.5q66 0 115 -34t71 -94v307h142v-740h-68q-34 0 -54 20.5t-20 54.5v47q-22 -61 -71 -95t-115 -34zM322 116q39 0 72 19t53.5 55t20.5 87q0 52 -20.5 88t-53.5 54.5t-72 18.5q-37 0 -70.5 -18.5
t-54 -54.5t-20.5 -88q0 -51 20.5 -87t54 -55t70.5 -19zM640 504v60q27 -2 49 6t36 21.5t18 25.5q-11 -9 -31 -9q-27 0 -48 15.5t-21 49.5t23 54.5t57 20.5q26 0 45 -14.5t30 -36.5t11 -46q0 -50 -24 -84.5t-63 -50.5t-82 -12z" />
    <glyph glyph-name="Dcroat" unicode="&#x110;" horiz-adv-x="726" 
d="M77 0v698h245q112 0 194.5 -43t128 -122t45.5 -185t-45.5 -184t-128 -121t-194.5 -43h-245zM7 287v123h378v-123h-378zM219 115h98q110 0 169 62.5t59 170.5t-59 170t-169 62h-98v-465z" />
    <glyph glyph-name="dcroat" unicode="&#x111;" horiz-adv-x="685" 
d="M283 686h380v-81h-380v81zM282 -7q-73 0 -129 36.5t-88 101t-32 146.5q0 83 32 147t88 100.5t129 36.5q66 0 115 -34t71 -94v307h142v-740h-68q-34 0 -54 20.5t-20 54.5v47q-22 -61 -71 -95t-115 -34zM322 116q39 0 72 19t53.5 55t20.5 87q0 52 -20.5 88t-53.5 54.5
t-72 18.5q-37 0 -70.5 -18.5t-54 -54.5t-20.5 -88q0 -51 20.5 -87t54 -55t70.5 -19z" />
    <glyph glyph-name="Emacron" unicode="&#x112;" horiz-adv-x="532" 
d="M475 584h-265v-174h235v-111h-235v-185h265v-114h-406v698h406v-114zM81 877h383v-100h-383v100z" />
    <glyph glyph-name="emacron" unicode="&#x113;" horiz-adv-x="619" 
d="M332 -7q-64 0 -118.5 20t-95 57t-63 88.5t-22.5 114.5q0 65 23 118t64 91t94 58.5t112 20.5q50 0 94 -13.5t77.5 -38t52 -58.5t18.5 -74q0 -52 -30 -87t-79.5 -55.5t-108.5 -28t-116 -5.5q-9 1 -21 1t-21.5 0.5t-12.5 0.5q6 -27 28.5 -50t55.5 -35.5t71 -12.5q33 0 64 11
t57.5 30.5t43.5 42.5l97 -73q-32 -42 -74 -69.5t-90 -40.5t-100 -13zM239 302q33 0 66.5 3t62 11.5t46 24t17.5 39.5q0 20 -13.5 35.5t-36 25t-51.5 9.5q-46 0 -81.5 -21t-55.5 -54.5t-22 -69.5q12 -1 30 -2t38 -1zM123 732h383v-100h-383v100z" />
    <glyph glyph-name="Ebreve" unicode="&#x114;" horiz-adv-x="532" 
d="M475 584h-265v-174h235v-111h-235v-185h265v-114h-406v698h406v-114zM272 743q-72 0 -116 41.5t-44 114.5v20h75q0 -33 18 -51.5t67 -18.5t67 18.5t18 51.5h75v-21q0 -73 -43.5 -114t-116.5 -41z" />
    <glyph glyph-name="ebreve" unicode="&#x115;" horiz-adv-x="619" 
d="M332 -7q-64 0 -118.5 20t-95 57t-63 88.5t-22.5 114.5q0 65 23 118t64 91t94 58.5t112 20.5q50 0 94 -13.5t77.5 -38t52 -58.5t18.5 -74q0 -52 -30 -87t-79.5 -55.5t-108.5 -28t-116 -5.5q-9 1 -21 1t-21.5 0.5t-12.5 0.5q6 -27 28.5 -50t55.5 -35.5t71 -12.5q33 0 64 11
t57.5 30.5t43.5 42.5l97 -73q-32 -42 -74 -69.5t-90 -40.5t-100 -13zM239 302q33 0 66.5 3t62 11.5t46 24t17.5 39.5q0 20 -13.5 35.5t-36 25t-51.5 9.5q-46 0 -81.5 -21t-55.5 -54.5t-22 -69.5q12 -1 30 -2t38 -1zM314 598q-72 0 -116 41.5t-44 114.5v20h75q0 -33 18 -51.5
t67 -18.5t67 18.5t18 51.5h75v-21q0 -73 -43.5 -114t-116.5 -41z" />
    <glyph glyph-name="Edotaccent" unicode="&#x116;" horiz-adv-x="532" 
d="M475 584h-265v-174h235v-111h-235v-185h265v-114h-406v698h406v-114zM271 765q-31 0 -52 21t-21 52t21.5 52.5t51.5 21.5q31 0 52.5 -21.5t21.5 -52.5t-21.5 -52t-52.5 -21z" />
    <glyph glyph-name="edotaccent" unicode="&#x117;" horiz-adv-x="619" 
d="M332 -7q-64 0 -118.5 20t-95 57t-63 88.5t-22.5 114.5q0 65 23 118t64 91t94 58.5t112 20.5q50 0 94 -13.5t77.5 -38t52 -58.5t18.5 -74q0 -52 -30 -87t-79.5 -55.5t-108.5 -28t-116 -5.5q-9 1 -21 1t-21.5 0.5t-12.5 0.5q6 -27 28.5 -50t55.5 -35.5t71 -12.5q33 0 64 11
t57.5 30.5t43.5 42.5l97 -73q-32 -42 -74 -69.5t-90 -40.5t-100 -13zM239 302q33 0 66.5 3t62 11.5t46 24t17.5 39.5q0 20 -13.5 35.5t-36 25t-51.5 9.5q-46 0 -81.5 -21t-55.5 -54.5t-22 -69.5q12 -1 30 -2t38 -1zM313 620q-31 0 -52 21t-21 52t21.5 52.5t51.5 21.5
q31 0 52.5 -21.5t21.5 -52.5t-21.5 -52t-52.5 -21z" />
    <glyph glyph-name="Eogonek" unicode="&#x118;" horiz-adv-x="532" 
d="M475 584h-265v-174h235v-111h-235v-185h265v-114h-406v698h406v-114zM442 67l33 -67l-47 -24q-35 -17 -48.5 -32.5t-13.5 -33.5t13.5 -28.5t35.5 -10.5q32 0 71 14v-84q-19 -7 -41.5 -11t-47.5 -4q-36 0 -68 11.5t-52 36t-20 63.5q0 28 13 53.5t45 50.5t86 48z" />
    <glyph glyph-name="eogonek" unicode="&#x119;" horiz-adv-x="635" 
d="M312 -211q-36 0 -68.5 11.5t-52 36t-19.5 63.5q0 24 9 43.5t23.5 35.5t29.5 27q-60 17 -105.5 54t-70.5 90.5t-25 120.5q0 64 23.5 117.5t65 92.5t95 60.5t112.5 21.5q67 0 123 -24t89 -66t33 -96q0 -48 -28.5 -80.5t-75 -52.5t-102.5 -30t-111 -11q-5 -1 -18 -1h-28.5
t-29.5 1q8 -29 30 -50t54 -33t67 -12q32 0 64.5 10t60 29t44.5 44l102 -73q-43 -57 -103 -87t-127 -37l-31 -15q-34 -16 -48 -32t-14 -34t13.5 -28.5t36.5 -10.5q32 0 71 14v-84q-19 -7 -42 -11t-47 -4zM241 305q36 1 70.5 5t62 13t43.5 24.5t16 38.5q0 20 -13 34.5
t-35.5 22t-52.5 7.5q-45 0 -81 -20.5t-57 -53.5t-23 -69q16 -1 34 -1.5t36 -0.5z" />
    <glyph glyph-name="Ecaron" unicode="&#x11a;" horiz-adv-x="532" 
d="M475 584h-265v-174h235v-111h-235v-185h265v-114h-406v698h406v-114zM420 928v-109l-148 -81l-149 81v109l149 -87z" />
    <glyph glyph-name="ecaron" unicode="&#x11b;" horiz-adv-x="619" 
d="M332 -7q-64 0 -118.5 20t-95 57t-63 88.5t-22.5 114.5q0 65 23 118t64 91t94 58.5t112 20.5q50 0 94 -13.5t77.5 -38t52 -58.5t18.5 -74q0 -52 -30 -87t-79.5 -55.5t-108.5 -28t-116 -5.5q-9 1 -21 1t-21.5 0.5t-12.5 0.5q6 -27 28.5 -50t55.5 -35.5t71 -12.5q33 0 64 11
t57.5 30.5t43.5 42.5l97 -73q-32 -42 -74 -69.5t-90 -40.5t-100 -13zM239 302q33 0 66.5 3t62 11.5t46 24t17.5 39.5q0 20 -13.5 35.5t-36 25t-51.5 9.5q-46 0 -81.5 -21t-55.5 -54.5t-22 -69.5q12 -1 30 -2t38 -1zM462 783v-109l-148 -81l-149 81v109l149 -87z" />
    <glyph glyph-name="Gbreve" unicode="&#x11e;" horiz-adv-x="770" 
d="M565 456q-10 29 -26.5 51.5t-39 38.5t-50 24.5t-60.5 8.5q-61 0 -108.5 -29t-74 -80t-26.5 -120q0 -71 26.5 -123t76 -81t116.5 -29q39 0 72 15t58.5 39t41 54t21.5 59h-228v111h370v-395h-124v177l10 5q-2 -17 -12 -41t-29 -49.5t-47.5 -48t-66.5 -36.5t-86 -14
q-70 0 -132 26t-109.5 73.5t-75 113t-27.5 144.5t27.5 144t76 112.5t113 73t139.5 25.5q112 0 195 -51t118 -148zM384 743q-72 0 -116 41.5t-44 114.5v20h75q0 -33 18 -51.5t67 -18.5t67 18.5t18 51.5h75v-21q0 -73 -43.5 -114t-116.5 -41z" />
    <glyph glyph-name="gbreve" unicode="&#x11f;" horiz-adv-x="678" 
d="M327 -271q-67 0 -125 20.5t-100 61.5t-61 100l126 47q20 -50 62 -79.5t95 -29.5q45 0 77 18t49.5 52.5t17.5 82.5v120q-21 -61 -70 -95t-115 -34q-73 0 -129.5 36.5t-88.5 101t-32 146.5q0 83 32 147t88.5 100.5t129.5 36.5q66 0 115 -34t70 -94v121h142v-550
q0 -58 -18 -107.5t-53 -87t-88 -59t-124 -21.5zM323 116q38 0 71 18.5t53.5 55t20.5 87.5q0 52 -20.5 88t-53.5 54.5t-71 18.5t-71.5 -18.5t-54 -54.5t-20.5 -88q0 -51 20.5 -87.5t54 -55t71.5 -18.5zM340 598q-72 0 -116 41.5t-44 114.5v20h75q0 -33 18 -51.5t67 -18.5
t67 18.5t18 51.5h75v-21q0 -73 -43.5 -114t-116.5 -41z" />
    <glyph glyph-name="Gdotaccent" unicode="&#x120;" horiz-adv-x="770" 
d="M565 456q-10 29 -26.5 51.5t-39 38.5t-50 24.5t-60.5 8.5q-61 0 -108.5 -29t-74 -80t-26.5 -120q0 -71 26.5 -123t76 -81t116.5 -29q39 0 72 15t58.5 39t41 54t21.5 59h-228v111h370v-395h-124v177l10 5q-2 -17 -12 -41t-29 -49.5t-47.5 -48t-66.5 -36.5t-86 -14
q-70 0 -132 26t-109.5 73.5t-75 113t-27.5 144.5t27.5 144t76 112.5t113 73t139.5 25.5q112 0 195 -51t118 -148zM383 765q-31 0 -52 21t-21 52t21.5 52.5t51.5 21.5q31 0 52.5 -21.5t21.5 -52.5t-21.5 -52t-52.5 -21z" />
    <glyph glyph-name="gdotaccent" unicode="&#x121;" horiz-adv-x="678" 
d="M327 -271q-67 0 -125 20.5t-100 61.5t-61 100l126 47q20 -50 62 -79.5t95 -29.5q45 0 77 18t49.5 52.5t17.5 82.5v120q-21 -61 -70 -95t-115 -34q-73 0 -129.5 36.5t-88.5 101t-32 146.5q0 83 32 147t88.5 100.5t129.5 36.5q66 0 115 -34t70 -94v121h142v-550
q0 -58 -18 -107.5t-53 -87t-88 -59t-124 -21.5zM323 116q38 0 71 18.5t53.5 55t20.5 87.5q0 52 -20.5 88t-53.5 54.5t-71 18.5t-71.5 -18.5t-54 -54.5t-20.5 -88q0 -51 20.5 -87.5t54 -55t71.5 -18.5zM339 620q-31 0 -52 21t-21 52t21.5 52.5t51.5 21.5q31 0 52.5 -21.5
t21.5 -52.5t-21.5 -52t-52.5 -21z" />
    <glyph glyph-name="uni0122" unicode="&#x122;" horiz-adv-x="770" 
d="M309 -287v61q26 -2 48 6t36.5 21.5t17.5 25.5q-11 -9 -31 -9q-27 0 -47.5 15.5t-20.5 49.5t23 54t56 20q26 0 45.5 -14t30.5 -36t11 -46q0 -50 -24.5 -84.5t-63 -50.5t-81.5 -13zM565 456q-10 29 -26.5 51.5t-39 38.5t-50 24.5t-60.5 8.5q-61 0 -108.5 -29t-74 -80
t-26.5 -120q0 -71 26.5 -123t76 -81t116.5 -29q39 0 72 15t58.5 39t41 54t21.5 59h-228v111h370v-395h-124v177l10 5q-2 -17 -12 -41t-29 -49.5t-47.5 -48t-66.5 -36.5t-86 -14q-70 0 -132 26t-109.5 73.5t-75 113t-27.5 144.5t27.5 144t76 112.5t113 73t139.5 25.5
q112 0 195 -51t118 -148z" />
    <glyph glyph-name="uni0123" unicode="&#x123;" horiz-adv-x="678" 
d="M415 841v-60q-26 2 -48.5 -6.5t-36.5 -21t-18 -25.5q11 8 31 8q27 0 48 -14.5t21 -49.5q0 -34 -23 -54.5t-57 -20.5q-25 0 -44.5 14t-30.5 36t-11 47q0 51 24 85t63 50t82 12zM327 -271q-67 0 -125 20.5t-100 61.5t-61 100l126 47q20 -50 62 -79.5t95 -29.5q45 0 77 18
t49.5 52.5t17.5 82.5v120q-21 -61 -70 -95t-115 -34q-73 0 -129.5 36.5t-88.5 101t-32 146.5q0 83 32 147t88.5 100.5t129.5 36.5q66 0 115 -34t70 -94v121h142v-550q0 -58 -18 -107.5t-53 -87t-88 -59t-124 -21.5zM323 116q38 0 71 18.5t53.5 55t20.5 87.5q0 52 -20.5 88
t-53.5 54.5t-71 18.5t-71.5 -18.5t-54 -54.5t-20.5 -88q0 -51 20.5 -87.5t54 -55t71.5 -18.5z" />
    <glyph glyph-name="Hbar" unicode="&#x126;" horiz-adv-x="791" 
d="M105 698h142v-698h-142v698zM544 698h142v-698h-142v698zM227 411h343v-114h-343v114zM40 630h711v-106h-711v106z" />
    <glyph glyph-name="hbar" unicode="&#x127;" horiz-adv-x="661" 
d="M18 605v81h380v-81h-380zM69 0v740h141v-303q13 37 40 65t63 43.5t74 15.5q63 0 110.5 -28t73.5 -80.5t26 -126.5v-326h-140v299q0 66 -34 104t-89 38q-37 0 -65 -20t-43.5 -54t-15.5 -78v-289h-141z" />
    <glyph glyph-name="Itilde" unicode="&#x128;" horiz-adv-x="421" 
d="M62 0v114h78v470h-78v114h297v-114h-78v-470h78v-114h-297zM271 750q-28 0 -48 11t-37.5 22.5t-37.5 11.5q-16 0 -28 -10.5t-15 -33.5h-76q11 69 44.5 101t81.5 32q28 0 48 -11.5t37.5 -22.5t37.5 -11q17 0 28.5 10.5t14.5 32.5h76q-11 -68 -44 -100t-82 -32z" />
    <glyph glyph-name="itilde" unicode="&#x129;" horiz-adv-x="292" 
d="M75 554h142v-554h-142v554zM206 605q-28 0 -48 11t-37.5 22.5t-37.5 11.5q-16 0 -28 -10.5t-15 -33.5h-76q11 69 44.5 101t81.5 32q28 0 48 -11.5t37.5 -22.5t37.5 -11q17 0 28.5 10.5t14.5 32.5h76q-11 -68 -44 -100t-82 -32z" />
    <glyph glyph-name="Imacron" unicode="&#x12a;" horiz-adv-x="421" 
d="M62 0v114h78v470h-78v114h297v-114h-78v-470h78v-114h-297zM20 877h383v-100h-383v100z" />
    <glyph glyph-name="imacron" unicode="&#x12b;" horiz-adv-x="292" 
d="M75 554h142v-554h-142v554zM-45 732h383v-100h-383v100z" />
    <glyph glyph-name="Ibreve" unicode="&#x12c;" horiz-adv-x="421" 
d="M62 0v114h78v470h-78v114h297v-114h-78v-470h78v-114h-297zM211 743q-72 0 -116 41.5t-44 114.5v20h75q0 -33 18 -51.5t67 -18.5t67 18.5t18 51.5h75v-21q0 -73 -43.5 -114t-116.5 -41z" />
    <glyph glyph-name="ibreve" unicode="&#x12d;" horiz-adv-x="292" 
d="M75 554h142v-554h-142v554zM146 598q-72 0 -116 41.5t-44 114.5v20h75q0 -33 18 -51.5t67 -18.5t67 18.5t18 51.5h75v-21q0 -73 -43.5 -114t-116.5 -41z" />
    <glyph glyph-name="Iogonek" unicode="&#x12e;" horiz-adv-x="421" 
d="M62 0v114h78v470h-78v114h297v-114h-78v-470h78v-114h-297zM248 68l33 -67l-47 -24q-35 -17 -48.5 -32.5t-13.5 -33.5t13.5 -28.5t35.5 -10.5q32 0 71 14v-84q-19 -7 -41.5 -11t-47.5 -4q-36 0 -68 11.5t-52 36t-20 63.5q0 28 13 53.5t45 50.5t86 48z" />
    <glyph glyph-name="iogonek" unicode="&#x12f;" horiz-adv-x="280" 
d="M68 0v554h142v-554h-142zM140 621q-42 0 -70 25.5t-28 63.5t28 64t70 26t70 -26t28 -64t-28 -63.5t-70 -25.5zM177 67l33 -67l-47 -24q-35 -17 -48.5 -32.5t-13.5 -33.5t13.5 -28.5t35.5 -10.5q32 0 71 14v-84q-19 -7 -41.5 -11t-47.5 -4q-36 0 -68 11.5t-52 36t-20 63.5
q0 28 13 53.5t45 50.5t86 48z" />
    <glyph glyph-name="Idotaccent" unicode="&#x130;" horiz-adv-x="421" 
d="M62 0v114h78v470h-78v114h297v-114h-78v-470h78v-114h-297zM210 765q-31 0 -52 21t-21 52t21.5 52.5t51.5 21.5q31 0 52.5 -21.5t21.5 -52.5t-21.5 -52t-52.5 -21z" />
    <glyph glyph-name="dotlessi" unicode="&#x131;" horiz-adv-x="292" 
d="M75 554h142v-554h-142v554z" />
    <glyph glyph-name="uni0136" unicode="&#x136;" horiz-adv-x="676" 
d="M275 -287v61q26 -2 48 6t36.5 21.5t17.5 25.5q-11 -9 -31 -9q-27 0 -47.5 15.5t-20.5 49.5t23 54t56 20q26 0 45.5 -14t30.5 -36t11 -46q0 -50 -24.5 -84.5t-63 -50.5t-81.5 -13zM69 0v698h141v-283q76 0 132 34.5t89 98t37 150.5h152q-2 -57 -22.5 -112t-53 -101.5
t-72.5 -80t-84 -47.5q66 -19 120 -67t89.5 -121.5t45.5 -168.5h-152q-6 95 -43 161.5t-97.5 101.5t-140.5 35v-298h-141z" />
    <glyph glyph-name="uni0137" unicode="&#x137;" horiz-adv-x="594" 
d="M219 -287v61q26 -2 48 6t36.5 21.5t17.5 25.5q-11 -9 -31 -9q-27 0 -47.5 15.5t-20.5 49.5t23 54t56 20q26 0 45.5 -14t30.5 -36t11 -46q0 -50 -24.5 -84.5t-63 -50.5t-81.5 -13zM69 0v740h141v-410q50 10 95 39.5t78 76.5t46 108h150q-16 -64 -51.5 -119t-82.5 -96
t-98 -61q39 -11 78 -37.5t73 -64t58 -82.5t32 -94h-150q-10 46 -33 83.5t-53.5 66t-67 46.5t-74.5 22v-218h-141z" />
    <glyph glyph-name="Lacute" unicode="&#x139;" horiz-adv-x="460" 
d="M210 698v-587h230v-111h-371v698h141zM250 957v-114l-231 -105v100z" />
    <glyph glyph-name="lacute" unicode="&#x13a;" horiz-adv-x="319" 
d="M69 149v591h141v-582q0 -22 13 -33t31 -11q13 0 22 4l26 -107q-35 -18 -80 -18q-37 0 -72.5 15.5t-58 50t-22.5 90.5zM249 998v-114l-231 -105v100z" />
    <glyph glyph-name="uni013B" unicode="&#x13b;" horiz-adv-x="460" 
d="M169 -287v61q26 -2 48 6t36.5 21.5t17.5 25.5q-11 -9 -31 -9q-27 0 -47.5 15.5t-20.5 49.5t23 54t56 20q26 0 45.5 -14t30.5 -36t11 -46q0 -50 -24.5 -84.5t-63 -50.5t-81.5 -13zM210 698v-587h230v-111h-371v698h141z" />
    <glyph glyph-name="uni013C" unicode="&#x13c;" horiz-adv-x="367" 
d="M87 -287v61q27 -2 49 6t36.5 21.5t17.5 25.5q-11 -9 -31 -9q-27 0 -47.5 15.5t-20.5 49.5t23 54t56 20q26 0 45.5 -14t30.5 -36t11 -46q0 -50 -25 -84.5t-63.5 -50.5t-81.5 -13zM69 149v591h141v-582q0 -22 13 -33t31 -11q13 0 22 4l26 -107q-35 -18 -80 -18
q-37 0 -72.5 15.5t-58 50t-22.5 90.5z" />
    <glyph glyph-name="Lcaron" unicode="&#x13d;" horiz-adv-x="480" 
d="M210 698v-587h230v-111h-371v698h141zM312 456v60q27 -2 49 6t36 21.5t18 25.5q-11 -9 -31 -9q-27 0 -48 15.5t-21 49.5t23 54.5t57 20.5q26 0 45 -14.5t30 -36.5t11 -46q0 -50 -24 -84.5t-63 -50.5t-82 -12z" />
    <glyph glyph-name="lcaron" unicode="&#x13e;" horiz-adv-x="414" 
d="M69 149v591h141v-582q0 -22 13 -33t31 -11q13 0 22 4l26 -107q-35 -18 -80 -18q-37 0 -72.5 15.5t-58 50t-22.5 90.5zM254 496v60q27 -2 49 6t36 21.5t18 25.5q-11 -9 -31 -9q-27 0 -48 15.5t-21 49.5t23 54.5t57 20.5q26 0 45 -14.5t30 -36.5t11 -46q0 -50 -24 -84.5
t-63 -50.5t-82 -12z" />
    <glyph glyph-name="Lslash" unicode="&#x141;" horiz-adv-x="464" 
d="M9 374l302 94v-114l-302 -94v114zM223 698v-590h229v-108h-371v698h142z" />
    <glyph glyph-name="lslash" unicode="&#x142;" horiz-adv-x="317" 
d="M220 -7q-38 0 -71 15.5t-53.5 49t-20.5 86.5v596h141v-594q0 -15 10.5 -23.5t26.5 -8.5q6 0 13 2t17 6l25 -111q-16 -8 -38 -13t-50 -5zM9 265v115l274 88v-115z" />
    <glyph glyph-name="Nacute" unicode="&#x143;" horiz-adv-x="736" 
d="M667 698v-698h-141l-316 477v-477h-141v698h141l316 -478v478h141zM478 957v-114l-231 -105v100z" />
    <glyph glyph-name="nacute" unicode="&#x144;" horiz-adv-x="661" 
d="M69 0v554h141v-117q13 37 40 65t63 43.5t74 15.5q63 0 110.5 -28t73.5 -80.5t26 -126.5v-326h-140v300q0 66 -34 103.5t-89 37.5q-37 0 -65 -19.5t-43.5 -53.5t-15.5 -78v-290h-141zM441 812v-114l-231 -105v100z" />
    <glyph glyph-name="uni0145" unicode="&#x145;" horiz-adv-x="736" 
d="M297 -287v61q26 -2 48 6t36.5 21.5t17.5 25.5q-11 -9 -31 -9q-27 0 -47.5 15.5t-20.5 49.5t23 54t56 20q26 0 45.5 -14t30.5 -36t11 -46q0 -50 -24.5 -84.5t-63 -50.5t-81.5 -13zM667 698v-698h-141l-316 477v-477h-141v698h141l316 -478v478h141z" />
    <glyph glyph-name="uni0146" unicode="&#x146;" horiz-adv-x="661" 
d="M245 -287v61q26 -2 48 6t36.5 21.5t17.5 25.5q-11 -9 -31 -9q-27 0 -47.5 15.5t-20.5 49.5t23 54t56 20q26 0 45.5 -14t30.5 -36t11 -46q0 -50 -24.5 -84.5t-63 -50.5t-81.5 -13zM69 0v554h141v-117q13 37 40 65t63 43.5t74 15.5q63 0 110.5 -28t73.5 -80.5t26 -126.5
v-326h-140v300q0 66 -34 103.5t-89 37.5q-37 0 -65 -19.5t-43.5 -53.5t-15.5 -78v-290h-141z" />
    <glyph glyph-name="Ncaron" unicode="&#x147;" horiz-adv-x="736" 
d="M667 698v-698h-141l-316 477v-477h-141v698h141l316 -478v478h141zM516 928v-109l-148 -81l-149 81v109l149 -87z" />
    <glyph glyph-name="ncaron" unicode="&#x148;" horiz-adv-x="661" 
d="M69 0v554h141v-117q13 37 40 65t63 43.5t74 15.5q63 0 110.5 -28t73.5 -80.5t26 -126.5v-326h-140v300q0 66 -34 103.5t-89 37.5q-37 0 -65 -19.5t-43.5 -53.5t-15.5 -78v-290h-141zM479 783v-109l-148 -81l-149 81v109l149 -87z" />
    <glyph glyph-name="Omacron" unicode="&#x14c;" horiz-adv-x="785" 
d="M393 -7q-74 0 -139 26t-114 74t-77 113t-28 144q0 78 28 143t77 112.5t114 73.5t139 26t139 -26t113.5 -73.5t76.5 -112.5t28 -143q0 -79 -28 -144t-76.5 -113t-113.5 -74t-139 -26zM392 120q64 0 111.5 28t74.5 80t27 122t-27 121.5t-74.5 79.5t-111.5 28
q-62 0 -110 -28t-75 -79.5t-27 -121.5t27 -122t75 -80t110 -28zM202 877h383v-100h-383v100z" />
    <glyph glyph-name="omacron" unicode="&#x14d;" 
d="M315 -7q-80 0 -143.5 35t-101 99t-37.5 151t38 150.5t103 98t145 34.5t144.5 -34.5t102.5 -98t38 -150.5t-38.5 -151t-104 -99t-146.5 -35zM315 116q37 0 70 17.5t54 54t21 90.5t-20.5 90t-53 53.5t-69.5 17.5t-68.5 -17.5t-51.5 -53.5t-20 -90t19 -90.5t50.5 -54
t68.5 -17.5zM128 737h383v-100h-383v100z" />
    <glyph glyph-name="Obreve" unicode="&#x14e;" horiz-adv-x="785" 
d="M393 -7q-74 0 -139 26t-114 74t-77 113t-28 144q0 78 28 143t77 112.5t114 73.5t139 26t139 -26t113.5 -73.5t76.5 -112.5t28 -143q0 -79 -28 -144t-76.5 -113t-113.5 -74t-139 -26zM392 120q64 0 111.5 28t74.5 80t27 122t-27 121.5t-74.5 79.5t-111.5 28
q-62 0 -110 -28t-75 -79.5t-27 -121.5t27 -122t75 -80t110 -28zM393 743q-72 0 -116 41.5t-44 114.5v20h75q0 -33 18 -51.5t67 -18.5t67 18.5t18 51.5h75v-21q0 -73 -43.5 -114t-116.5 -41z" />
    <glyph glyph-name="obreve" unicode="&#x14f;" 
d="M315 -7q-80 0 -143.5 35t-101 99t-37.5 151t38 150.5t103 98t145 34.5t144.5 -34.5t102.5 -98t38 -150.5t-38.5 -151t-104 -99t-146.5 -35zM315 116q37 0 70 17.5t54 54t21 90.5t-20.5 90t-53 53.5t-69.5 17.5t-68.5 -17.5t-51.5 -53.5t-20 -90t19 -90.5t50.5 -54
t68.5 -17.5zM319 603q-72 0 -116 41.5t-44 114.5v20h75q0 -33 18 -51.5t67 -18.5t67 18.5t18 51.5h75v-21q0 -73 -43.5 -114t-116.5 -41z" />
    <glyph glyph-name="Ohungarumlaut" unicode="&#x150;" horiz-adv-x="785" 
d="M393 -7q-74 0 -139 26t-114 74t-77 113t-28 144q0 78 28 143t77 112.5t114 73.5t139 26t139 -26t113.5 -73.5t76.5 -112.5t28 -143q0 -79 -28 -144t-76.5 -113t-113.5 -74t-139 -26zM392 120q64 0 111.5 28t74.5 80t27 122t-27 121.5t-74.5 79.5t-111.5 28
q-62 0 -110 -28t-75 -79.5t-27 -121.5t27 -122t75 -80t110 -28zM436 935l-99 -189h-89l72 189h116zM623 935l-110 -189h-89l82 189h117z" />
    <glyph glyph-name="ohungarumlaut" unicode="&#x151;" 
d="M315 -7q-80 0 -143.5 35t-101 99t-37.5 151t38 150.5t103 98t145 34.5t144.5 -34.5t102.5 -98t38 -150.5t-38.5 -151t-104 -99t-146.5 -35zM315 116q37 0 70 17.5t54 54t21 90.5t-20.5 90t-53 53.5t-69.5 17.5t-68.5 -17.5t-51.5 -53.5t-20 -90t19 -90.5t50.5 -54
t68.5 -17.5zM362 795l-99 -189h-89l72 189h116zM549 795l-110 -189h-89l82 189h117z" />
    <glyph glyph-name="OE" unicode="&#x152;" horiz-adv-x="1071" 
d="M749 587v-180h235v-108h-235v-188h265v-111h-406v92q-41 -50 -99 -74t-127 -25q-72 0 -134.5 26t-110.5 74t-75 113t-27 144q0 78 27 143t75 113t110.5 73.5t133.5 25.5q70 0 128 -23t99 -72v88h406v-111h-265zM180 350q0 -69 27 -120t75 -79.5t111 -28.5t110.5 28.5
t74.5 79.5t27 120q0 68 -27 119t-74.5 79t-110.5 28t-111 -28t-75 -79t-27 -119z" />
    <glyph glyph-name="oe" unicode="&#x153;" horiz-adv-x="1077" 
d="M315 -7q-80 0 -143.5 35t-101 99t-37.5 151t38 150.5t103 98t145 34.5t144.5 -34.5t102.5 -98t38 -150.5t-38.5 -151t-104 -99t-146.5 -35zM315 116q37 0 70 17.5t54 54t21 90.5t-20.5 90t-53 53.5t-69.5 17.5t-68.5 -17.5t-51.5 -53.5t-20 -90t19 -90.5t50.5 -54
t68.5 -17.5zM780 -7q-64 0 -119 20t-95.5 57t-63 88.5t-22.5 114.5q0 65 23.5 118t64 91t93.5 58.5t112 20.5q51 0 94.5 -13.5t77 -38t52.5 -58.5t19 -74q0 -52 -30.5 -87t-80 -55.5t-108 -28t-116.5 -5.5q-8 1 -20.5 1t-22 0.5t-12.5 0.5q7 -27 29 -50t55.5 -35.5
t70.5 -12.5q33 0 64.5 11t57.5 30.5t44 42.5l96 -73q-31 -42 -73.5 -69.5t-90.5 -40.5t-99 -13zM687 302q32 0 65.5 3t62 11.5t46 24t17.5 39.5q0 20 -13 35.5t-36 25t-52 9.5q-46 0 -81.5 -21t-55.5 -54.5t-22 -69.5q12 -1 30 -2t39 -1z" />
    <glyph glyph-name="Racute" unicode="&#x154;" horiz-adv-x="681" 
d="M69 0v698h263q82 0 138 -27t84.5 -74.5t28.5 -108.5q0 -67 -41.5 -114.5t-109.5 -63.5q52 -18 93.5 -61t68.5 -106t36 -143h-152q-6 71 -31 128.5t-75 91.5q-30 21 -70.5 33t-91.5 12v-265h-141zM210 379h116q55 0 84 30t29 74q0 45 -29.5 73t-83.5 28h-116v-205z
M197 739v100l231 119v-114z" />
    <glyph glyph-name="racute" unicode="&#x155;" horiz-adv-x="408" 
d="M69 0v554h141v-554h-141zM180 259l30 168q19 62 64.5 98t108.5 36v-148q-9 3 -17.5 3.5t-17.5 0.5q-39 0 -70.5 -18t-49.5 -53t-18 -87h-30zM359 812v-114l-231 -105v100z" />
    <glyph glyph-name="uni0156" unicode="&#x156;" horiz-adv-x="681" 
d="M249 -287v61q27 -2 49 6t36 21.5t18 25.5q-11 -9 -31 -9q-27 0 -48 15.5t-21 49.5t23 54t57 20q26 0 45 -14t30 -36t11 -46q0 -50 -24 -84.5t-63 -50.5t-82 -13zM69 0v698h263q82 0 138 -27t84.5 -74.5t28.5 -108.5q0 -67 -41.5 -114.5t-109.5 -63.5q52 -18 93.5 -61
t68.5 -106t36 -143h-152q-6 71 -31 128.5t-75 91.5q-30 21 -70.5 33t-91.5 12v-265h-141zM210 379h116q55 0 84 30t29 74q0 45 -29.5 73t-83.5 28h-116v-205z" />
    <glyph glyph-name="uni0157" unicode="&#x157;" horiz-adv-x="419" 
d="M70 -287v61q27 -2 49 6t36 21.5t18 25.5q-11 -9 -31 -9q-27 0 -48 15.5t-21 49.5t23 54t57 20q26 0 45 -14t30 -36t11 -46q0 -50 -24.5 -84.5t-63 -50.5t-81.5 -13zM80 0v554h141v-554h-141zM192 259l29 168q19 62 64.5 98t109.5 36v-148q-10 3 -18.5 3.5t-17.5 0.5
q-39 0 -70 -18t-49.5 -53t-18.5 -87h-29z" />
    <glyph glyph-name="Rcaron" unicode="&#x158;" horiz-adv-x="681" 
d="M69 0v698h263q82 0 138 -27t84.5 -74.5t28.5 -108.5q0 -67 -41.5 -114.5t-109.5 -63.5q52 -18 93.5 -61t68.5 -106t36 -143h-152q-6 71 -31 128.5t-75 91.5q-30 21 -70.5 33t-91.5 12v-265h-141zM210 379h116q55 0 84 30t29 74q0 45 -29.5 73t-83.5 28h-116v-205z
M318 739l-149 81v103l149 -87l149 87v-103z" />
    <glyph glyph-name="rcaron" unicode="&#x159;" horiz-adv-x="408" 
d="M69 0v554h141v-554h-141zM180 259l30 168q19 62 64.5 98t108.5 36v-148q-9 3 -17.5 3.5t-17.5 0.5q-39 0 -70.5 -18t-49.5 -53t-18 -87h-30zM398 783v-109l-148 -81l-149 81v109l149 -87z" />
    <glyph glyph-name="Sacute" unicode="&#x15a;" horiz-adv-x="619" 
d="M318 -7q-72 0 -129 26t-93 72t-46 108l143 29q11 -55 43 -86t78 -31q52 0 80 22.5t28 60.5q0 31 -19.5 50t-52 32t-70.5 23.5t-76.5 24t-70.5 35.5t-51.5 56t-19.5 87q0 64 31 109.5t86.5 69.5t128.5 24q64 0 116.5 -23t86.5 -63.5t41 -92.5l-141 -36q-9 47 -37.5 73
t-70.5 26q-27 0 -49.5 -9t-35.5 -27t-13 -45q0 -30 20 -48.5t52 -31t70.5 -23t77 -24.5t71 -36t52 -56.5t19.5 -86.5q0 -55 -30.5 -103t-86.5 -77t-132 -29zM424 962v-114l-231 -105v100z" />
    <glyph glyph-name="sacute" unicode="&#x15b;" horiz-adv-x="532" 
d="M272 -7q-60 0 -108 19.5t-80 54.5t-45 78l132 30q9 -33 36 -52.5t63 -19.5q42 0 63.5 16t21.5 40q0 25 -22.5 38.5t-58 22t-75.5 19t-76 28t-58.5 48t-22.5 81.5q0 45 26.5 83t75.5 60t117 22q59 0 104 -18t74 -51.5t40 -78.5l-128 -34q-9 35 -31.5 53.5t-62.5 18.5
q-38 0 -58 -14.5t-20 -38.5q0 -25 22.5 -38.5t58 -23t75.5 -20t75.5 -28.5t58 -49t22.5 -82q0 -45 -27 -82.5t-76 -59.5t-116 -22zM381 817v-114l-231 -105v100z" />
    <glyph glyph-name="Scedilla" unicode="&#x15e;" horiz-adv-x="619" 
d="M318 -7q-72 0 -129 26t-93 72t-46 108l143 29q11 -55 43 -86t78 -31q52 0 80 22.5t28 60.5q0 31 -19.5 50t-52 32t-70.5 23.5t-76.5 24t-70.5 35.5t-51.5 56t-19.5 87q0 64 31 109.5t86.5 69.5t128.5 24q64 0 116.5 -23t86.5 -63.5t41 -92.5l-141 -36q-9 47 -37.5 73
t-70.5 26q-27 0 -49.5 -9t-35.5 -27t-13 -45q0 -30 20 -48.5t52 -31t70.5 -23t77 -24.5t71 -36t52 -56.5t19.5 -86.5q0 -55 -30.5 -103t-86.5 -77t-132 -29zM367 -50q34 0 64 -11.5t48 -35.5t18 -62q0 -37 -18.5 -62.5t-48.5 -37.5t-66 -12h-142v82h119q23 0 36 7t13 25
q0 19 -13 25t-36 6h-62v126h88v-50z" />
    <glyph glyph-name="scedilla" unicode="&#x15f;" horiz-adv-x="532" 
d="M272 -7q-60 0 -108 19.5t-80 54.5t-45 78l132 30q9 -34 36 -53.5t63 -19.5q42 0 63.5 16t21.5 40q0 25 -22.5 38.5t-58 22t-75.5 19t-76 28.5t-58.5 48.5t-22.5 81.5q0 45 26.5 83t75.5 60t117 22q59 0 104 -18t74 -51.5t40 -78.5l-128 -34q-9 35 -31.5 53t-62.5 18
q-38 0 -58 -14t-20 -38q0 -25 22.5 -38.5t58 -23t75.5 -20t75.5 -28.5t58 -49t22.5 -82q0 -45 -27 -82.5t-76 -59.5t-116 -22zM315 -44q34 0 63.5 -12t48 -35.5t18.5 -62.5q0 -37 -18.5 -62t-49 -37.5t-65.5 -12.5h-142v82h119q23 0 35.5 7t12.5 25q0 19 -12.5 25.5
t-35.5 6.5h-63v125h89v-49z" />
    <glyph glyph-name="Scaron" unicode="&#x160;" horiz-adv-x="619" 
d="M318 -7q-72 0 -129 26t-93 72t-46 108l143 29q11 -55 43 -86t78 -31q52 0 80 22.5t28 60.5q0 31 -19.5 50t-52 32t-70.5 23.5t-76.5 24t-70.5 35.5t-51.5 56t-19.5 87q0 64 31 109.5t86.5 69.5t128.5 24q64 0 116.5 -23t86.5 -63.5t41 -92.5l-141 -36q-9 47 -37.5 73
t-70.5 26q-27 0 -49.5 -9t-35.5 -27t-13 -45q0 -30 20 -48.5t52 -31t70.5 -23t77 -24.5t71 -36t52 -56.5t19.5 -86.5q0 -55 -30.5 -103t-86.5 -77t-132 -29zM462 933v-109l-148 -81l-149 81v109l149 -87z" />
    <glyph glyph-name="scaron" unicode="&#x161;" horiz-adv-x="532" 
d="M272 -7q-60 0 -108 19.5t-80 54.5t-45 78l132 30q9 -33 36 -52.5t63 -19.5q42 0 63.5 16t21.5 40q0 25 -22.5 38.5t-58 22t-75.5 19t-76 28t-58.5 48t-22.5 81.5q0 45 26.5 83t75.5 60t117 22q59 0 104 -18t74 -51.5t40 -78.5l-128 -34q-9 35 -31.5 53.5t-62.5 18.5
q-38 0 -58 -14.5t-20 -38.5q0 -25 22.5 -38.5t58 -23t75.5 -20t75.5 -28.5t58 -49t22.5 -82q0 -45 -27 -82.5t-76 -59.5t-116 -22zM420 788v-109l-148 -81l-149 81v109l149 -87z" />
    <glyph glyph-name="uni0162" unicode="&#x162;" horiz-adv-x="577" 
d="M32 698h513v-114h-186v-584h-141v584h-186v114zM335 -45q34 0 64 -11.5t48 -35.5t18 -62q0 -37 -18.5 -62.5t-48.5 -37.5t-66 -12h-142v82h119q23 0 36 7t13 25q0 19 -13 25t-36 6h-62v126h88v-50z" />
    <glyph glyph-name="uni0163" unicode="&#x163;" horiz-adv-x="412" 
d="M280 -8q-78 0 -123.5 47t-45.5 132v268h-86v115h42q22 0 34.5 13t12.5 35v89h140v-66q0 -15 -7.5 -30t-20.5 -26t-31 -15h181v-115h-122v-273q0 -26 15 -38.5t34 -12.5q12 0 22.5 3.5t20.5 11.5l50 -97q-26 -20 -54 -30.5t-62 -10.5zM124 -264v82h120q22 0 35 7t13 25
q0 19 -13 25t-35 6h-63v191h88v-115q34 0 64 -11.5t48 -35.5t18 -62q0 -37 -18.5 -62.5t-48.5 -37.5t-65 -12h-143z" />
    <glyph glyph-name="Tcaron" unicode="&#x164;" horiz-adv-x="577" 
d="M32 698h513v-114h-186v-584h-141v584h-186v114zM435 928v-109l-148 -81l-149 81v109l149 -87z" />
    <glyph glyph-name="tcaron" unicode="&#x165;" horiz-adv-x="432" 
d="M280 -7q-78 0 -123.5 46.5t-45.5 132.5v267h-86v115h351v-115h-122v-272q0 -26 15 -39t34 -13q12 0 22.5 4t20.5 12l50 -97q-26 -21 -54 -31t-62 -10zM67 510v44q22 0 34.5 13t12.5 35v89h140v-66q0 -15 -7.5 -30t-20.5 -26t-31 -15zM309 614v60q27 -2 49 6t36 21.5
t18 25.5q-11 -9 -31 -9q-27 0 -48 15.5t-21 49.5t23 54.5t57 20.5q26 0 45 -14.5t30 -36.5t11 -46q0 -50 -24 -84.5t-63 -50.5t-82 -12z" />
    <glyph glyph-name="Utilde" unicode="&#x168;" horiz-adv-x="697" 
d="M67 698h141v-431q0 -73 37 -109.5t103 -36.5q68 0 105 36.5t37 109.5v431h141v-430q0 -92 -39 -153t-104 -91.5t-142 -30.5t-140.5 30.5t-101 91.5t-37.5 153v430zM409 750q-28 0 -48 11t-37.5 22.5t-37.5 11.5q-16 0 -28 -10.5t-15 -33.5h-76q11 69 44.5 101t81.5 32
q28 0 48 -11.5t37.5 -22.5t37.5 -11q17 0 28.5 10.5t14.5 32.5h76q-11 -68 -44 -100t-82 -32z" />
    <glyph glyph-name="utilde" unicode="&#x169;" horiz-adv-x="661" 
d="M451 75v479h142v-554h-67q-34 0 -54.5 20.5t-20.5 54.5zM279 -7q-66 0 -114.5 28t-74.5 81t-26 128v324h140v-300q0 -67 34 -103.5t89 -36.5q38 0 66 19.5t43 53.5t15 77l22 -29q-3 -83 -30.5 -137t-70 -79.5t-93.5 -25.5zM388 605q-28 0 -48 11t-37.5 22.5t-37.5 11.5
q-16 0 -28 -10.5t-15 -33.5h-76q11 69 44.5 101t81.5 32q28 0 48 -11.5t37.5 -22.5t37.5 -11q17 0 28.5 10.5t14.5 32.5h76q-11 -68 -44 -100t-82 -32z" />
    <glyph glyph-name="Umacron" unicode="&#x16a;" horiz-adv-x="697" 
d="M67 698h141v-431q0 -73 37 -109.5t103 -36.5q68 0 105 36.5t37 109.5v431h141v-430q0 -92 -39 -153t-104 -91.5t-142 -30.5t-140.5 30.5t-101 91.5t-37.5 153v430zM158 877h383v-100h-383v100z" />
    <glyph glyph-name="umacron" unicode="&#x16b;" horiz-adv-x="661" 
d="M451 75v479h142v-554h-67q-34 0 -54.5 20.5t-20.5 54.5zM279 -7q-66 0 -114.5 28t-74.5 81t-26 128v324h140v-300q0 -67 34 -103.5t89 -36.5q38 0 66 19.5t43 53.5t15 77l22 -29q-3 -83 -30.5 -137t-70 -79.5t-93.5 -25.5zM136 732h383v-100h-383v100z" />
    <glyph glyph-name="Ubreve" unicode="&#x16c;" horiz-adv-x="697" 
d="M67 698h141v-431q0 -73 37 -109.5t103 -36.5q68 0 105 36.5t37 109.5v431h141v-430q0 -92 -39 -153t-104 -91.5t-142 -30.5t-140.5 30.5t-101 91.5t-37.5 153v430zM349 743q-72 0 -116 41.5t-44 114.5v20h75q0 -33 18 -51.5t67 -18.5t67 18.5t18 51.5h75v-21
q0 -73 -43.5 -114t-116.5 -41z" />
    <glyph glyph-name="ubreve" unicode="&#x16d;" horiz-adv-x="661" 
d="M451 75v479h142v-554h-67q-34 0 -54.5 20.5t-20.5 54.5zM279 -7q-66 0 -114.5 28t-74.5 81t-26 128v324h140v-300q0 -67 34 -103.5t89 -36.5q38 0 66 19.5t43 53.5t15 77l22 -29q-3 -83 -30.5 -137t-70 -79.5t-93.5 -25.5zM328 598q-72 0 -116 41.5t-44 114.5v20h75
q0 -33 18 -51.5t67 -18.5t67 18.5t18 51.5h75v-21q0 -73 -43.5 -114t-116.5 -41z" />
    <glyph glyph-name="Uring" unicode="&#x16e;" horiz-adv-x="697" 
d="M67 698h141v-431q0 -73 37 -109.5t103 -36.5q68 0 105 36.5t37 109.5v431h141v-430q0 -92 -39 -153t-104 -91.5t-142 -30.5t-140.5 30.5t-101 91.5t-37.5 153v430zM467 862q0 -53 -34.5 -84t-83.5 -31q-48 0 -82.5 31t-34.5 84t34.5 84t82.5 31q49 0 83.5 -31t34.5 -84z
M397 863q0 22 -14 36t-34 14q-19 0 -33.5 -14t-14.5 -36t14.5 -36t33.5 -14q20 0 34 14t14 36z" />
    <glyph glyph-name="uring" unicode="&#x16f;" horiz-adv-x="661" 
d="M451 75v479h142v-554h-67q-34 0 -54.5 20.5t-20.5 54.5zM279 -7q-66 0 -114.5 28t-74.5 81t-26 128v324h140v-300q0 -67 34 -103.5t89 -36.5q38 0 66 19.5t43 53.5t15 77l22 -29q-3 -83 -30.5 -137t-70 -79.5t-93.5 -25.5zM445 717q0 -53 -34.5 -84t-83.5 -31
q-48 0 -82.5 31t-34.5 84t34.5 84t82.5 31q49 0 83.5 -31t34.5 -84zM375 718q0 22 -14 36t-34 14q-19 0 -33.5 -14t-14.5 -36t14.5 -36t33.5 -14q20 0 34 14t14 36z" />
    <glyph glyph-name="Uhungarumlaut" unicode="&#x170;" horiz-adv-x="697" 
d="M67 698h141v-431q0 -73 37 -109.5t103 -36.5q68 0 105 36.5t37 109.5v431h141v-430q0 -92 -39 -153t-104 -91.5t-142 -30.5t-140.5 30.5t-101 91.5t-37.5 153v430zM392 935l-99 -189h-89l72 189h116zM579 935l-110 -189h-89l82 189h117z" />
    <glyph glyph-name="uhungarumlaut" unicode="&#x171;" horiz-adv-x="661" 
d="M451 75v479h142v-554h-67q-34 0 -54.5 20.5t-20.5 54.5zM279 -7q-66 0 -114.5 28t-74.5 81t-26 128v324h140v-300q0 -67 34 -103.5t89 -36.5q38 0 66 19.5t43 53.5t15 77l22 -29q-3 -83 -30.5 -137t-70 -79.5t-93.5 -25.5zM371 790l-99 -189h-89l72 189h116zM558 790
l-110 -189h-89l82 189h117z" />
    <glyph glyph-name="Uogonek" unicode="&#x172;" horiz-adv-x="697" 
d="M67 698h141v-431q0 -73 37 -109.5t103 -36.5q68 0 105 36.5t37 109.5v431h141v-430q0 -92 -39 -153t-104 -91.5t-142 -30.5t-140.5 30.5t-101 91.5t-37.5 153v430zM393 70l33 -67l-47 -24q-35 -17 -48.5 -33.5t-13.5 -33.5q0 -19 13.5 -30t35.5 -11q32 0 71 15v-84
q-19 -7 -41.5 -11t-47.5 -4q-36 0 -68 12t-52 37t-20 64q0 27 13 52.5t45 50.5t86 49z" />
    <glyph glyph-name="uogonek" unicode="&#x173;" horiz-adv-x="661" 
d="M279 -7q-66 0 -114.5 28t-74.5 81t-26 128v324h140v-300q0 -67 34 -103.5t89 -36.5q38 0 66 19.5t43 53.5t15 77v290h142v-554h-67q-34 0 -54.5 20.5t-20.5 54.5v40q-9 -33 -34 -61t-61 -44.5t-77 -16.5zM560 67l33 -67l-48 -24q-34 -17 -48 -32.5t-14 -33.5t13.5 -28.5
t36.5 -10.5q32 0 71 14v-84q-19 -7 -42 -11t-47 -4q-36 0 -68.5 11.5t-52 36t-19.5 63.5q0 28 13 53.5t44.5 50.5t86.5 48z" />
    <glyph glyph-name="Wcircumflex" unicode="&#x174;" horiz-adv-x="1025" 
d="M22 698h151l141 -620h-38l161 620h157l154 -621h-40l143 621h152l-195 -698h-166l-144 546h28l-150 -546h-166zM657 741l-148 84l-149 -84v103l149 81l148 -81v-103z" />
    <glyph glyph-name="wcircumflex" unicode="&#x175;" horiz-adv-x="845" 
d="M7 554h143l117 -509h-42l128 509h149l126 -509h-42l116 509h136l-161 -554h-154l-121 469h44l-124 -469h-153zM571 593l-148 84l-149 -84v103l149 81l148 -81v-103z" />
    <glyph glyph-name="Ycircumflex" unicode="&#x176;" 
d="M11 698h160l178 -381h-59l178 381h158l-236 -455v-243h-142v243zM467 738l-148 84l-149 -84v103l149 81l148 -81v-103z" />
    <glyph glyph-name="ycircumflex" unicode="&#x177;" 
d="M437 5v549h141v-549q0 -57 -17.5 -107t-52.5 -88t-87.5 -59.5t-123.5 -21.5q-66 0 -120 22t-92.5 64t-57.5 104l125 43q19 -50 53.5 -80.5t87.5 -30.5q67 0 105.5 41t38.5 113zM460 252q-2 -77 -20 -126t-46.5 -75.5t-61 -36.5t-63.5 -10q-65 0 -114 28t-76 81t-27 129
v312h139v-289q0 -67 34 -103.5t89 -36.5q38 0 66 19.5t42.5 53.5t14.5 77zM461 593l-148 84l-149 -84v103l149 81l148 -81v-103z" />
    <glyph glyph-name="Ydieresis" unicode="&#x178;" 
d="M11 698h160l178 -381h-59l178 381h158l-236 -455v-243h-142v243zM225 765q-28 0 -47 19.5t-19 46.5q0 29 19.5 48t46.5 19q29 0 48 -19.5t19 -47.5t-19.5 -47t-47.5 -19zM411 765q-28 0 -47 19.5t-19 46.5q0 29 19 48t47 19t47.5 -19.5t19.5 -47.5t-19 -47t-48 -19z" />
    <glyph glyph-name="Zacute" unicode="&#x179;" horiz-adv-x="576" 
d="M526 589l-313 -470h313v-119h-476v109l311 471h-311v118h476v-109zM398 957v-114l-231 -105v100z" />
    <glyph glyph-name="zacute" unicode="&#x17a;" horiz-adv-x="483" 
d="M442 441l-244 -325h246v-116h-406v114l242 324h-241v116h403v-113zM353 812v-114l-231 -105v100z" />
    <glyph glyph-name="Zdotaccent" unicode="&#x17b;" horiz-adv-x="576" 
d="M526 589l-313 -470h313v-119h-476v109l311 471h-311v118h476v-109zM288 765q-31 0 -52 21t-21 52t21.5 52.5t51.5 21.5q31 0 52.5 -21.5t21.5 -52.5t-21.5 -52t-52.5 -21z" />
    <glyph glyph-name="zdotaccent" unicode="&#x17c;" horiz-adv-x="483" 
d="M442 441l-244 -325h246v-116h-406v114l242 324h-241v116h403v-113zM243 620q-31 0 -52 21t-21 52t21.5 52.5t51.5 21.5q31 0 52.5 -21.5t21.5 -52.5t-21.5 -52t-52.5 -21z" />
    <glyph glyph-name="Zcaron" unicode="&#x17d;" horiz-adv-x="576" 
d="M526 589l-313 -470h313v-119h-476v109l311 471h-311v118h476v-109zM436 928v-109l-148 -81l-149 81v109l149 -87z" />
    <glyph glyph-name="zcaron" unicode="&#x17e;" horiz-adv-x="483" 
d="M442 441l-244 -325h246v-116h-406v114l242 324h-241v116h403v-113zM392 783v-109l-148 -81l-149 81v109l149 -87z" />
    <glyph glyph-name="florin" unicode="&#x192;" horiz-adv-x="334" 
d="M-60 -241l12 119h22q21 0 31.5 12t12.5 37l70 658q11 100 70.5 146t175.5 46l-12 -119q-46 0 -67 -16.5t-25 -56.5l-70 -658q-6 -63 -32 -100t-67.5 -52.5t-95.5 -15.5h-25zM14 438l11 116h293l-12 -116h-292z" />
    <glyph glyph-name="AEacute" unicode="&#x1fc;" horiz-adv-x="938" 
d="M9 0l372 698h499v-111h-262v-178h232v-108h-232v-190h262v-111h-403v596l-314 -596h-154zM153 131l61 108h330v-108h-391zM739 956v-114l-231 -105v100z" />
    <glyph glyph-name="aeacute" unicode="&#x1fd;" horiz-adv-x="1114" 
d="M282 -7q-73 0 -129 36.5t-88 100.5t-32 147q0 82 32 146.5t88 101t129 36.5q66 0 115 -34t71 -94v121h142v-554h-68q-34 0 -54 20.5t-20 54.5v47q-22 -61 -71 -95t-115 -34zM322 116q39 0 72 19t53.5 55t20.5 87q0 52 -20.5 88t-53.5 54.5t-72 18.5q-37 0 -70.5 -18.5
t-54 -54.5t-20.5 -88t20.5 -87.5t54 -54.5t70.5 -19zM817 -7q-64 0 -119 20t-95.5 57t-63 88.5t-22.5 114.5q0 65 23.5 118t64 91t94 58.5t112.5 20.5q50 0 94 -13.5t77.5 -38t52 -58.5t18.5 -74q0 -42 -20 -72.5t-54.5 -51t-77 -32.5t-88 -16.5t-88.5 -3.5q-10 1 -23 1
t-23.5 0.5t-14.5 0.5q6 -27 28 -50t55.5 -35.5t70.5 -12.5q33 0 64.5 11t57.5 30.5t44 42.5l97 -73q-32 -42 -74 -69.5t-90.5 -40.5t-99.5 -13zM728 302q32 0 65 3t61 11.5t45 24t17 39.5q0 20 -13.5 35.5t-36.5 25t-52 9.5q-46 0 -81 -21t-55 -54.5t-22 -69.5q14 -1 32 -2
t40 -1zM698 812v-114l-231 -105v100z" />
    <glyph glyph-name="uni0218" unicode="&#x218;" horiz-adv-x="619" 
d="M224 -287v61q27 -2 49 6t36 21.5t18 25.5q-11 -9 -31 -9q-27 0 -48 15.5t-21 49.5t23 54t57 20q26 0 45 -14t30 -36t11 -46q0 -50 -24 -84.5t-63 -50.5t-82 -13zM318 -7q-72 0 -129 26t-93 72t-46 108l143 29q11 -55 43 -86t78 -31q52 0 80 22.5t28 60.5q0 31 -19.5 50
t-52 32t-70.5 23.5t-76.5 24t-70.5 35.5t-51.5 56t-19.5 87q0 64 31 109.5t86.5 69.5t128.5 24q64 0 116.5 -23t86.5 -63.5t41 -92.5l-141 -36q-9 47 -37.5 73t-70.5 26q-27 0 -49.5 -9t-35.5 -27t-13 -45q0 -30 20 -48.5t52 -31t70.5 -23t77 -24.5t71 -36t52 -56.5
t19.5 -86.5q0 -55 -30.5 -103t-86.5 -77t-132 -29z" />
    <glyph glyph-name="uni0219" unicode="&#x219;" horiz-adv-x="532" 
d="M196 -287v61q27 -2 49 6t36 21.5t18 25.5q-11 -9 -31 -9q-27 0 -48 15.5t-21 49.5t23 54t57 20q26 0 45 -14t30 -36t11 -46q0 -50 -24 -84.5t-63 -50.5t-82 -13zM272 -7q-60 0 -108 19.5t-80 54.5t-45 78l132 30q9 -33 36 -52.5t63 -19.5q42 0 63.5 16t21.5 40
q0 25 -22.5 38.5t-58 22t-75.5 19t-76 28t-58.5 48t-22.5 81.5q0 45 26.5 83t75.5 60t117 22q59 0 104 -18t74 -51.5t40 -78.5l-128 -34q-9 35 -31.5 53.5t-62.5 18.5q-38 0 -58 -14.5t-20 -38.5q0 -25 22.5 -38.5t58 -23t75.5 -20t75.5 -28.5t58 -49t22.5 -82
q0 -45 -27 -82.5t-76 -59.5t-116 -22z" />
    <glyph glyph-name="uni021A" unicode="&#x21a;" horiz-adv-x="577" 
d="M206 -287v61q26 -2 48 6t36.5 21.5t17.5 25.5q-11 -9 -31 -9q-27 0 -47.5 15.5t-20.5 49.5t23 54t56 20q26 0 45.5 -14t30.5 -36t11 -46q0 -50 -24.5 -84.5t-63 -50.5t-81.5 -13zM32 698h513v-114h-186v-584h-141v584h-186v114z" />
    <glyph glyph-name="uni021B" unicode="&#x21b;" horiz-adv-x="427" 
d="M122 -287v61q27 -2 49 6t36.5 21.5t17.5 25.5q-11 -9 -31 -9q-27 0 -47.5 15.5t-20.5 49.5t23 54t56 20q26 0 45.5 -14t30.5 -36t11 -46q0 -50 -25 -84.5t-63.5 -50.5t-81.5 -13zM280 -7q-78 0 -123.5 46.5t-45.5 132.5v267h-86v115h351v-115h-122v-272q0 -26 15 -39
t34 -13q12 0 22.5 4t20.5 12l50 -97q-26 -21 -54 -31t-62 -10zM67 510v44q22 0 34.5 13t12.5 35v89h140v-66q0 -15 -7.5 -30t-20.5 -26t-31 -15z" />
    <glyph glyph-name="uni0237" unicode="&#x237;" horiz-adv-x="272" 
d="M40 -271q-32 0 -63.5 11.5t-59.5 33.5l58 102q21 -11 41 -11q27 0 45 20t18 56v613h141v-632q0 -62 -26 -105t-66.5 -65.5t-87.5 -22.5z" />
    <glyph glyph-name="circumflex" unicode="&#x2c6;" horiz-adv-x="317" 
d="M307 593l-148 84l-149 -84v103l149 81l148 -81v-103z" />
    <glyph glyph-name="caron" unicode="&#x2c7;" horiz-adv-x="317" 
d="M307 783v-109l-148 -81l-149 81v109l149 -87z" />
    <glyph glyph-name="breve" unicode="&#x2d8;" horiz-adv-x="340" 
d="M170 598q-72 0 -116 41.5t-44 114.5v20h75q0 -33 18 -51.5t67 -18.5t67 18.5t18 51.5h75v-21q0 -73 -43.5 -114t-116.5 -41z" />
    <glyph glyph-name="dotaccent" unicode="&#x2d9;" horiz-adv-x="167" 
d="M83 620q-31 0 -52 21t-21 52t21.5 52.5t51.5 21.5q31 0 52.5 -21.5t21.5 -52.5t-21.5 -52t-52.5 -21z" />
    <glyph glyph-name="ring" unicode="&#x2da;" horiz-adv-x="249" 
d="M243 717q0 -53 -34.5 -84t-83.5 -31q-48 0 -82.5 31t-34.5 84t34.5 84t82.5 31q49 0 83.5 -31t34.5 -84zM173 718q0 22 -14 36t-34 14q-19 0 -33.5 -14t-14.5 -36t14.5 -36t33.5 -14q20 0 34 14t14 36z" />
    <glyph glyph-name="ogonek" unicode="&#x2db;" horiz-adv-x="251" 
d="M197 67l33 -67l-47 -24q-35 -17 -48.5 -32.5t-13.5 -33.5t13.5 -28.5t35.5 -10.5q32 0 71 14v-84q-19 -7 -41.5 -11t-47.5 -4q-36 0 -68 11.5t-52 36t-20 63.5q0 28 13 53.5t45 50.5t86 48z" />
    <glyph glyph-name="tilde" unicode="&#x2dc;" horiz-adv-x="382" 
d="M249 605q-28 0 -48 11t-37.5 22.5t-37.5 11.5q-16 0 -28 -10.5t-15 -33.5h-76q11 69 44.5 101t81.5 32q28 0 48 -11.5t37.5 -22.5t37.5 -11q17 0 28.5 10.5t14.5 32.5h76q-11 -68 -44 -100t-82 -32z" />
    <glyph glyph-name="hungarumlaut" unicode="&#x2dd;" horiz-adv-x="403" 
d="M198 790l-99 -189h-89l72 189h116zM385 790l-110 -189h-89l82 189h117z" />
    <glyph glyph-name="gravecomb" unicode="&#x300;" horiz-adv-x="0" 
d="M10 812l231 -119v-100l-231 105v114z" />
    <glyph glyph-name="acutecomb" unicode="&#x301;" horiz-adv-x="0" 
d="M241 812v-114l-231 -105v100z" />
    <glyph glyph-name="uni0302" unicode="&#x302;" horiz-adv-x="0" 
d="M307 593l-148 84l-149 -84v103l149 81l148 -81v-103z" />
    <glyph glyph-name="tildecomb" unicode="&#x303;" horiz-adv-x="0" 
d="M249 605q-28 0 -48 11t-37.5 22.5t-37.5 11.5q-16 0 -28 -10.5t-15 -33.5h-76q11 69 44.5 101t81.5 32q28 0 48 -11.5t37.5 -22.5t37.5 -11q17 0 28.5 10.5t14.5 32.5h76q-11 -68 -44 -100t-82 -32z" />
    <glyph glyph-name="uni0304" unicode="&#x304;" horiz-adv-x="0" 
d="M10 732h383v-100h-383v100z" />
    <glyph glyph-name="uni0306" unicode="&#x306;" horiz-adv-x="0" 
d="M170 598q-72 0 -116 41.5t-44 114.5v20h75q0 -33 18 -51.5t67 -18.5t67 18.5t18 51.5h75v-21q0 -73 -43.5 -114t-116.5 -41z" />
    <glyph glyph-name="uni0307" unicode="&#x307;" horiz-adv-x="0" 
d="M74 710q0 28 19.5 47t47.5 19t47 -19.5t19 -47.5t-19.5 -47t-47.5 -19t-47 19.5t-19 47.5z" />
    <glyph glyph-name="uni0308" unicode="&#x308;" horiz-adv-x="0" 
d="M76 620q-28 0 -47 19.5t-19 47.5t19.5 47t47.5 19t47 -19.5t19 -47.5t-19.5 -47t-47.5 -19zM262 620q-28 0 -47 19.5t-19 47.5t19 47t47 19t47.5 -19.5t19.5 -47.5t-19 -47t-48 -19z" />
    <glyph glyph-name="uni030A" unicode="&#x30a;" horiz-adv-x="0" 
d="M243 717q0 -53 -34.5 -84t-83.5 -31q-48 0 -82.5 31t-34.5 84t34.5 84t82.5 31q49 0 83.5 -31t34.5 -84zM173 718q0 22 -14 36t-34 14q-19 0 -33.5 -14t-14.5 -36t14.5 -36t33.5 -14q20 0 34 14t14 36z" />
    <glyph glyph-name="uni030B" unicode="&#x30b;" horiz-adv-x="0" 
d="M198 790l-99 -189h-89l72 189h116zM385 790l-110 -189h-89l82 189h117z" />
    <glyph glyph-name="uni030C" unicode="&#x30c;" horiz-adv-x="0" 
d="M307 777v-103l-148 -81l-149 81v103l149 -86z" />
    <glyph glyph-name="uni0326" unicode="&#x326;" horiz-adv-x="0" 
d="M11 -264v77q31 -1 57 6.5t44 21t26 30.5q-7 -5 -16.5 -7t-18.5 -2q-36 0 -62 19.5t-26 62.5t29.5 69t72.5 26q33 0 57.5 -17.5t38.5 -46t14 -59.5q0 -65 -31 -106.5t-80.5 -59.5t-104.5 -14z" />
    <glyph glyph-name="uni0327" unicode="&#x327;" horiz-adv-x="0" 
d="M155 -43q34 0 64 -11.5t48 -35.5t18 -62q0 -37 -18.5 -62.5t-48.5 -37.5t-66 -12h-142v82h119q23 0 36 7t13 25q0 19 -13 25t-36 6h-62v126h88v-50z" />
    <glyph glyph-name="uni0328" unicode="&#x328;" horiz-adv-x="0" 
d="M197 67l33 -67l-47 -24q-35 -17 -48.5 -32.5t-13.5 -33.5t13.5 -28.5t35.5 -10.5q32 0 71 14v-84q-19 -7 -41.5 -11t-47.5 -4q-36 0 -68 11.5t-52 36t-20 63.5q0 28 13 53.5t45 50.5t86 48z" />
    <glyph glyph-name="pi" unicode="&#x3c0;" horiz-adv-x="707" 
d="M26 554h652v-108h-74v-446h-140v446h-224v-446h-141v446h-73v108z" />
    <glyph glyph-name="Wgrave" unicode="&#x1e80;" horiz-adv-x="1025" 
d="M22 698h151l141 -620h-38l161 620h157l154 -621h-40l143 621h152l-195 -698h-166l-144 546h28l-150 -546h-166zM367 957l231 -119v-100l-231 105v114z" />
    <glyph glyph-name="wgrave" unicode="&#x1e81;" horiz-adv-x="845" 
d="M7 554h143l117 -509h-42l128 509h149l126 -509h-42l116 509h136l-161 -554h-154l-121 469h44l-124 -469h-153zM271 812l231 -119v-100l-231 105v114z" />
    <glyph glyph-name="Wacute" unicode="&#x1e82;" horiz-adv-x="1025" 
d="M22 698h151l141 -620h-38l161 620h157l154 -621h-40l143 621h152l-195 -698h-166l-144 546h28l-150 -546h-166zM666 960v-114l-231 -105v100z" />
    <glyph glyph-name="wacute" unicode="&#x1e83;" horiz-adv-x="845" 
d="M7 554h143l117 -509h-42l128 509h149l126 -509h-42l116 509h136l-161 -554h-154l-121 469h44l-124 -469h-153zM579 812v-114l-231 -105v100z" />
    <glyph glyph-name="Wdieresis" unicode="&#x1e84;" horiz-adv-x="1025" 
d="M22 698h151l141 -620h-38l161 620h157l154 -621h-40l143 621h152l-195 -698h-166l-144 546h28l-150 -546h-166zM416 766q-28 0 -47 19.5t-19 46.5q0 29 19.5 48t46.5 19q29 0 48 -19.5t19 -47.5t-19.5 -47t-47.5 -19zM602 766q-28 0 -47 19.5t-19 46.5q0 29 19 48t47 19
t47.5 -19.5t19.5 -47.5t-19 -47t-48 -19z" />
    <glyph glyph-name="wdieresis" unicode="&#x1e85;" horiz-adv-x="845" 
d="M7 554h143l117 -509h-42l128 509h149l126 -509h-42l116 509h136l-161 -554h-154l-121 469h44l-124 -469h-153zM330 620q-28 0 -47 19.5t-19 46.5q0 29 19.5 48t46.5 19q29 0 48 -19.5t19 -47.5t-19.5 -47t-47.5 -19zM516 620q-28 0 -47 19.5t-19 46.5q0 29 19 48t47 19
t47.5 -19.5t19.5 -47.5t-19 -47t-48 -19z" />
    <glyph glyph-name="uni1E9E" unicode="&#x1e9e;" horiz-adv-x="729" 
d="M51 549q0 63 30 113t89 79t147 29q77 0 131 -25t82 -65t28 -86q0 -36 -12.5 -62.5t-31 -47t-36.5 -36.5t-30.5 -29t-12.5 -27q0 -10 7.5 -19t28.5 -19.5t63 -25.5q77 -27 110 -67t33 -100q0 -50 -25.5 -89t-72 -60.5t-111.5 -21.5q-95 0 -153.5 48.5t-68.5 138.5h136
q1 -37 23 -58.5t61 -21.5q34 0 52.5 13.5t18.5 41.5q0 27 -17.5 44.5t-69.5 35.5q-81 28 -119 59t-38 79q0 28 12.5 50.5t31 42t37.5 37t31 36.5t12 40q0 37 -28.5 57t-76.5 20q-65 0 -92.5 -31.5t-27.5 -86.5v-535h-141v549z" />
    <glyph glyph-name="uni1EBC" unicode="&#x1ebc;" horiz-adv-x="532" 
d="M475 584h-265v-174h235v-111h-235v-185h265v-114h-406v698h406v-114zM332 750q-28 0 -48 11t-37.5 22.5t-37.5 11.5q-16 0 -28 -10.5t-15 -33.5h-76q11 69 44.5 101t81.5 32q28 0 48 -11.5t37.5 -22.5t37.5 -11q17 0 28.5 10.5t14.5 32.5h76q-11 -68 -44 -100t-82 -32z
" />
    <glyph glyph-name="uni1EBD" unicode="&#x1ebd;" horiz-adv-x="619" 
d="M332 -7q-64 0 -118.5 20t-95 57t-63 88.5t-22.5 114.5q0 65 23 118t64 91t94 58.5t112 20.5q50 0 94 -13.5t77.5 -38t52 -58.5t18.5 -74q0 -52 -30 -87t-79.5 -55.5t-108.5 -28t-116 -5.5q-9 1 -21 1t-21.5 0.5t-12.5 0.5q6 -27 28.5 -50t55.5 -35.5t71 -12.5q33 0 64 11
t57.5 30.5t43.5 42.5l97 -73q-32 -42 -74 -69.5t-90 -40.5t-100 -13zM239 302q33 0 66.5 3t62 11.5t46 24t17.5 39.5q0 20 -13.5 35.5t-36 25t-51.5 9.5q-46 0 -81.5 -21t-55.5 -54.5t-22 -69.5q12 -1 30 -2t38 -1zM374 605q-28 0 -48 11t-37.5 22.5t-37.5 11.5
q-16 0 -28 -10.5t-15 -33.5h-76q11 69 44.5 101t81.5 32q28 0 48 -11.5t37.5 -22.5t37.5 -11q17 0 28.5 10.5t14.5 32.5h76q-11 -68 -44 -100t-82 -32z" />
    <glyph glyph-name="Ygrave" unicode="&#x1ef2;" 
d="M11 698h160l178 -381h-59l178 381h158l-236 -455v-243h-142v243zM198 957l231 -119v-100l-231 105v114z" />
    <glyph glyph-name="ygrave" unicode="&#x1ef3;" 
d="M437 5v549h141v-549q0 -57 -17.5 -107t-52.5 -88t-87.5 -59.5t-123.5 -21.5q-66 0 -120 22t-92.5 64t-57.5 104l125 43q19 -50 53.5 -80.5t87.5 -30.5q67 0 105.5 41t38.5 113zM460 252q-2 -77 -20 -126t-46.5 -75.5t-61 -36.5t-63.5 -10q-65 0 -114 28t-76 81t-27 129
v312h139v-289q0 -67 34 -103.5t89 -36.5q38 0 66 19.5t42.5 53.5t14.5 77zM192 812l231 -119v-100l-231 105v114z" />
    <glyph glyph-name="uni1EF8" unicode="&#x1ef8;" 
d="M11 698h160l178 -381h-59l178 381h158l-236 -455v-243h-142v243zM379 750q-28 0 -48 11t-37.5 22.5t-37.5 11.5q-16 0 -28 -10.5t-15 -33.5h-76q11 69 44.5 101t81.5 32q28 0 48 -11.5t37.5 -22.5t37.5 -11q17 0 28.5 10.5t14.5 32.5h76q-11 -68 -44 -100t-82 -32z" />
    <glyph glyph-name="uni1EF9" unicode="&#x1ef9;" 
d="M437 5v549h141v-549q0 -57 -17.5 -107t-52.5 -88t-87.5 -59.5t-123.5 -21.5q-66 0 -120 22t-92.5 64t-57.5 104l125 43q19 -50 53.5 -80.5t87.5 -30.5q67 0 105.5 41t38.5 113zM460 252q-2 -77 -20 -126t-46.5 -75.5t-61 -36.5t-63.5 -10q-65 0 -114 28t-76 81t-27 129
v312h139v-289q0 -67 34 -103.5t89 -36.5q38 0 66 19.5t42.5 53.5t14.5 77zM374 605q-28 0 -48 11t-37.5 22.5t-37.5 11.5q-16 0 -28 -10.5t-15 -33.5h-76q11 69 44.5 101t81.5 32q28 0 48 -11.5t37.5 -22.5t37.5 -11q17 0 28.5 10.5t14.5 32.5h76q-11 -68 -44 -100t-82 -32z
" />
    <glyph glyph-name="endash" unicode="&#x2013;" horiz-adv-x="702" 
d="M79 416h545v-118h-545v118z" />
    <glyph glyph-name="emdash" unicode="&#x2014;" horiz-adv-x="927" 
d="M79 416h769v-118h-769v118z" />
    <glyph glyph-name="quoteleft" unicode="&#x2018;" horiz-adv-x="275" 
d="M235 698v-62q-55 0 -89 -22t-44 -51q9 8 21.5 12t24.5 4q34 0 58.5 -18.5t24.5 -59.5q0 -40 -27.5 -65t-68.5 -25q-30 0 -54 17t-37 43.5t-13 56.5q0 60 28.5 97.5t75 55t100.5 17.5z" />
    <glyph glyph-name="quoteright" unicode="&#x2019;" horiz-adv-x="275" 
d="M40 418v62q59 0 91.5 22t40.5 51q-9 -8 -21 -11.5t-24 -3.5q-34 0 -58.5 18t-24.5 59t27.5 65.5t68.5 24.5q30 0 53.5 -16.5t36.5 -43.5t13 -56q0 -60 -27 -98t-73 -55.5t-103 -17.5z" />
    <glyph glyph-name="quotesinglbase" unicode="&#x201a;" horiz-adv-x="247" 
d="M11 -132v64q61 1 94 23t43 52q-10 -8 -23 -11.5t-25 -3.5q-34 0 -59.5 18.5t-25.5 60.5t28.5 67.5t70.5 25.5q32 0 55.5 -17.5t37.5 -44.5t14 -58q0 -62 -28.5 -101t-76 -57t-105.5 -18z" />
    <glyph glyph-name="quotedblleft" unicode="&#x201c;" horiz-adv-x="500" 
d="M235 698v-62q-55 0 -89 -22t-44 -51q20 16 50 16q20 0 38 -8.5t29.5 -25.5t11.5 -44q0 -40 -27.5 -65t-68.5 -25q-30 0 -54 17t-37 43.5t-13 56.5q0 60 28.5 97.5t75 55t100.5 17.5zM460 698v-62q-54 0 -88.5 -22t-43.5 -51q19 16 49 16q20 0 38.5 -8.5t30 -25.5
t11.5 -44q0 -40 -28 -65t-68 -25q-31 0 -54 17t-36.5 43.5t-13.5 56.5q0 60 28.5 97.5t75 55t99.5 17.5z" />
    <glyph glyph-name="quotedblright" unicode="&#x201d;" horiz-adv-x="500" 
d="M40 418v62q59 0 91.5 22t40.5 51q-9 -8 -21 -11.5t-24 -3.5q-34 0 -58.5 18t-24.5 59t27.5 65.5t68.5 24.5q30 0 53.5 -16.5t36.5 -43.5t13 -56q0 -60 -27 -98t-73 -55.5t-103 -17.5zM266 418v62q59 0 91 22t41 51q-9 -8 -21 -11.5t-25 -3.5q-33 0 -58 18t-25 59t28 65.5
t68 24.5q31 0 54.5 -16.5t36.5 -43.5t13 -56q0 -60 -27.5 -98t-73.5 -55.5t-102 -17.5z" />
    <glyph glyph-name="quotedblbase" unicode="&#x201e;" horiz-adv-x="479" 
d="M11 -132v64q61 1 94 23t43 52q-10 -8 -23 -11.5t-25 -3.5q-34 0 -59.5 18.5t-25.5 60.5t28.5 67.5t70.5 25.5q32 0 55.5 -17.5t37.5 -44.5t14 -58q0 -62 -28.5 -101t-76 -57t-105.5 -18zM242 -132v64q61 1 94.5 23t42.5 52q-9 -8 -22 -11.5t-25 -3.5q-35 0 -60 18.5
t-25 60.5t28.5 67.5t69.5 25.5q32 0 56 -17.5t37.5 -44.5t13.5 -58q0 -62 -28.5 -101t-76 -57t-105.5 -18z" />
    <glyph glyph-name="dagger" unicode="&#x2020;" horiz-adv-x="618" 
d="M568 554v-108l-203 11l15 -721h-142l14 721l-202 -11v108l202 -11l-14 243h142l-15 -243z" />
    <glyph glyph-name="daggerdbl" unicode="&#x2021;" horiz-adv-x="618" 
d="M568 446l-203 11v-391l203 11v-109l-203 11l14 -243h-141l14 243l-202 -11v109l202 -11v391l-202 -11v108l202 -11l-14 243h141l-14 -243l203 11v-108z" />
    <glyph glyph-name="bullet" unicode="&#x2022;" horiz-adv-x="481" 
d="M239 194q-38 0 -70 18.5t-50.5 50t-18.5 70.5q0 40 18.5 71.5t50.5 50.5t70 19q41 0 73 -19t50.5 -50.5t18.5 -71.5q0 -39 -18.5 -70.5t-50.5 -50t-73 -18.5z" />
    <glyph glyph-name="ellipsis" unicode="&#x2026;" horiz-adv-x="710" 
d="M358 -7q-41 0 -67.5 25t-26.5 61q0 37 26.5 61.5t67.5 24.5q40 0 66 -24.5t26 -61.5q0 -36 -26 -61t-66 -25zM578 -7q-41 0 -67.5 25t-26.5 61q0 37 26.5 61.5t67.5 24.5q40 0 66 -24.5t26 -61.5q0 -36 -26 -61t-66 -25zM138 -7q-41 0 -67.5 25t-26.5 61q0 37 26.5 61.5
t67.5 24.5q40 0 66 -24.5t26 -61.5q0 -36 -26 -61t-66 -25z" />
    <glyph glyph-name="perthousand" unicode="&#x2030;" horiz-adv-x="1119" 
d="M118 0l392 698h138l-393 -698h-137zM573 -7q-68 0 -114 41.5t-46 119.5t46 119t114 41t113 -41t45 -119t-45 -119.5t-113 -41.5zM572 78q25 0 40.5 18t15.5 58q0 39 -15.5 57.5t-40.5 18.5q-26 0 -41 -18.5t-15 -57.5q0 -40 15 -58t41 -18zM195 385q-68 0 -113.5 41.5
t-45.5 118.5t45.5 118.5t113.5 41.5t113.5 -41.5t45.5 -118.5t-45.5 -118.5t-113.5 -41.5zM195 469q26 0 41 18.5t15 57.5q0 40 -15 58t-41 18t-41 -18t-15 -58q0 -39 15 -57.5t41 -18.5zM924 -7q-67 0 -113 41.5t-46 119.5t46 119t113 41q68 0 113.5 -41t45.5 -119
t-45.5 -119.5t-113.5 -41.5zM924 78q26 0 41 18t15 58q0 39 -15 57.5t-41 18.5t-41 -18.5t-15 -57.5q0 -40 15 -58t41 -18z" />
    <glyph glyph-name="guilsinglleft" unicode="&#x2039;" horiz-adv-x="316" 
d="M266 120h-133l-88 175l88 175h133l-91 -175z" />
    <glyph glyph-name="guilsinglright" unicode="&#x203a;" horiz-adv-x="316" 
d="M50 120l91 175l-91 175h133l88 -175l-88 -175h-133z" />
    <glyph glyph-name="fraction" unicode="&#x2044;" horiz-adv-x="579" 
d="M424 698h138l-393 -698h-138z" />
    <glyph glyph-name="uni20A8" unicode="&#x20a8;" horiz-adv-x="1169" 
d="M69 0v698h263q82 0 138 -27t84.5 -74.5t28.5 -108.5q0 -67 -41.5 -114.5t-109.5 -63.5q52 -18 93.5 -61t68.5 -106t36 -143h-152q-6 71 -31 128.5t-75 91.5q-30 21 -70.5 33t-91.5 12v-265h-141zM210 379h116q55 0 84 30t29 74q0 45 -29.5 73t-83.5 28h-116v-205zM878 -7
q-59 0 -107.5 19.5t-80.5 54.5t-45 78l133 30q8 -34 35 -53.5t64 -19.5q41 0 63 16t22 40q0 25 -22.5 38.5t-58.5 22t-76 19t-76 28.5t-58.5 48.5t-22.5 81.5q0 45 26.5 83t75.5 60t118 22q58 0 103 -18t74 -51.5t41 -78.5l-129 -34q-8 35 -31 53t-62 18t-59 -14t-20 -38
q0 -25 22.5 -38.5t58 -23t75.5 -20t75.5 -28.5t58 -49t22.5 -82q0 -45 -26.5 -82.5t-76 -59.5t-116.5 -22z" />
    <glyph glyph-name="Euro" unicode="&#x20ac;" horiz-adv-x="789" 
d="M23 386v84h429v-84h-429zM23 230v84h429v-84h-429zM444 705q78 0 139.5 -25t105.5 -71.5t68 -110.5l-126 -44q-24 59 -74 91.5t-112 32.5q-61 0 -108.5 -28t-74.5 -79.5t-27 -120.5t26.5 -120.5t73.5 -79.5t108 -28q37 0 73.5 14t66 40.5t45.5 65.5l134 -42
q-23 -62 -69 -108.5t-109 -72.5t-140 -26q-76 0 -140.5 26t-112.5 74t-74.5 113.5t-26.5 143.5t26.5 143.5t74.5 112.5t113 73t140 26z" />
    <glyph glyph-name="uni20B9" unicode="&#x20b9;" horiz-adv-x="611" 
d="M478 642v-146q0 -82 -25.5 -136t-85 -81.5t-161.5 -27.5v-50q0 -43 17.5 -72.5t67.5 -29.5q47 0 66 27t19 73h130q-2 -100 -56.5 -154t-157.5 -54q-106 0 -162.5 57t-56.5 165v133q94 0 148.5 5t81 20t34.5 44.5t8 78.5v148h133zM42 699h537v-99h-537v99zM42 433v93h537
v-93h-537z" />
    <glyph glyph-name="uni20BA" unicode="&#x20ba;" horiz-adv-x="842" 
d="M374 -12q-50 0 -106 7.5t-117 19.5v689h145v-576q21 -4 40 -5.5t38 -1.5q69 0 114 23t70 66t35.5 101.5t10.5 130.5h145q0 -155 -37.5 -255.5t-120 -149.5t-217.5 -49zM14 214v93l429 88v-93zM11 378v90l435 92v-93z" />
    <glyph glyph-name="uni20BD" unicode="&#x20bd;" horiz-adv-x="654" 
d="M22 387h346q57 0 84 28t27 73t-27 73.5t-84 28.5h-113v-590h-141v698h258q84 0 140 -28t83.5 -76t27.5 -107q0 -52 -25.5 -100.5t-80.5 -79t-145 -30.5h-350v110zM22 206h411v-110h-411v110z" />
    <glyph glyph-name="uni2113" unicode="&#x2113;" horiz-adv-x="319" 
d="M69 149v591h141v-582q0 -22 13 -33t31 -11q13 0 22 4l26 -107q-35 -18 -80 -18q-37 0 -72.5 15.5t-58 50t-22.5 90.5z" />
    <glyph glyph-name="trademark" unicode="&#x2122;" horiz-adv-x="846" 
d="M26 698h265v-83h-81v-268h-104v268h-80v83zM346 698h140l107 -290h-50l119 290h131v-351h-99v289l29 3l-121 -292h-72l-115 292l25 -3v-289h-94v351z" />
    <glyph glyph-name="uni2126" unicode="&#x2126;" horiz-adv-x="787" 
d="M44 0v109h191l-25 -35q-61 27 -99 71t-56 98.5t-18 115.5q0 78 27.5 142.5t76 110.5t113 71t139.5 25q74 0 139 -25t114 -71t76.5 -110.5t27.5 -142.5q0 -61 -18 -115.5t-56 -98.5t-100 -71l-26 35h192v-109h-272v112q40 21 70.5 54t48 78t17.5 101q0 73 -27 125.5
t-75 80t-111 27.5t-111 -28t-75 -80t-27 -125q0 -56 18 -101t48.5 -78t69.5 -54v-112h-272z" />
    <glyph glyph-name="estimated" unicode="&#x212e;" horiz-adv-x="753" 
d="M385 -7q-99 0 -177 40t-123.5 116t-45.5 185q0 105 39.5 190t114.5 134.5t183 49.5q81 0 144 -27t106 -73t65.5 -105t22.5 -122v-63h-505v-174q36 -32 78.5 -49t97.5 -17q74 0 133 30.5t114 85.5l52 -59q-62 -67 -136.5 -104.5t-162.5 -37.5zM209 397h330v170
q-29 29 -71 43.5t-92 14.5q-52 0 -94 -16.5t-73 -49.5v-162z" />
    <glyph glyph-name="partialdiff" unicode="&#x2202;" horiz-adv-x="600" 
d="M254 -8q-59 0 -109 27t-79.5 81.5t-29.5 139.5q0 68 21.5 126.5t59 102t87 67.5t106.5 24q39 0 69.5 -14.5t51.5 -41.5l-7 -8q-2 44 -17.5 81t-47 59.5t-81.5 22.5q-16 0 -33.5 -2.5t-38.5 -7.5v75q29 8 55 12t50 4q82 0 138.5 -41.5t85.5 -116t29 -174.5
q0 -97 -23.5 -174t-65.5 -131t-98.5 -82.5t-122.5 -28.5zM269 112q42 0 73 28t49 75t18 103q0 62 -25 93t-65 31q-41 0 -72.5 -26.5t-49 -72t-17.5 -103.5q0 -66 25.5 -97t63.5 -31z" />
    <glyph glyph-name="uni2206" unicode="&#x2206;" horiz-adv-x="715" 
d="M300 700h115l280 -592v-108h-675v108zM358 539l-192 -431h383z" />
    <glyph glyph-name="product" unicode="&#x220f;" horiz-adv-x="744" 
d="M26 699h692v-108h-74v-591h-140v591h-264v-591h-141v591h-73v108z" />
    <glyph glyph-name="summation" unicode="&#x2211;" horiz-adv-x="507" 
d="M40 698h427v-108h-329l-19 39l299 -245v-108l-299 -257l-3 36h351v-108h-427v165l245 215l-245 209v162z" />
    <glyph glyph-name="minus" unicode="&#x2212;" horiz-adv-x="667" 
d="M121 416h425v-118h-425v118z" />
    <glyph glyph-name="radical" unicode="&#x221a;" horiz-adv-x="878" 
d="M770 891h93l-516 -933h-70l-141 249l-75 -45l-41 68l199 118l144 -256l-26 15z" />
    <glyph glyph-name="infinity" unicode="&#x221e;" horiz-adv-x="738" 
d="M196 184q-73 1 -120 43.5t-47 119.5q0 52 23 88.5t61.5 56t84.5 19.5t80.5 -16.5t61.5 -42.5t49 -55.5t43.5 -56t45 -43t53.5 -16.5q28 0 46.5 17.5t18.5 49.5q0 33 -18.5 49.5t-46.5 16.5q-37 0 -72 -28t-50 -74l-69 33q10 44 38 82t70 61.5t94 22.5q49 0 86.5 -19.5
t59.5 -55.5t22 -88q0 -51 -23 -88t-61.5 -56.5t-85.5 -19.5q-45 0 -81.5 16.5t-65 42.5t-52 56t-45 56t-43 42.5t-45.5 16.5q-28 0 -46.5 -17t-18.5 -50q0 -32 18.5 -49t46.5 -17q37 0 71.5 28t49.5 74l70 -33q-10 -44 -38 -82t-70 -61t-95 -23z" />
    <glyph glyph-name="integral" unicode="&#x222b;" horiz-adv-x="281" 
d="M116 765q6 64 32 101t67.5 52t94.5 15h20l-12 -119h-17q-20 0 -30.5 -11.5t-13.5 -37.5l-89 -838q-6 -63 -32.5 -100t-68 -52.5t-94.5 -15.5h-19l11 119h17q20 0 31 12t13 37z" />
    <glyph glyph-name="approxequal" unicode="&#x2248;" horiz-adv-x="667" 
d="M419 152q-31 0 -55 10t-44 22.5t-39.5 22.5t-41.5 10q-26 0 -44 -16t-23 -49h-103q17 101 64 146t114 45q32 0 56 -10t44.5 -23t39.5 -23t41 -10q25 0 43.5 16t22.5 49h104q-16 -101 -64 -145.5t-115 -44.5zM419 387q-31 0 -55 10t-44 22.5t-39.5 22.5t-41.5 10
q-26 0 -44 -16t-23 -49h-103q17 101 64 146t114 45q32 0 56 -10t44.5 -23t39.5 -23t41 -10q25 0 43.5 16t22.5 49h104q-16 -101 -64 -145.5t-115 -44.5z" />
    <glyph glyph-name="notequal" unicode="&#x2260;" horiz-adv-x="667" 
d="M517 633h89l-455 -555h-90zM67 297h546v-123h-546v123zM67 538h546v-123h-546v123z" />
    <glyph glyph-name="lessequal" unicode="&#x2264;" horiz-adv-x="667" 
d="M146 142h383v-107h-383v107zM532 205h-181l-217 187l217 188h181l-227 -196v18z" />
    <glyph glyph-name="greaterequal" unicode="&#x2265;" horiz-adv-x="667" 
d="M134 205l226 197v-18l-226 196h180l218 -188l-218 -187h-180zM520 142v-107h-383v107h383z" />
    <glyph glyph-name="lozenge" unicode="&#x25ca;" horiz-adv-x="561" 
d="M281 606l254 -254l-254 -255l-255 255zM281 463l-111 -111l111 -111l111 111z" />
    <glyph glyph-name="uni25CC" unicode="&#x25cc;" horiz-adv-x="600" 
d="M487 367q-19 0 -31 11.5t-12 30.5t12 30.5t31 11.5t31 -11.5t12 -30.5t-12 -30.5t-31 -11.5zM111 81q-19 0 -31 11.5t-12 30.5t12 30.5t31 11.5t31 -11.5t12 -30.5t-12 -30.5t-31 -11.5zM209 5q-19 0 -31 11.5t-12 30.5t12 30.5t31 11.5t31 -11.5t12 -30.5t-12 -30.5
t-31 -11.5zM66 194q-19 0 -31 11.5t-12 30.5t12 30.5t31 11.5t31 -11.5t12 -30.5t-12 -30.5t-31 -11.5zM333 -9q-19 0 -31 11.5t-12 30.5t12 30.5t31 11.5t31 -11.5t12 -30.5t-12 -30.5t-31 -11.5zM81 315q-19 0 -31 11.5t-12 30.5t12 30.5t31 11.5t31 -11.5t12 -30.5
t-12 -30.5t-31 -11.5zM448 37q-19 0 -31 11.5t-12 30.5t12 30.5t31 11.5t31 -11.5t12 -30.5t-12 -30.5t-31 -11.5zM157 414q-19 0 -31 11.5t-12 30.5t12 30.5t31 11.5t31 -11.5t12 -30.5t-12 -30.5t-31 -11.5zM521 133q-19 0 -31 11.5t-12 30.5t12 30.5t31 11.5t31 -11.5
t12 -30.5t-12 -30.5t-31 -11.5zM274 456q-19 0 -31 11.5t-12 30.5t12 30.5t32 11.5q19 0 30.5 -11.5t11.5 -30.5t-12 -30.5t-31 -11.5zM531 253q-19 0 -31 11.5t-12 30.5t12 30.5t31 11.5t31 -11.5t12 -30.5t-12 -30.5t-31 -11.5zM395 441q-19 0 -31 11.5t-12 30.5t12 30.5
t31 11.5t31 -11.5t12 -30.5t-12 -30.5t-31 -11.5z" />
    <glyph glyph-name="i.loclTRK" horiz-adv-x="292" 
d="M75 554h142v-554h-142v554zM79 710q0 28 19.5 47t47.5 19t47 -19.5t19 -47.5t-19.5 -47t-47.5 -19t-47 19.5t-19 47.5z" />
    <glyph glyph-name="periodcentered.loclCAT" horiz-adv-x="236" 
d="M117 253q-41 0 -67.5 25t-26.5 61q0 37 26.5 61.5t67.5 24.5q40 0 66 -24.5t26 -61.5q0 -36 -26 -61t-66 -25z" />
    <glyph glyph-name="periodcentered.loclCAT.case" horiz-adv-x="226" 
d="M114 274q-41 0 -67.5 25t-26.5 61q0 37 26.5 61.5t67.5 24.5q40 0 66 -24.5t26 -61.5q0 -36 -26 -61t-66 -25z" />
    <glyph glyph-name="uni030C.alt" horiz-adv-x="0" 
d="M251 462v60q27 -2 49 6t36 21.5t18 25.5q-11 -9 -31 -9q-27 0 -48 15.5t-21 49.5t23 54.5t57 20.5q26 0 45 -14.5t30 -36.5t11 -46q0 -50 -24 -84.5t-63 -50.5t-82 -12z" />
    </font>
</defs>
</svg>
